# 3ds Max Wavefront OBJ Exporter v0.97b - (c)2007 guruware
# File Created: 24.05.2016 23:07:06

mtllib arc_1.mtl

#
# object Object004
#

v  -2.5260 1.3487 0.2098
v  -2.5260 4.5760 0.2098
v  -2.9536 4.5760 0.2098
v  -2.9536 1.3487 0.2098
v  -2.2532 1.0759 -0.4866
v  -2.2532 4.8489 -0.4866
v  -2.2532 4.8489 0.4866
v  -2.2532 1.0759 0.4866
v  -2.9536 1.3487 -0.2098
v  -2.9536 4.5760 -0.2098
v  -2.5260 4.5760 -0.2098
v  -2.5260 1.3487 -0.2098
v  -3.2265 4.8489 0.4866
v  -3.2265 4.8489 -0.4866
v  -3.2265 1.0759 -0.4866
v  -3.2265 1.0759 0.4866
v  -2.1037 4.8788 0.6336
v  -2.0583 5.4414 0.6336
v  -3.2982 5.7035 0.6336
v  -3.3696 4.8190 0.6336
v  -3.6102 1.0759 0.8704
v  -3.6102 -0.0494 0.8704
v  -1.8694 -0.0494 0.8704
v  -1.8694 1.0759 0.8704
v  -2.1037 4.8788 -0.6336
v  -2.0583 5.4414 -0.6336
v  -1.8694 -0.0494 -0.8704
v  -1.8694 1.0759 -0.8704
v  -3.3696 4.8190 -0.6336
v  -3.2982 5.7035 -0.6336
v  -3.6102 -0.0494 -0.8704
v  -3.6102 1.0759 -0.8704
v  -2.5260 1.3487 0.4866
v  -2.5260 4.5760 0.4866
v  -2.9536 4.5760 0.4866
v  -2.9536 1.3487 0.4866
v  -2.5260 4.5760 -0.4866
v  -2.5260 1.3487 -0.4866
v  -2.9536 1.3487 -0.4866
v  -2.9536 4.5760 -0.4866
v  -1.3304 6.6672 0.6336
v  -0.7120 7.0408 0.6336
v  -1.1816 8.2179 0.6336
v  -2.1538 7.6305 0.6336
v  -1.1816 8.2179 -0.6336
v  -2.1538 7.6305 -0.6336
v  -0.7120 7.0408 -0.6336
v  -1.3304 6.6672 -0.6336
v  -0.0001 7.1949 0.6336
v  -0.0001 8.4530 0.6336
v  -2.8853 6.7616 0.6336
v  -1.7957 6.1145 0.6336
v  -0.0001 8.4530 -0.6336
v  -2.8853 6.7616 -0.6336
v  -0.0001 7.1949 -0.6336
v  -1.7957 6.1145 -0.6336
v  2.9535 4.5760 0.2098
v  2.5259 4.5760 0.2098
v  2.5259 1.3487 0.2098
v  2.9535 1.3487 0.2098
v  2.2531 4.8489 0.4866
v  2.2531 4.8489 -0.4866
v  2.2531 1.0759 -0.4866
v  2.2531 1.0759 0.4866
v  2.5259 4.5760 -0.2098
v  2.9535 4.5760 -0.2098
v  2.9535 1.3487 -0.2098
v  2.5259 1.3487 -0.2098
v  3.2263 1.0759 -0.4866
v  3.2263 4.8489 -0.4866
v  3.2263 4.8489 0.4866
v  3.2263 1.0759 0.4866
v  3.2981 5.7035 0.6336
v  2.0582 5.4414 0.6336
v  2.1036 4.8788 0.6336
v  3.3695 4.8190 0.6336
v  1.8693 -0.0494 0.8704
v  3.6101 -0.0494 0.8704
v  3.6101 1.0759 0.8704
v  1.8693 1.0759 0.8704
v  2.0582 5.4414 -0.6336
v  2.1036 4.8788 -0.6336
v  1.8693 -0.0494 -0.8704
v  1.8693 1.0759 -0.8704
v  3.2981 5.7035 -0.6336
v  3.3695 4.8190 -0.6336
v  3.6101 -0.0494 -0.8704
v  3.6101 1.0759 -0.8704
v  2.5259 1.3487 0.4866
v  2.5259 4.5760 0.4866
v  2.9535 4.5760 0.4866
v  2.9535 1.3487 0.4866
v  2.5259 4.5760 -0.4866
v  2.5259 1.3487 -0.4866
v  2.9535 1.3487 -0.4866
v  2.9535 4.5760 -0.4866
v  1.1815 8.2179 0.6336
v  0.7119 7.0408 0.6336
v  1.3303 6.6672 0.6336
v  2.1537 7.6305 0.6336
v  1.1815 8.2179 -0.6336
v  2.1537 7.6305 -0.6336
v  0.7119 7.0408 -0.6336
v  1.3303 6.6672 -0.6336
v  2.8853 6.7616 0.6336
v  1.7956 6.1145 0.6336
v  2.8853 6.7616 -0.6336
v  1.7956 6.1145 -0.6336
# 108 vertices

vn 0.0000 0.0000 1.0000
vn 1.0000 0.0000 -0.0000
vn 0.0000 0.0000 -1.0000
vn -1.0000 0.0000 -0.0000
vn 0.9968 -0.0804 -0.0000
vn -0.9968 0.0805 -0.0000
vn 0.0000 -1.0000 -0.0000
vn 0.0000 1.0000 -0.0000
vn 0.0267 -0.9996 -0.0006
vn 0.1961 -0.9806 -0.0000
vn 0.0267 -0.9996 0.0006
vn 0.2045 -0.9789 -0.0000
vn -0.5171 0.8559 -0.0000
vn 0.5171 -0.8559 -0.0000
vn -0.1952 0.9808 -0.0000
vn -0.9316 0.3635 -0.0000
vn -0.7650 0.6440 -0.0000
vn 0.2116 -0.9774 -0.0000
vn 0.9316 -0.3635 -0.0000
vn 0.7650 -0.6440 -0.0000
vn -0.9968 -0.0804 -0.0000
vn 0.9968 0.0805 -0.0000
vn -0.0267 -0.9996 -0.0006
vn -0.1961 -0.9806 -0.0000
vn -0.0267 -0.9996 0.0006
vn -0.2044 -0.9789 -0.0000
vn 0.5171 0.8559 -0.0000
vn -0.5171 -0.8559 -0.0000
vn 0.1951 0.9808 -0.0000
vn 0.9316 0.3635 -0.0000
vn 0.7650 0.6440 -0.0000
vn -0.2115 -0.9774 -0.0000
vn -0.9316 -0.3635 -0.0000
vn -0.7650 -0.6440 -0.0000
# 34 vertex normals

vt 0.6261 0.5933 0.0000
vt 0.6246 0.6911 0.0000
vt 0.6116 0.6908 0.0000
vt 0.6131 0.5931 0.0000
vt 0.7033 0.4924 0.0000
vt 0.5887 0.4924 0.0000
vt 0.5887 0.4628 0.0000
vt 0.7033 0.4628 0.0000
vt 0.5104 0.8218 0.0000
vt 0.5091 0.9197 0.0000
vt 0.4959 0.9195 0.0000
vt 0.4974 0.8216 0.0000
vt 0.5887 0.4333 0.0000
vt 0.5887 0.4037 0.0000
vt 0.7033 0.4037 0.0000
vt 0.7033 0.4333 0.0000
vt 0.9655 0.5365 0.0000
vt 0.9517 0.5261 0.0000
vt 0.9708 0.4927 0.0000
vt 0.9923 0.5090 0.0000
vt 0.4592 0.7435 0.0000
vt 0.4249 0.7435 0.0000
vt 0.4249 0.6905 0.0000
vt 0.4592 0.6905 0.0000
vt 0.9205 0.8706 0.0000
vt 0.9397 0.8706 0.0000
vt 0.9397 0.9139 0.0000
vt 0.9205 0.9139 0.0000
vt 0.4249 0.6376 0.0000
vt 0.4592 0.6376 0.0000
vt 0.9924 0.4301 0.0000
vt 0.9716 0.4471 0.0000
vt 0.9513 0.4146 0.0000
vt 0.9645 0.4037 0.0000
vt 0.4249 0.5846 0.0000
vt 0.4592 0.5846 0.0000
vt 0.0020 0.9515 0.0000
vt 0.0323 0.9515 0.0000
vt 0.0323 0.9948 0.0000
vt 0.0020 0.9948 0.0000
vt 0.4592 0.7963 0.0000
vt 0.4249 0.7963 0.0000
vt 0.3721 0.7963 0.0000
vt 0.3721 0.7435 0.0000
vt 0.4707 0.7022 0.0000
vt 0.4707 0.7318 0.0000
vt 0.4707 0.7552 0.0000
vt 0.4707 0.7848 0.0000
vt 0.4707 0.5963 0.0000
vt 0.4707 0.6259 0.0000
vt 0.4707 0.6494 0.0000
vt 0.4707 0.6790 0.0000
vt 0.8060 0.8521 0.0000
vt 0.8015 0.8478 0.0000
vt 0.8015 0.8179 0.0000
vt 0.8060 0.8132 0.0000
vt 0.7716 0.8179 0.0000
vt 0.7671 0.8132 0.0000
vt 0.7671 0.8521 0.0000
vt 0.7716 0.8478 0.0000
vt 0.6950 0.4545 0.0000
vt 0.5970 0.4545 0.0000
vt 0.5970 0.4416 0.0000
vt 0.6950 0.4416 0.0000
vt 0.5970 0.5007 0.0000
vt 0.6950 0.5007 0.0000
vt 0.7033 0.5219 0.0000
vt 0.6950 0.5136 0.0000
vt 0.5887 0.5219 0.0000
vt 0.5970 0.5136 0.0000
vt 0.6346 0.5933 0.0000
vt 0.6331 0.6913 0.0000
vt 0.6246 0.6996 0.0000
vt 0.6116 0.6993 0.0000
vt 0.6033 0.6908 0.0000
vt 0.6046 0.5929 0.0000
vt 0.6133 0.5846 0.0000
vt 0.6263 0.5848 0.0000
vt 0.4876 0.9195 0.0000
vt 0.4889 0.8214 0.0000
vt 0.4974 0.8131 0.0000
vt 0.5104 0.8133 0.0000
vt 0.5187 0.8218 0.0000
vt 0.5174 0.9199 0.0000
vt 0.5089 0.9282 0.0000
vt 0.4959 0.9280 0.0000
vt 0.9093 0.5180 0.0000
vt 0.8883 0.5244 0.0000
vt 0.8710 0.4899 0.0000
vt 0.9040 0.4797 0.0000
vt 0.0981 0.9515 0.0000
vt 0.1181 0.9515 0.0000
vt 0.1181 0.9948 0.0000
vt 0.0981 0.9948 0.0000
vt 0.9053 0.4627 0.0000
vt 0.8719 0.4537 0.0000
vt 0.8879 0.4188 0.0000
vt 0.9090 0.4244 0.0000
vt 0.9817 0.8706 0.0000
vt 0.9943 0.8706 0.0000
vt 0.9943 0.9139 0.0000
vt 0.9817 0.9139 0.0000
vt 0.8704 0.5373 0.0000
vt 0.8419 0.5120 0.0000
vt 0.9385 0.4807 0.0000
vt 0.9312 0.5184 0.0000
vt 0.9440 0.3190 0.0000
vt 0.9440 0.2826 0.0000
vt 0.9827 0.2826 0.0000
vt 0.9827 0.3190 0.0000
vt 0.0685 0.9948 0.0000
vt 0.0685 0.9515 0.0000
vt 0.8419 0.4329 0.0000
vt 0.8693 0.4065 0.0000
vt 0.9309 0.4229 0.0000
vt 0.9396 0.4606 0.0000
vt 0.5900 0.3795 0.0000
vt 0.5900 0.3576 0.0000
vt 0.6289 0.3576 0.0000
vt 0.6289 0.3795 0.0000
vt 0.9628 0.9139 0.0000
vt 0.9628 0.8706 0.0000
vt 0.3280 0.7619 0.0000
vt 0.3412 0.7619 0.0000
vt 0.3425 0.6642 0.0000
vt 0.3295 0.6640 0.0000
vt 0.8345 0.6437 0.0000
vt 0.8345 0.6733 0.0000
vt 0.9491 0.6733 0.0000
vt 0.9491 0.6437 0.0000
vt 0.6116 0.9197 0.0000
vt 0.6246 0.9197 0.0000
vt 0.6261 0.8218 0.0000
vt 0.6131 0.8216 0.0000
vt 0.9491 0.5846 0.0000
vt 0.8345 0.5846 0.0000
vt 0.8345 0.6142 0.0000
vt 0.9491 0.6142 0.0000
vt 0.9635 0.8089 0.0000
vt 0.9444 0.8423 0.0000
vt 0.9582 0.8527 0.0000
vt 0.9850 0.8253 0.0000
vt 0.7718 0.6904 0.0000
vt 0.7718 0.7432 0.0000
vt 0.8061 0.7432 0.0000
vt 0.8061 0.6904 0.0000
vt 0.8723 0.3258 0.0000
vt 0.8723 0.2826 0.0000
vt 0.8531 0.2826 0.0000
vt 0.8531 0.3258 0.0000
vt 0.7718 0.6374 0.0000
vt 0.8061 0.6374 0.0000
vt 0.9438 0.7307 0.0000
vt 0.9640 0.7634 0.0000
vt 0.9849 0.7462 0.0000
vt 0.9570 0.7198 0.0000
vt 0.7718 0.5846 0.0000
vt 0.8061 0.5846 0.0000
vt 0.8834 0.2656 0.0000
vt 0.8834 0.2223 0.0000
vt 0.8531 0.2223 0.0000
vt 0.8531 0.2656 0.0000
vt 0.7718 0.7962 0.0000
vt 0.8061 0.7962 0.0000
vt 0.7190 0.7432 0.0000
vt 0.7190 0.7962 0.0000
vt 0.8176 0.7317 0.0000
vt 0.8176 0.7021 0.0000
vt 0.8176 0.7845 0.0000
vt 0.8176 0.7549 0.0000
vt 0.8176 0.6259 0.0000
vt 0.8176 0.5963 0.0000
vt 0.8176 0.6787 0.0000
vt 0.8176 0.6491 0.0000
vt 0.6859 0.8176 0.0000
vt 0.6859 0.8478 0.0000
vt 0.6905 0.8521 0.0000
vt 0.6905 0.8130 0.0000
vt 0.6559 0.8176 0.0000
vt 0.6514 0.8130 0.0000
vt 0.6514 0.8521 0.0000
vt 0.6559 0.8478 0.0000
vt 0.9408 0.6354 0.0000
vt 0.8428 0.6354 0.0000
vt 0.8428 0.6225 0.0000
vt 0.9408 0.6225 0.0000
vt 0.8428 0.6816 0.0000
vt 0.9408 0.6816 0.0000
vt 0.9491 0.7028 0.0000
vt 0.9408 0.6945 0.0000
vt 0.8345 0.7028 0.0000
vt 0.8428 0.6945 0.0000
vt 0.3495 0.7621 0.0000
vt 0.3510 0.6642 0.0000
vt 0.3280 0.7702 0.0000
vt 0.3410 0.7704 0.0000
vt 0.3210 0.6638 0.0000
vt 0.3198 0.7617 0.0000
vt 0.3427 0.6557 0.0000
vt 0.3297 0.6555 0.0000
vt 0.6046 0.8213 0.0000
vt 0.6033 0.9194 0.0000
vt 0.6261 0.8133 0.0000
vt 0.6131 0.8130 0.0000
vt 0.6331 0.9199 0.0000
vt 0.6344 0.8218 0.0000
vt 0.6116 0.9280 0.0000
vt 0.6246 0.9282 0.0000
vt 0.8637 0.8061 0.0000
vt 0.8809 0.8406 0.0000
vt 0.9020 0.8340 0.0000
vt 0.8967 0.7959 0.0000
vt 0.9693 0.2656 0.0000
vt 0.9693 0.2223 0.0000
vt 0.9492 0.2223 0.0000
vt 0.9492 0.2656 0.0000
vt 0.8805 0.7349 0.0000
vt 0.8645 0.7700 0.0000
vt 0.8979 0.7789 0.0000
vt 0.9015 0.7404 0.0000
vt 0.9270 0.3258 0.0000
vt 0.9270 0.2826 0.0000
vt 0.9143 0.2826 0.0000
vt 0.9143 0.3258 0.0000
vt 0.8345 0.8280 0.0000
vt 0.8631 0.8536 0.0000
vt 0.9312 0.7970 0.0000
vt 0.9239 0.8346 0.0000
vt 0.4577 0.8907 0.0000
vt 0.4188 0.8907 0.0000
vt 0.4188 0.9269 0.0000
vt 0.4577 0.9269 0.0000
vt 0.9196 0.2656 0.0000
vt 0.9196 0.2223 0.0000
vt 0.8620 0.7226 0.0000
vt 0.8345 0.7489 0.0000
vt 0.9234 0.7392 0.0000
vt 0.9321 0.7766 0.0000
vt 0.6671 0.1829 0.0000
vt 0.6280 0.1829 0.0000
vt 0.6280 0.2047 0.0000
vt 0.6671 0.2047 0.0000
vt 0.8953 0.3258 0.0000
vt 0.8953 0.2826 0.0000
# 244 texture coords

g Object004
usemtl Material__2
s 8
f 1/1/1 2/2/1 3/3/1 4/4/1 
s 16
f 5/5/2 6/6/2 7/7/2 8/8/2 
s 32
f 9/9/3 10/10/3 11/11/3 12/12/3 
s 64
f 13/13/4 14/14/4 15/15/4 16/16/4 
s 8
f 17/17/1 18/18/1 19/19/1 20/20/1 
f 21/21/1 22/22/1 23/23/1 24/24/1 
s 16
f 25/25/5 26/26/5 18/27/5 17/28/5 
f 24/24/2 23/23/2 27/29/2 28/30/2 
s 32
f 29/31/3 30/32/3 26/33/3 25/34/3 
f 28/30/3 27/29/3 31/35/3 32/36/3 
s 64
f 20/37/6 19/38/6 30/39/6 29/40/6 
f 32/41/4 31/42/4 22/22/4 21/21/4 
s 2
f 31/42/7 27/43/7 23/44/7 22/22/7 
s off
f 24/24/8 8/45/8 16/46/8 21/21/8 
f 21/21/8 16/47/8 15/48/8 32/41/8 
f 32/36/8 15/49/8 5/50/8 28/30/8 
f 28/30/8 5/51/8 8/52/8 24/24/8 
f 20/53/9 13/54/9 7/55/9 17/56/9 
f 17/56/10 7/55/10 6/57/10 25/58/10 
f 29/59/11 25/58/11 6/57/11 14/60/11 
f 29/59/12 14/60/12 13/54/12 20/53/12 
f 33/61/1 8/8/1 7/7/1 34/62/1 
f 34/62/1 7/7/1 13/13/1 35/63/1 
f 35/63/1 13/13/1 16/16/1 36/64/1 
f 36/64/1 16/16/1 8/8/1 33/61/1 
f 37/65/3 6/6/3 5/5/3 38/66/3 
f 38/66/3 5/5/3 15/67/3 39/68/3 
f 39/68/3 15/67/3 14/69/3 40/70/3 
f 40/70/3 14/69/3 6/6/3 37/65/3 
f 1/1/4 33/71/4 34/72/4 2/2/4 
f 2/2/7 34/73/7 35/74/7 3/3/7 
f 3/3/2 35/75/2 36/76/2 4/4/2 
f 4/4/8 36/77/8 33/78/8 1/1/8 
f 11/11/4 37/79/4 38/80/4 12/12/4 
f 12/12/8 38/81/8 39/82/8 9/9/8 
f 9/9/2 39/83/2 40/84/2 10/10/2 
f 10/10/7 40/85/7 37/86/7 11/11/7 
f 41/87/1 42/88/1 43/89/1 44/90/1 
f 44/91/13 43/92/13 45/93/13 46/94/13 
f 46/95/3 45/96/3 47/97/3 48/98/3 
f 48/99/14 47/100/14 42/101/14 41/102/14 
f 43/89/1 42/88/1 49/103/1 50/104/1 
f 51/105/1 19/19/1 18/18/1 52/106/1 
f 44/90/1 51/105/1 52/106/1 41/87/1 
f 43/107/15 50/108/15 53/109/15 45/110/15 
f 54/111/16 30/39/16 19/38/16 51/112/16 
f 46/94/17 54/111/17 51/112/17 44/91/17 
f 45/96/3 53/113/3 55/114/3 47/97/3 
f 56/115/3 26/33/3 30/32/3 54/116/3 
f 48/98/3 56/115/3 54/116/3 46/95/3 
f 47/117/18 55/118/18 49/119/18 42/120/18 
f 52/121/19 18/27/19 26/26/19 56/122/19 
f 41/102/20 52/121/20 56/122/20 48/99/20 
s 8
f 57/123/1 58/124/1 59/125/1 60/126/1 
s 16
f 61/127/4 62/128/4 63/129/4 64/130/4 
s 32
f 65/131/3 66/132/3 67/133/3 68/134/3 
s 64
f 69/135/2 70/136/2 71/137/2 72/138/2 
s 8
f 73/139/1 74/140/1 75/141/1 76/142/1 
f 77/143/1 78/144/1 79/145/1 80/146/1 
s 16
f 74/147/21 81/148/21 82/149/21 75/150/21 
f 83/151/4 77/143/4 80/146/4 84/152/4 
s 32
f 81/153/3 85/154/3 86/155/3 82/156/3 
f 87/157/3 83/151/3 84/152/3 88/158/3 
s 64
f 85/159/22 73/160/22 76/161/22 86/162/22 
f 78/144/2 87/163/2 88/164/2 79/145/2 
s 2
f 77/165/7 83/166/7 87/163/7 78/144/7 
s off
f 72/167/8 64/168/8 80/146/8 79/145/8 
f 69/169/8 72/170/8 79/145/8 88/164/8 
f 63/171/8 69/172/8 88/158/8 84/152/8 
f 64/173/8 63/174/8 84/152/8 80/146/8 
f 61/175/23 71/176/23 76/177/23 75/178/23 
f 62/179/24 61/175/24 75/178/24 82/180/24 
f 86/181/25 70/182/25 62/179/25 82/180/25 
f 71/176/26 70/182/26 86/181/26 76/177/26 
f 61/127/1 64/130/1 89/183/1 90/184/1 
f 71/137/1 61/127/1 90/184/1 91/185/1 
f 72/138/1 71/137/1 91/185/1 92/186/1 
f 64/130/1 72/138/1 92/186/1 89/183/1 
f 63/129/3 62/128/3 93/187/3 94/188/3 
f 69/189/3 63/129/3 94/188/3 95/190/3 
f 70/191/3 69/189/3 95/190/3 96/192/3 
f 62/128/3 70/191/3 96/192/3 93/187/3 
f 90/193/2 89/194/2 59/125/2 58/124/2 
f 91/195/7 90/196/7 58/124/7 57/123/7 
f 92/197/4 91/198/4 57/123/4 60/126/4 
f 89/199/8 92/200/8 60/126/8 59/125/8 
f 94/201/2 93/202/2 65/131/2 68/134/2 
f 95/203/8 94/204/8 68/134/8 67/133/8 
f 96/205/4 95/206/4 67/133/4 66/132/4 
f 93/207/7 96/208/7 66/132/7 65/131/7 
f 97/209/1 98/210/1 99/211/1 100/212/1 
f 101/213/27 97/214/27 100/215/27 102/216/27 
f 103/217/3 101/218/3 102/219/3 104/220/3 
f 98/221/28 103/222/28 104/223/28 99/224/28 
f 97/209/1 50/225/1 49/226/1 98/210/1 
f 74/140/1 73/139/1 105/227/1 106/228/1 
f 106/228/1 105/227/1 100/212/1 99/211/1 
f 53/229/29 50/230/29 97/231/29 101/232/29 
f 73/160/30 85/159/30 107/233/30 105/234/30 
f 105/234/31 107/233/31 102/216/31 100/215/31 
f 55/235/3 53/236/3 101/218/3 103/217/3 
f 85/154/3 81/153/3 108/237/3 107/238/3 
f 107/238/3 108/237/3 104/220/3 102/219/3 
f 49/239/32 55/240/32 103/241/32 98/242/32 
f 81/148/33 74/147/33 106/243/33 108/244/33 
f 108/244/34 106/243/34 99/224/34 104/223/34 
# 106 polygons

