# 3ds Max Wavefront OBJ Exporter v0.97b - (c)2007 guruware
# File Created: 24.05.2016 23:06:18

mtllib col_4.mtl

#
# object Object007
#

v  -1.1661 1.0759 0.7167
v  -1.1661 -0.0494 0.7167
v  0.5747 -0.0494 0.7167
v  0.5747 1.0759 0.7167
v  0.5747 -0.0494 -1.0241
v  0.5747 1.0759 -1.0241
v  -1.1661 -0.0494 -1.0241
v  -1.1661 1.0759 -1.0241
v  0.1909 1.0759 0.3329
v  -0.7823 1.0759 0.3329
v  -0.7823 1.0759 -0.6403
v  0.1909 1.0759 -0.6403
v  -0.0819 1.3487 0.3329
v  0.1909 4.3455 0.3329
v  -0.0819 4.3669 0.3329
v  -0.5095 1.3487 0.3329
v  -0.0819 1.3487 -0.6403
v  -0.5095 1.3487 -0.6403
v  -0.7823 4.4353 -0.6403
v  -0.5095 4.4139 -0.6403
v  -0.0819 1.3487 0.0561
v  -0.0819 4.4208 0.0561
v  -0.5095 1.3487 0.0561
v  -0.0819 1.3487 -0.3635
v  -0.5095 1.3487 -0.3635
v  -0.5095 4.3600 -0.3635
v  -0.5095 4.2956 0.0561
v  0.1909 4.4951 -0.6403
v  -0.0819 4.4852 -0.3635
v  -0.7823 4.2857 0.3329
v  -0.5095 4.2619 0.3329
v  -0.0819 4.5189 -0.6403
# 32 vertices

vn 0.0000 0.0000 1.0000
vn 1.0000 0.0000 -0.0000
vn 0.0000 0.0000 -1.0000
vn -1.0000 0.0000 -0.0000
vn 0.0000 -1.0000 -0.0000
vn 0.0000 1.0000 -0.0000
vn 0.1046 0.9837 0.1459
vn 0.0768 0.9787 0.1906
vn -0.2780 0.9495 0.1457
vn 0.1154 0.9814 0.1533
vn 0.0859 0.9847 0.1514
# 11 vertex normals

vt 0.2680 0.6375 0.0000
vt 0.3021 0.6376 0.0000
vt 0.3019 0.6905 0.0000
vt 0.2678 0.6905 0.0000
vt 0.3018 0.7434 0.0000
vt 0.2676 0.7433 0.0000
vt 0.3018 0.7963 0.0000
vt 0.2675 0.7962 0.0000
vt 0.2681 0.5846 0.0000
vt 0.3022 0.5847 0.0000
vt 0.3551 0.5848 0.0000
vt 0.3551 0.6376 0.0000
vt 0.2562 0.6787 0.0000
vt 0.2563 0.6492 0.0000
vt 0.2565 0.6258 0.0000
vt 0.2565 0.5963 0.0000
vt 0.2558 0.7846 0.0000
vt 0.2559 0.7550 0.0000
vt 0.2560 0.7317 0.0000
vt 0.2560 0.7021 0.0000
vt 0.8166 0.4546 0.0000
vt 0.8249 0.4629 0.0000
vt 0.7255 0.4629 0.0000
vt 0.7249 0.4546 0.0000
vt 0.8166 0.4415 0.0000
vt 0.8249 0.4333 0.0000
vt 0.8166 0.5007 0.0000
vt 0.8249 0.4924 0.0000
vt 0.8249 0.5220 0.0000
vt 0.8166 0.5137 0.0000
vt 0.7229 0.5220 0.0000
vt 0.7235 0.5137 0.0000
vt 0.9896 0.5933 0.0000
vt 0.9980 0.5935 0.0000
vt 0.9958 0.6851 0.0000
vt 0.9873 0.6866 0.0000
vt 0.9766 0.5930 0.0000
vt 0.9768 0.5846 0.0000
vt 0.9898 0.5849 0.0000
vt 0.3804 0.8990 0.0000
vt 0.3804 0.8907 0.0000
vt 0.3935 0.8907 0.0000
vt 0.3935 0.8990 0.0000
vt 0.4019 0.8990 0.0000
vt 0.4019 0.9921 0.0000
vt 0.3935 0.9905 0.0000
vt 0.9745 0.6824 0.0000
vt 0.7210 0.4924 0.0000
vt 0.3804 0.9943 0.0000
vt 0.7274 0.4333 0.0000
vt 0.7229 0.4037 0.0000
vt 0.8249 0.4037 0.0000
vt 0.7281 0.4415 0.0000
vt 0.7203 0.5007 0.0000
vt 0.9661 0.6813 0.0000
vt 0.9682 0.5928 0.0000
vt 0.3721 0.9953 0.0000
vt 0.3721 0.8990 0.0000
vt 0.0105 0.7442 0.0000
vt 0.0020 0.7529 0.0000
vt 0.0020 0.7231 0.0000
vt 0.0104 0.7230 0.0000
vt 0.0105 0.7314 0.0000
vt 0.0102 0.7528 0.0000
vt 0.0239 0.7320 0.0000
vt 0.0239 0.7449 0.0000
vt 0.0324 0.7234 0.0000
vt 0.0240 0.7533 0.0000
vt 0.0242 0.7234 0.0000
vt 0.0324 0.7532 0.0000
# 70 texture coords

g Object007
usemtl Material__2
s 8
f 1/1/1 2/2/1 3/3/1 4/4/1 
s 16
f 4/4/2 3/3/2 5/5/2 6/6/2 
s 32
f 6/6/3 5/5/3 7/7/3 8/8/3 
s 64
f 8/9/4 7/10/4 2/2/4 1/1/4 
s 2
f 7/10/5 5/11/5 3/12/5 2/2/5 
s off
f 4/4/6 9/13/6 10/14/6 1/1/6 
f 1/1/6 10/15/6 11/16/6 8/9/6 
f 8/8/6 11/17/6 12/18/6 6/6/6 
f 6/6/6 12/19/6 9/20/6 4/4/6 
f 13/21/1 9/22/1 14/23/1 15/24/1 
f 16/25/1 10/26/1 9/22/1 13/21/1 
f 17/27/3 12/28/3 11/29/3 18/30/3 
f 18/30/3 11/29/3 19/31/3 20/32/3 
f 21/33/4 13/34/4 15/35/4 22/36/4 
f 23/37/6 16/38/6 13/39/6 21/33/6 
f 24/40/6 17/41/6 18/42/6 25/43/6 
f 18/44/2 20/45/2 26/46/2 25/43/2 
s 8
f 21/33/1 22/36/1 27/47/1 23/37/1 
s 16
f 14/23/2 9/22/2 12/28/2 28/48/2 
s 32
f 26/46/3 29/49/3 24/40/3 25/43/3 
s 64
f 30/50/4 19/51/4 11/52/4 10/26/4 
s off
f 16/25/1 31/53/1 30/50/1 10/26/1 
f 17/27/3 32/54/3 28/48/3 12/28/3 
f 31/55/2 16/56/2 23/37/2 27/47/2 
f 29/49/4 32/57/4 17/58/4 24/40/4 
f 22/59/7 14/60/7 28/61/7 32/62/7 
f 32/62/2 29/63/2 22/59/2 
f 14/60/8 22/59/8 15/64/8 
f 22/59/9 29/63/9 26/65/9 27/66/9 
f 19/67/10 31/68/10 26/65/10 20/69/10 
f 19/67/11 30/70/11 31/68/11 
f 26/65/2 31/68/2 27/66/2 
# 28 polygons - 4 triangles

