# 3ds Max Wavefront OBJ Exporter v0.97b - (c)2007 guruware
# File Created: 24.05.2016 23:12:15

mtllib mur_1.mtl

#
# object Object011
#

v  -2.4995 -0.2554 0.4299
v  -2.4995 -0.2554 -0.4299
v  2.4996 -0.2554 -0.4299
v  2.4996 -0.2554 0.4299
v  2.4996 4.7095 -0.4299
v  2.4996 4.7095 0.4299
v  -2.4995 4.7095 -0.4299
v  -2.4995 4.7095 0.4299
# 8 vertices

vn 0.0000 -1.0000 -0.0000
vn 1.0000 0.0000 -0.0000
vn 0.0000 1.0000 -0.0000
vn -1.0000 0.0000 -0.0000
vn 0.0000 0.0000 -1.0000
vn 0.0000 0.0000 1.0000
# 6 vertex normals

vt 0.4327 0.2054 0.0000
vt 0.4327 0.1792 0.0000
vt 0.5848 0.1792 0.0000
vt 0.5848 0.2054 0.0000
vt 0.6110 0.1792 0.0000
vt 0.5848 0.0281 0.0000
vt 0.6110 0.0281 0.0000
vt 0.5848 0.0020 0.0000
vt 0.4327 0.0281 0.0000
vt 0.4327 0.0020 0.0000
vt 0.4079 0.0266 0.0000
vt 0.4079 0.1777 0.0000
vt 0.2558 0.1777 0.0000
vt 0.2558 0.0266 0.0000
# 14 texture coords

g Object011
usemtl Material__2
s 8
f 1/1/1 2/2/1 3/3/1 4/4/1 
s 16
f 4/5/2 3/3/2 5/6/2 6/7/2 
s 32
f 6/8/3 5/6/3 7/9/3 8/10/3 
s 64
f 8/11/4 7/9/4 2/2/4 1/12/4 
s 2
f 7/9/5 5/6/5 3/3/5 2/2/5 
s off
f 4/13/6 6/14/6 8/11/6 1/12/6 
# 6 polygons

