# 3ds Max Wavefront OBJ Exporter v0.97b - (c)2007 guruware
# File Created: 24.05.2016 23:13:33

mtllib mur_2.mtl

#
# object Object012
#

v  -0.4999 -0.2554 -0.4299
v  0.4999 -0.2554 -0.4299
v  0.4999 -0.2554 0.4299
v  -0.4999 -0.2554 0.4299
v  2.4996 -0.2554 0.4299
v  2.4996 -0.2554 -0.4299
v  2.4996 3.8473 -0.4299
v  2.4996 3.8473 0.4299
v  0.4999 3.3987 -0.4299
v  -0.4999 3.8420 -0.4299
v  -0.4999 3.8420 0.4299
v  0.4999 3.3987 0.4299
v  -2.4995 4.7095 0.4299
v  -2.4995 4.7095 -0.4299
v  -2.4995 -0.2554 -0.4299
v  -2.4995 -0.2554 0.4299
v  1.4998 -0.2554 -0.4299
v  1.4998 -0.2554 0.4299
v  -1.4997 -0.2554 0.4299
v  -1.4997 -0.2554 -0.4299
v  -1.4997 4.7095 -0.4299
v  -1.4997 4.7095 0.4299
v  1.4998 3.8473 0.4299
v  1.4998 3.8473 -0.4299
# 24 vertices

vn 0.0000 -1.0000 -0.0000
vn 1.0000 0.0000 -0.0000
vn -0.0022 1.0000 -0.0000
vn 0.5363 0.8441 -0.0000
vn -1.0000 0.0000 -0.0000
vn 0.0000 0.0000 -1.0000
vn 0.0000 0.0000 1.0000
vn 0.3498 0.9368 -0.0000
vn 0.0000 1.0000 -0.0000
vn -0.2093 0.9779 -0.0000
# 10 vertex normals

vt 0.1128 0.4031 0.0000
vt 0.0832 0.4106 0.0000
vt 0.0772 0.3855 0.0000
vt 0.1057 0.3769 0.0000
vt 0.0020 0.4252 0.0000
vt 0.0262 0.4211 0.0000
vt 0.0456 0.5364 0.0000
vt 0.0214 0.5405 0.0000
vt 0.1044 0.5280 0.0000
vt 0.1433 0.5315 0.0000
vt 0.1424 0.5626 0.0000
vt 0.1038 0.5641 0.0000
vt 0.2343 0.5300 0.0000
vt 0.2086 0.5360 0.0000
vt 0.1740 0.3876 0.0000
vt 0.1997 0.3816 0.0000
vt 0.1081 0.6859 0.0000
vt 0.0802 0.6770 0.0000
vt 0.0543 0.4160 0.0000
vt 0.0215 0.3972 0.0000
vt 0.0494 0.3918 0.0000
vt 0.1366 0.3670 0.0000
vt 0.1683 0.3604 0.0000
vt 0.1433 0.3950 0.0000
vt 0.1806 0.5396 0.0000
vt 0.2075 0.5627 0.0000
vt 0.1799 0.5575 0.0000
vt 0.0724 0.5560 0.0000
vt 0.0458 0.5548 0.0000
vt 0.0725 0.5352 0.0000
vt 0.1653 0.7060 0.0000
vt 0.1366 0.6975 0.0000
vt 0.0531 0.6707 0.0000
vt 0.0261 0.6659 0.0000
# 34 texture coords

g Object012
usemtl Material__2
s 8
f 1/1/1 2/2/1 3/3/1 4/4/1 
s 16
f 5/5/2 6/6/2 7/7/2 8/8/2 
s 32
f 9/9/3 10/10/4 11/11/4 12/12/3 
s 64
f 13/13/5 14/14/5 15/15/5 16/16/5 
s 2
f 1/1/6 10/10/6 9/9/6 2/2/6 
s off
f 12/12/7 11/11/7 4/17/7 3/18/7 
s 8
f 17/19/1 6/6/1 5/20/1 18/21/1 
f 2/2/1 17/19/1 18/21/1 3/3/1 
f 19/22/1 16/23/1 15/15/1 20/24/1 
f 4/4/1 19/22/1 20/24/1 1/1/1 
s 32
f 21/25/8 14/14/9 13/26/9 22/27/8 
f 10/10/4 21/25/8 22/27/8 11/11/4 
f 23/28/10 8/29/9 7/7/9 24/30/10 
f 12/12/3 23/28/10 24/30/10 9/9/3 
s 2
f 24/30/6 7/7/6 6/6/6 17/19/6 
f 9/9/6 24/30/6 17/19/6 2/2/6 
f 20/24/6 15/15/6 14/14/6 21/25/6 
f 10/10/6 1/1/6 20/24/6 21/25/6 
s off
f 22/27/7 13/26/7 16/31/7 19/32/7 
f 11/11/7 22/27/7 19/32/7 4/17/7 
f 18/33/7 5/34/7 8/29/7 23/28/7 
f 12/12/7 3/18/7 18/33/7 23/28/7 
# 22 polygons

