# 3ds Max Wavefront OBJ Exporter v0.97b - (c)2007 guruware
# File Created: 24.05.2016 23:14:37

mtllib mur_3.mtl

#
# object 007
#

v  -0.4999 -0.2554 -0.4299
v  0.5000 -0.2554 -0.4299
v  0.5000 -0.2554 0.4299
v  -0.4999 -0.2554 0.4299
v  2.4996 -0.2554 0.4299
v  2.4996 -0.2554 -0.4299
v  2.4528 3.6537 -0.4299
v  2.4528 3.6537 0.4299
v  0.5456 3.5830 -0.4299
v  -0.5455 3.6577 -0.4299
v  -0.5455 3.6577 0.4299
v  0.5456 3.5830 0.4299
v  -2.4995 4.7095 0.4299
v  -2.4995 4.7095 -0.4299
v  -2.4995 -0.2554 -0.4299
v  -2.4995 -0.2554 0.4299
v  1.4998 -0.2554 -0.4299
v  1.4998 -0.2554 0.4299
v  -1.4997 -0.2554 0.4299
v  -1.4997 -0.2554 -0.4299
v  -1.4997 4.7095 -0.4299
v  -1.4997 4.7095 0.4299
v  1.5466 3.2311 0.4299
v  1.5466 3.2311 -0.4299
# 24 vertices

vn 0.0000 -1.0000 -0.0000
vn 0.9999 0.0120 -0.0000
vn 0.2018 0.9794 -0.0000
vn 0.4360 0.8999 -0.0000
vn -1.0000 0.0000 -0.0000
vn 0.0000 0.0000 -1.0000
vn 0.0000 0.0000 1.0000
vn 0.4050 0.9143 -0.0000
vn 0.0000 1.0000 -0.0000
vn -0.0491 0.9988 -0.0000
vn -0.4226 0.9063 -0.0000
# 11 vertex normals

vt 0.1116 0.0470 0.0000
vt 0.0820 0.0561 0.0000
vt 0.0742 0.0311 0.0000
vt 0.1031 0.0209 0.0000
vt 0.0020 0.0771 0.0000
vt 0.0255 0.0712 0.0000
vt 0.0519 0.1784 0.0000
vt 0.0284 0.1844 0.0000
vt 0.1104 0.1725 0.0000
vt 0.1468 0.1694 0.0000
vt 0.1457 0.2032 0.0000
vt 0.1100 0.1986 0.0000
vt 0.2389 0.1683 0.0000
vt 0.2135 0.1754 0.0000
vt 0.1723 0.0292 0.0000
vt 0.1977 0.0220 0.0000
vt 0.1062 0.3199 0.0000
vt 0.0785 0.3103 0.0000
vt 0.0534 0.0644 0.0000
vt 0.0189 0.0477 0.0000
vt 0.0464 0.0402 0.0000
vt 0.1340 0.0097 0.0000
vt 0.1656 0.0020 0.0000
vt 0.1419 0.0378 0.0000
vt 0.1860 0.1798 0.0000
vt 0.2123 0.2025 0.0000
vt 0.1852 0.1965 0.0000
vt 0.0758 0.1996 0.0000
vt 0.0520 0.1910 0.0000
vt 0.0761 0.1702 0.0000
vt 0.1624 0.3434 0.0000
vt 0.1340 0.3333 0.0000
vt 0.0513 0.3012 0.0000
vt 0.0247 0.2935 0.0000
# 34 texture coords

g 007
usemtl Material__2
s 8
f 1/1/1 2/2/1 3/3/1 4/4/1 
s 16
f 5/5/2 6/6/2 7/7/2 8/8/2 
s 32
f 9/9/3 10/10/4 11/11/4 12/12/3 
s 64
f 13/13/5 14/14/5 15/15/5 16/16/5 
s 2
f 1/1/6 10/10/6 9/9/6 2/2/6 
s off
f 12/12/7 11/11/7 4/17/7 3/18/7 
s 8
f 17/19/1 6/6/1 5/20/1 18/21/1 
f 2/2/1 17/19/1 18/21/1 3/3/1 
f 19/22/1 16/23/1 15/15/1 20/24/1 
f 4/4/1 19/22/1 20/24/1 1/1/1 
s 32
f 21/25/8 14/14/9 13/26/9 22/27/8 
f 10/10/4 21/25/8 22/27/8 11/11/4 
f 23/28/10 8/29/11 7/7/11 24/30/10 
f 12/12/3 23/28/10 24/30/10 9/9/3 
s 2
f 24/30/6 7/7/6 6/6/6 17/19/6 
f 2/2/6 9/9/6 24/30/6 17/19/6 
f 20/24/6 15/15/6 14/14/6 21/25/6 
f 10/10/6 1/1/6 20/24/6 21/25/6 
s off
f 22/27/7 13/26/7 16/31/7 19/32/7 
f 11/11/7 22/27/7 19/32/7 4/17/7 
f 23/28/7 18/33/7 5/34/7 8/29/7 
f 3/18/7 18/33/7 23/28/7 12/12/7 
# 22 polygons

