# 3ds Max Wavefront OBJ Exporter v0.97b - (c)2007 guruware
# File Created: 24.05.2016 23:19:23

mtllib plaza_1.mtl

#
# object Object001
#

v  12.0000 0.2295 -0.0000
v  12.0000 -0.2063 -0.0000
v  10.3923 -0.2063 -6.0000
v  10.3923 0.2295 -6.0000
v  6.0000 -0.2063 -10.3923
v  6.0000 0.2295 -10.3923
v  0.0000 -0.2063 -12.0000
v  0.0000 0.2295 -12.0000
v  -6.0000 -0.2063 -10.3923
v  -6.0000 0.2295 -10.3923
v  -10.3923 -0.2063 -6.0000
v  -10.3923 0.2295 -6.0000
v  -12.0000 -0.2063 -0.0000
v  -12.0000 0.2295 -0.0000
v  -10.3923 -0.2063 6.0000
v  -10.3923 0.2295 6.0000
v  -6.0000 -0.2063 10.3923
v  -6.0000 0.2295 10.3923
v  0.0000 -0.2063 12.0000
v  0.0000 0.2295 12.0000
v  6.0000 -0.2063 10.3923
v  6.0000 0.2295 10.3923
v  10.3923 -0.2063 6.0000
v  10.3923 0.2295 6.0000
v  0.0000 0.2295 -0.0000
# 25 vertices

vn 1.0000 0.0000 -0.0000
vn 1.0000 0.0000 0.0000
vn 0.8660 0.0000 -0.5000
vn 0.5000 0.0000 -0.8660
vn 0.0000 0.0000 -1.0000
vn -0.0000 0.0000 -1.0000
vn -0.5000 0.0000 -0.8660
vn -0.8660 0.0000 -0.5000
vn -1.0000 0.0000 -0.0000
vn -1.0000 0.0000 0.0000
vn -0.8660 0.0000 0.5000
vn -0.5000 0.0000 0.8660
vn -0.0000 0.0000 1.0000
vn 0.0000 0.0000 1.0000
vn 0.5000 0.0000 0.8660
vn 0.8660 0.0000 0.5000
vn 0.0000 1.0000 -0.0000
# 17 vertex normals

vt 0.3137 0.6788 0.0000
vt 0.3137 0.6917 0.0000
vt 0.1337 0.6917 0.0000
vt 0.1337 0.6788 0.0000
vt 0.0020 0.6917 0.0000
vt 0.0020 0.6788 0.0000
vt 0.3370 0.7073 0.0000
vt 0.3370 0.7193 0.0000
vt 0.1695 0.7193 0.0000
vt 0.1695 0.7073 0.0000
vt 0.0020 0.7193 0.0000
vt 0.0020 0.7073 0.0000
vt 0.6253 0.6503 0.0000
vt 0.6253 0.6632 0.0000
vt 0.4937 0.6632 0.0000
vt 0.4937 0.6503 0.0000
vt 0.3137 0.6632 0.0000
vt 0.3137 0.6503 0.0000
vt 0.1337 0.6632 0.0000
vt 0.1337 0.6503 0.0000
vt 0.0020 0.6632 0.0000
vt 0.0020 0.6503 0.0000
vt 0.9849 0.5482 0.0000
vt 0.9849 0.5602 0.0000
vt 0.8174 0.5602 0.0000
vt 0.8174 0.5482 0.0000
vt 0.6499 0.5602 0.0000
vt 0.6499 0.5482 0.0000
vt 0.6253 0.6788 0.0000
vt 0.6253 0.6917 0.0000
vt 0.4936 0.6917 0.0000
vt 0.4936 0.6788 0.0000
vt 0.6332 0.4052 0.0000
vt 0.5477 0.5510 0.0000
vt 0.3182 0.3185 0.0000
vt 0.4004 0.6347 0.0000
vt 0.2312 0.6336 0.0000
vt 0.0853 0.5477 0.0000
vt 0.0020 0.4008 0.0000
vt 0.0031 0.2315 0.0000
vt 0.0886 0.0857 0.0000
vt 0.2359 0.0020 0.0000
vt 0.4052 0.0035 0.0000
vt 0.5510 0.0890 0.0000
vt 0.6343 0.2359 0.0000
# 45 texture coords

g Object001
usemtl Material__2
s 8
f 1/1/1 2/2/2 3/3/3 4/4/3 
f 4/4/3 3/3/3 5/5/4 6/6/4 
f 6/7/4 5/8/4 7/9/5 8/10/6 
f 8/10/6 7/9/5 9/11/7 10/12/7 
f 10/13/7 9/14/7 11/15/8 12/16/8 
f 12/16/8 11/15/8 13/17/9 14/18/10 
f 14/18/10 13/17/9 15/19/11 16/20/11 
f 16/20/11 15/19/11 17/21/12 18/22/12 
f 18/23/12 17/24/12 19/25/13 20/26/14 
f 20/26/14 19/25/13 21/27/15 22/28/15 
f 22/29/15 21/30/15 23/31/16 24/32/16 
f 24/32/16 23/31/16 2/2/2 1/1/1 
s 1
f 1/33/17 4/34/17 25/35/17 
f 4/34/17 6/36/17 25/35/17 
f 6/36/17 8/37/17 25/35/17 
f 8/37/17 10/38/17 25/35/17 
f 10/38/17 12/39/17 25/35/17 
f 12/39/17 14/40/17 25/35/17 
f 14/40/17 16/41/17 25/35/17 
f 16/41/17 18/42/17 25/35/17 
f 18/42/17 20/43/17 25/35/17 
f 20/43/17 22/44/17 25/35/17 
f 22/44/17 24/45/17 25/35/17 
f 24/45/17 1/33/17 25/35/17 
# 12 polygons - 12 triangles

