# 3ds Max Wavefront OBJ Exporter v0.97b - (c)2007 guruware
# File Created: 24.05.2016 23:09:44

mtllib sue_2.mtl

#
# object Object009
#

v  2.5000 0.0000 2.5000
v  -2.5000 0.0000 2.5000
v  -2.5000 0.0000 -2.5000
v  2.5000 0.0000 -2.5000
v  -1.4208 0.1054 0.0000
v  0.0000 0.1054 1.4208
v  1.4208 0.1054 0.0000
v  0.0000 0.1054 -1.4208
v  -2.5000 0.1994 2.5000
v  2.5000 0.1994 2.5000
v  2.5000 0.1994 -2.5000
v  -2.5000 0.1994 -2.5000
v  0.0000 0.1994 1.5091
v  1.5091 0.1994 0.0000
v  0.0000 0.1994 -1.5091
v  -1.5091 0.1994 0.0000
# 16 vertices

vn 0.0000 -1.0000 -0.0000
vn 0.0000 1.0000 -0.0000
vn 0.0000 0.0000 1.0000
vn 1.0000 0.0000 -0.0000
vn 0.0000 0.0000 -1.0000
vn -1.0000 0.0000 -0.0000
vn -0.5890 0.5533 -0.5890
vn -0.5890 0.5533 0.5890
vn 0.5890 0.5533 0.5890
vn 0.5890 0.5533 -0.5890
# 10 vertex normals

vt 0.5670 0.3807 0.0000
vt 0.4146 0.3807 0.0000
vt 0.4146 0.2284 0.0000
vt 0.5670 0.2284 0.0000
vt 0.3745 0.3046 0.0000
vt 0.3322 0.3469 0.0000
vt 0.2898 0.3046 0.0000
vt 0.3322 0.2621 0.0000
vt 0.4146 0.3867 0.0000
vt 0.5670 0.3867 0.0000
vt 0.5730 0.3807 0.0000
vt 0.5730 0.2284 0.0000
vt 0.5670 0.2223 0.0000
vt 0.4146 0.2223 0.0000
vt 0.4086 0.2284 0.0000
vt 0.4086 0.3809 0.0000
vt 0.3322 0.3507 0.0000
vt 0.2558 0.3810 0.0000
vt 0.2861 0.3046 0.0000
vt 0.2558 0.2282 0.0000
vt 0.3322 0.2585 0.0000
vt 0.3783 0.3046 0.0000
# 22 texture coords

g Object009
usemtl Material__2
s 2
f 1/1/1 2/2/1 3/3/1 4/4/1 
s 4
f 5/5/2 6/6/2 7/7/2 8/8/2 
s 8
f 9/9/3 2/2/3 1/1/3 10/10/3 
s 16
f 10/11/4 1/1/4 4/4/4 11/12/4 
s 32
f 11/13/5 4/4/5 3/3/5 12/14/5 
s 64
f 12/15/6 3/3/6 2/2/6 9/16/6 
s off
f 13/17/2 9/16/2 10/18/2 14/19/2 
f 14/19/2 10/18/2 11/20/2 15/21/2 
f 15/21/2 11/20/2 12/15/2 16/22/2 
f 16/22/2 12/15/2 9/16/2 13/17/2 
f 6/6/7 13/17/7 14/19/7 7/7/7 
f 7/7/8 14/19/8 15/21/8 8/8/8 
f 8/8/9 15/21/9 16/22/9 5/5/9 
f 5/5/10 16/22/10 13/17/10 6/6/10 
# 14 polygons

