# 3ds Max Wavefront OBJ Exporter v0.97b - (c)2007 guruware
# File Created: 24.05.2016 23:08:25

mtllib sue_1.mtl

#
# object Object008
#

v  2.5000 0.0000 2.5000
v  -2.5000 0.0000 2.5000
v  -2.5000 0.0000 -2.5000
v  2.5000 0.0000 -2.5000
v  -2.5000 0.1994 -2.5000
v  -2.5000 0.1994 2.5000
v  2.5000 0.1994 2.5000
v  2.5000 0.1994 -2.5000
# 8 vertices

vn 0.0000 -1.0000 -0.0000
vn 0.0000 1.0000 -0.0000
vn 0.0000 0.0000 1.0000
vn 1.0000 0.0000 -0.0000
vn 0.0000 0.0000 -1.0000
vn -1.0000 0.0000 -0.0000
# 6 vertex normals

vt 0.5657 0.5616 0.0000
vt 0.4137 0.5616 0.0000
vt 0.4137 0.4098 0.0000
vt 0.5657 0.4098 0.0000
vt 0.4077 0.4098 0.0000
vt 0.4077 0.5616 0.0000
vt 0.2558 0.5616 0.0000
vt 0.2558 0.4096 0.0000
vt 0.4137 0.5676 0.0000
vt 0.5657 0.5676 0.0000
vt 0.5717 0.5616 0.0000
vt 0.5717 0.4098 0.0000
vt 0.5657 0.4037 0.0000
vt 0.4137 0.4037 0.0000
# 14 texture coords

g Object008
usemtl Material__2
s 2
f 1/1/1 2/2/1 3/3/1 4/4/1 
s 4
f 5/5/2 6/6/2 7/7/2 8/8/2 
s 8
f 6/9/3 2/2/3 1/1/3 7/10/3 
s 16
f 7/11/4 1/1/4 4/4/4 8/12/4 
s 32
f 8/13/5 4/4/5 3/3/5 5/14/5 
s 64
f 5/5/6 3/3/6 2/2/6 6/6/6 
# 6 polygons

