# 3ds Max Wavefront OBJ Exporter v0.97b - (c)2007 guruware
# File Created: 27.04.2016 22:00:35

mtllib heart.mtl

#
# object Group13195
#

v  -0.3268 -0.3317 -0.5215
v  -0.0000 -0.1226 -0.5348
v  -0.0000 -0.6352 -0.5451
v  -0.7806 0.5915 0.1700
v  -0.5997 0.7551 -0.0468
v  -0.7968 0.6316 -0.1143
v  -0.0000 -0.8567 0.0938
v  -0.2921 -0.4618 0.1757
v  -0.3527 -0.7472 -0.0489
v  0.3266 -0.3316 -0.5216
v  0.7806 0.5916 0.1699
v  0.7968 0.6316 -0.1143
v  0.5997 0.7551 -0.0468
v  0.3527 -0.7472 -0.0489
v  0.2921 -0.4618 0.1757
v  -0.0000 -1.1093 -0.3679
v  -0.0000 -1.1161 -0.1668
v  0.9799 0.4256 -0.0623
v  0.8813 0.3555 0.2644
v  0.4724 0.6608 0.3537
v  0.1503 0.7408 -0.1487
v  0.1331 0.5060 0.4556
v  -0.9799 0.4256 -0.0623
v  -0.8813 0.3555 0.2644
v  -0.4724 0.6608 0.3538
v  -0.1338 0.5068 0.4549
v  -0.1503 0.7408 -0.1487
v  0.7228 0.4523 0.3552
v  0.3403 0.1960 0.5186
v  0.6303 0.0057 0.4146
v  -0.0000 -0.1029 0.3948
v  -0.7226 0.4524 0.3553
v  -0.6303 0.0057 0.4145
v  -0.3413 0.1974 0.5180
v  0.6396 -0.4205 -0.3669
v  -0.0000 -0.9012 -0.4933
v  0.7844 0.5015 -0.3257
v  0.4319 0.2510 -0.5958
v  0.5047 0.7382 -0.3640
v  -0.6392 -0.4208 -0.3671
v  -0.7844 0.5015 -0.3258
v  -0.5047 0.7382 -0.3640
v  -0.4319 0.2511 -0.5957
v  1.0457 0.0934 -0.0468
v  0.9028 0.2817 -0.2950
v  0.9399 -0.0476 -0.2646
v  0.4547 -0.0119 -0.5413
v  -1.0457 0.0934 -0.0468
v  -0.9028 0.2817 -0.2950
v  -0.4546 -0.0119 -0.5413
v  -0.9399 -0.0477 -0.2646
v  0.1752 0.6618 -0.3493
v  0.0000 0.4177 0.2670
v  -0.1752 0.6618 -0.3493
v  0.1927 -0.8829 -0.3955
v  0.8101 -0.3748 -0.1577
v  -0.1927 -0.8829 -0.3953
v  -0.8101 -0.3748 -0.1577
v  0.3476 0.8210 -0.2062
v  -0.3476 0.8210 -0.2062
v  -0.3879 -0.1670 0.3354
v  0.3877 -0.1672 0.3355
v  -0.0000 0.2421 0.4343
v  0.9024 -0.1440 0.1342
v  0.9276 0.1478 0.2307
v  -0.9024 -0.1440 0.1342
v  -0.9276 0.1478 0.2307
v  -0.0000 0.1354 -0.5396
v  -0.0000 0.5197 -0.4038
v  0.6929 -0.4425 0.0396
v  -0.6928 -0.4425 0.0396
v  -0.0000 0.5421 -0.0601
# 72 vertices

vn -0.0536 0.0201 -0.9984
vn -0.5608 0.8149 0.1466
vn -0.4533 -0.4898 0.7447
vn 0.0533 0.0201 -0.9984
vn 0.5608 0.8149 0.1466
vn 0.4533 -0.4898 0.7447
vn -0.7263 -0.6870 -0.0234
vn 0.7263 -0.6870 -0.0234
vn 0.8049 0.4819 0.3463
vn -0.3050 0.8906 0.3374
vn -0.8049 0.4818 0.3463
vn 0.3046 0.8908 0.3371
vn 0.3652 0.0480 0.9297
vn 0.2343 -0.3606 0.9028
vn -0.3647 0.0479 0.9299
vn -0.2342 -0.3606 0.9028
vn 0.3689 -0.2559 -0.8935
vn 0.4058 0.3425 -0.8474
vn -0.3688 -0.2558 -0.8936
vn -0.4057 0.3424 -0.8474
vn 0.9258 0.1984 0.3219
vn 0.4939 -0.0246 -0.8692
vn -0.9258 0.1984 0.3219
vn -0.4938 -0.0246 -0.8693
vn -0.1421 0.4425 -0.8854
vn -0.9611 0.1947 -0.1961
vn 0.1421 0.4424 -0.8855
vn 0.9611 0.1947 -0.1961
vn 0.8832 0.0566 -0.4656
vn 0.6330 -0.7741 0.0107
vn -0.8832 0.0566 -0.4656
vn -0.6330 -0.7741 0.0108
vn -0.4475 -0.3829 -0.8082
vn 0.4470 -0.3820 -0.8088
vn -0.2750 0.9064 0.3206
vn -0.4407 0.8152 -0.3759
vn 0.2750 0.9064 0.3206
vn 0.4407 0.8152 -0.3759
vn -0.0643 -0.4404 0.8955
vn 0.0635 -0.4426 0.8945
vn -0.2531 -0.1099 0.9612
vn -0.7398 0.6340 0.2253
vn 0.2504 -0.1099 0.9619
vn 0.7392 0.6344 0.2258
vn 0.9031 0.1604 -0.3983
vn 0.6146 0.6552 -0.4392
vn -0.9031 0.1604 -0.3984
vn -0.6146 0.6552 -0.4392
vn 0.4813 -0.1507 -0.8635
vn 0.8959 -0.4108 -0.1691
vn -0.4812 -0.1507 -0.8636
vn -0.8959 -0.4108 -0.1691
vn 0.8829 -0.2143 0.4179
vn 0.8812 -0.4644 0.0885
vn -0.8829 -0.2143 0.4179
vn -0.8812 -0.4644 0.0885
vn 0.2072 0.3260 -0.9224
vn -0.2072 0.3260 -0.9224
vn 0.5019 0.0110 0.8648
vn 0.6011 -0.2971 0.7419
vn -0.5018 0.0110 0.8649
vn -0.6010 -0.2971 0.7420
vn 0.3848 -0.2095 -0.8989
vn 0.0008 -0.0619 -0.9981
vn -0.3847 -0.2094 -0.8990
vn -0.0010 -0.0621 -0.9981
vn 0.0521 -0.4892 0.8706
vn 0.2957 -0.5279 0.7962
vn -0.0526 -0.4889 0.8708
vn -0.2958 -0.5276 0.7963
vn -0.1025 0.4639 -0.8799
vn -0.6196 0.7833 -0.0510
vn 0.1025 0.4639 -0.8799
vn 0.6196 0.7833 -0.0510
vn -0.4510 -0.6325 0.6297
vn 0.4510 -0.6325 0.6297
vn 0.4745 0.8600 -0.1878
vn -0.2051 0.7678 -0.6070
vn -0.4745 0.8600 -0.1878
vn 0.2051 0.7678 -0.6070
vn 0.7568 -0.6076 0.2411
vn 0.4429 -0.5381 0.7171
vn -0.7567 -0.6076 0.2410
vn -0.4428 -0.5381 0.7172
vn 0.8278 0.3869 0.4063
vn -0.8292 0.3855 0.4048
vn 0.6686 -0.6209 -0.4093
vn 0.7362 -0.4556 -0.5004
vn -0.6685 -0.6209 -0.4092
vn -0.7360 -0.4557 -0.5006
vn 0.3882 0.8619 0.3262
vn 0.1835 0.2269 0.9565
vn -0.3882 0.8619 0.3262
vn -0.1828 0.2262 0.9568
vn 0.6401 0.5048 0.5792
vn 0.5029 0.6082 0.6141
vn -0.6400 0.5047 0.5794
vn -0.5029 0.6082 0.6141
vn 0.5399 -0.1258 -0.8323
vn -0.0712 -0.2083 -0.9755
vn -0.5397 -0.1256 -0.8324
vn 0.0710 -0.2080 -0.9755
vn 0.2917 -0.5525 0.7808
vn 0.6441 -0.7549 0.1236
vn -0.2917 -0.5525 0.7808
vn -0.6441 -0.7549 0.1236
vn 0.0903 0.9626 0.2553
vn 0.3381 0.9290 -0.1506
vn -0.0903 0.9626 0.2553
vn -0.3381 0.9290 -0.1506
vn 0.0097 -0.0185 -0.9998
vn -0.0098 -0.0185 -0.9998
vn 0.7358 0.5566 -0.3857
vn 0.7230 0.6772 0.1365
vn -0.7358 0.5566 -0.3857
vn -0.7230 0.6772 0.1365
vn 0.1871 0.3144 0.9307
vn -0.2352 0.0403 0.9711
vn -0.1866 0.3148 0.9306
vn 0.2329 0.0419 0.9716
vn 0.7527 -0.6519 -0.0924
vn 0.4356 -0.4647 -0.7709
vn -0.7527 -0.6519 -0.0923
vn -0.4362 -0.4646 -0.7707
vn 0.5233 0.1649 -0.8360
vn 0.7957 0.3606 -0.4866
vn -0.5232 0.1648 -0.8361
vn -0.7957 0.3606 -0.4866
vn 0.1883 -0.6146 0.7660
vn 0.0273 -0.4472 0.8940
vn -0.1879 -0.6146 0.7661
vn -0.0252 -0.4452 0.8951
vn 0.0525 0.9335 0.3548
vn -0.0525 0.9335 0.3548
vn -0.2412 -0.1855 -0.9526
vn 0.2411 -0.1855 -0.9526
vn 0.9202 0.1459 0.3631
vn 0.5326 -0.0190 0.8462
vn -0.9202 0.1459 0.3631
vn -0.5325 -0.0190 0.8462
# 140 vertex normals

vt 0.2525 0.5700 0.0000
vt 0.1725 0.6219 0.0000
vt 0.3275 0.6602 0.0000
vt 0.2832 0.1943 0.0000
vt 0.3104 0.1182 0.0000
vt 0.2424 0.1474 0.0000
vt 0.5000 0.5239 0.0000
vt 0.4361 0.4367 0.0000
vt 0.4127 0.5216 0.0000
vt 0.7475 0.5701 0.0000
vt 0.6725 0.6602 0.0000
vt 0.8274 0.6220 0.0000
vt 0.7168 0.1943 0.0000
vt 0.7576 0.1474 0.0000
vt 0.6896 0.1182 0.0000
vt 0.5873 0.5217 0.0000
vt 0.5639 0.4367 0.0000
vt 0.5000 0.6538 0.0000
vt 0.5000 0.6044 0.0000
vt 0.8035 0.2609 0.0000
vt 0.7148 0.2552 0.0000
vt 0.6319 0.1831 0.0000
vt 0.5757 0.0664 0.0000
vt 0.5449 0.2015 0.0000
vt 0.1965 0.2609 0.0000
vt 0.2852 0.2552 0.0000
vt 0.3682 0.1832 0.0000
vt 0.4549 0.2013 0.0000
vt 0.4243 0.0664 0.0000
vt 0.6775 0.2318 0.0000
vt 0.5739 0.2710 0.0000
vt 0.6307 0.3167 0.0000
vt 0.5000 0.3363 0.0000
vt 0.3225 0.2318 0.0000
vt 0.3693 0.3167 0.0000
vt 0.4258 0.2707 0.0000
vt 0.7099 0.5034 0.0000
vt 0.5908 0.6689 0.0000
vt 0.8762 0.3458 0.0000
vt 0.8714 0.4788 0.0000
vt 0.9618 0.3819 0.0000
vt 0.2902 0.5035 0.0000
vt 0.4092 0.6689 0.0000
vt 0.1238 0.3458 0.0000
vt 0.0382 0.3819 0.0000
vt 0.1286 0.4788 0.0000
vt 0.7604 0.3340 0.0000
vt 0.8232 0.3496 0.0000
vt 0.7654 0.3968 0.0000
vt 0.8153 0.5082 0.0000
vt 0.2396 0.3340 0.0000
vt 0.1767 0.3496 0.0000
vt 0.1847 0.5082 0.0000
vt 0.2346 0.3968 0.0000
vt 0.9959 0.4657 0.0000
vt 0.5572 0.0169 0.0000
vt 0.5000 0.1736 0.0000
vt 0.0041 0.4657 0.0000
vt 0.4428 0.0169 0.0000
vt 0.5883 0.6179 0.0000
vt 0.7017 0.4457 0.0000
vt 0.4117 0.6179 0.0000
vt 0.2983 0.4457 0.0000
vt 0.6310 0.0609 0.0000
vt 0.3690 0.0609 0.0000
vt 0.4193 0.3598 0.0000
vt 0.5807 0.3599 0.0000
vt 0.5000 0.2479 0.0000
vt 0.8948 0.2886 0.0000
vt 0.1052 0.2886 0.0000
vt 0.6950 0.3656 0.0000
vt 0.7084 0.3018 0.0000
vt 0.3050 0.3656 0.0000
vt 0.2916 0.3018 0.0000
vt 0.1060 0.5865 0.0000
vt 0.0139 0.5267 0.0000
vt 0.8940 0.5865 0.0000
vt 0.9861 0.5267 0.0000
vt 0.6519 0.4368 0.0000
vt 0.3481 0.4368 0.0000
vt 0.5000 0.0041 0.0000
vt 0.5000 0.0902 0.0000
vt 0.6798 0.0283 0.0000
vt 0.3202 0.0283 0.0000
# 84 texture coords

g Group13195
usemtl defaultMat
s off
f 1/1/1 2/2/1 3/3/1 
f 4/4/2 5/5/2 6/6/2 
f 7/7/3 8/8/3 9/9/3 
f 10/10/4 3/11/4 2/12/4 
f 11/13/5 12/14/5 13/15/5 
f 7/7/6 14/16/6 15/17/6 
f 9/9/7 16/18/7 17/19/7 
f 14/16/8 17/19/8 16/18/8 
f 18/20/9 11/13/9 19/21/9 
f 20/22/10 21/23/10 22/24/10 
f 23/25/11 24/26/11 4/4/11 
f 25/27/12 26/28/12 27/29/12 
f 28/30/13 29/31/13 30/32/13 
f 31/33/14 7/7/14 15/17/14 
f 32/34/15 33/35/15 34/36/15 
f 31/33/16 8/8/16 7/7/16 
f 35/37/17 36/38/17 10/10/17 
f 37/39/18 38/40/18 39/41/18 
f 40/42/19 1/1/19 36/43/19 
f 41/44/20 42/45/20 43/46/20 
f 18/20/21 19/21/21 44/47/21 
f 45/48/22 46/49/22 47/50/22 
f 23/25/23 48/51/23 24/26/23 
f 49/52/24 50/53/24 51/54/24 
f 52/55/25 39/41/25 38/40/25 
f 21/23/26 52/56/26 53/57/26 
f 54/58/27 43/46/27 42/45/27 
f 27/29/28 53/57/28 54/59/28 
f 46/49/29 45/48/29 44/47/29 
f 55/60/30 56/61/30 14/16/30 
f 51/54/31 48/51/31 49/52/31 
f 57/62/32 9/9/32 58/63/32 
f 57/62/33 40/42/33 36/43/33 
f 55/60/34 36/38/34 35/37/34 
f 21/23/35 20/22/35 59/64/35 
f 52/56/36 21/23/36 59/64/36 
f 27/29/37 60/65/37 25/27/37 
f 54/59/38 60/65/38 27/29/38 
f 34/36/39 61/66/39 31/33/39 
f 29/31/40 31/33/40 62/67/40 
f 31/33/41 29/31/41 63/68/41 
f 21/23/42 53/57/42 22/24/42 
f 31/33/43 63/68/43 34/36/43 
f 27/29/44 26/28/44 53/57/44 
f 18/20/45 44/47/45 45/48/45 
f 39/41/46 12/69/46 37/39/46 
f 23/25/47 49/52/47 48/51/47 
f 42/45/48 41/44/48 6/70/48 
f 35/37/49 47/50/49 46/49/49 
f 56/61/50 46/49/50 44/47/50 
f 40/42/51 51/54/51 50/53/51 
f 58/63/52 48/51/52 51/54/52 
f 64/71/53 44/47/53 65/72/53 
f 64/71/54 56/61/54 44/47/54 
f 66/73/55 67/74/55 48/51/55 
f 66/73/56 48/51/56 58/63/56 
f 68/75/57 43/46/57 69/76/57 
f 68/77/58 69/78/58 38/40/58 
f 30/32/59 19/21/59 28/30/59 
f 30/32/60 64/71/60 65/72/60 
f 33/35/61 32/34/61 24/26/61 
f 33/35/62 67/74/62 66/73/62 
f 47/50/63 35/37/63 10/10/63 
f 2/12/64 47/50/64 10/10/64 
f 50/53/65 1/1/65 40/42/65 
f 2/2/66 1/1/66 50/53/66 
f 15/17/67 62/67/67 31/33/67 
f 62/67/68 15/17/68 70/79/68 
f 8/8/69 31/33/69 61/66/69 
f 61/66/70 71/80/70 8/8/70 
f 69/78/71 52/55/71 38/40/71 
f 69/81/72 72/82/72 52/56/72 
f 69/76/73 43/46/73 54/58/73 
f 69/81/74 54/59/74 72/82/74 
f 7/7/75 9/9/75 17/19/75 
f 7/7/76 17/19/76 14/16/76 
f 13/15/77 12/14/77 39/83/77 
f 39/83/78 52/56/78 59/64/78 
f 5/5/79 42/84/79 6/6/79 
f 42/84/80 60/65/80 54/59/80 
f 70/79/81 56/61/81 64/71/81 
f 30/32/82 70/79/82 64/71/82 
f 71/80/83 66/73/83 58/63/83 
f 33/35/84 66/73/84 71/80/84 
f 26/28/85 63/68/85 53/57/85 
f 22/24/86 53/57/86 63/68/86 
f 35/37/87 56/61/87 55/60/87 
f 56/61/88 35/37/88 46/49/88 
f 40/42/89 57/62/89 58/63/89 
f 58/63/90 51/54/90 40/42/90 
f 20/22/91 11/13/91 13/15/91 
f 20/22/92 22/24/92 28/30/92 
f 25/27/93 5/5/93 4/4/93 
f 25/27/94 32/34/94 26/28/94 
f 28/30/95 19/21/95 11/13/95 
f 20/22/96 28/30/96 11/13/96 
f 32/34/97 4/4/97 24/26/97 
f 25/27/98 4/4/98 32/34/98 
f 47/50/99 38/40/99 45/48/99 
f 68/77/100 38/40/100 47/50/100 
f 50/53/101 49/52/101 43/46/101 
f 68/75/102 50/53/102 43/46/102 
f 70/79/103 15/17/103 14/16/103 
f 56/61/104 70/79/104 14/16/104 
f 71/80/105 9/9/105 8/8/105 
f 58/63/106 9/9/106 71/80/106 
f 59/64/107 20/22/107 13/15/107 
f 59/64/108 13/15/108 39/83/108 
f 60/65/109 5/5/109 25/27/109 
f 60/65/110 42/84/110 5/5/110 
f 50/53/111 68/75/111 2/2/111 
f 47/50/112 2/12/112 68/77/112 
f 18/20/113 37/39/113 12/69/113 
f 11/13/114 18/20/114 12/14/114 
f 23/25/115 6/70/115 41/44/115 
f 4/4/116 6/6/116 23/25/116 
f 22/24/117 29/31/117 28/30/117 
f 22/24/118 63/68/118 29/31/118 
f 26/28/119 32/34/119 34/36/119 
f 26/28/120 34/36/120 63/68/120 
f 16/18/121 55/60/121 14/16/121 
f 16/18/122 36/38/122 55/60/122 
f 16/18/123 9/9/123 57/62/123 
f 16/18/124 57/62/124 36/43/124 
f 38/40/125 37/39/125 45/48/125 
f 18/20/126 45/48/126 37/39/126 
f 43/46/127 49/52/127 41/44/127 
f 23/25/128 41/44/128 49/52/128 
f 70/79/129 30/32/129 62/67/129 
f 29/31/130 62/67/130 30/32/130 
f 71/80/131 61/66/131 33/35/131 
f 34/36/132 33/35/132 61/66/132 
f 72/82/133 54/59/133 53/57/133 
f 72/82/134 53/57/134 52/56/134 
f 3/3/135 36/43/135 1/1/135 
f 3/11/136 10/10/136 36/38/136 
f 19/21/137 65/72/137 44/47/137 
f 19/21/138 30/32/138 65/72/138 
f 24/26/139 48/51/139 67/74/139 
f 24/26/140 67/74/140 33/35/140 
# 0 polygons - 140 triangles

