# 3ds Max Wavefront OBJ Exporter v0.97b - (c)2007 guruware
# File Created: 27.03.2016 20:58:37

mtllib ruina2.mtl

#
# object Box002
#

v  -1.3923 0.0000 0.3243
v  -1.3923 0.0000 -0.3243
v  -1.0756 0.0000 -0.3243
v  -1.0756 0.0000 0.3243
v  -1.3923 0.2684 0.3243
v  -1.0756 0.2684 0.3243
v  -1.0756 0.2684 -0.3243
v  -1.3923 0.2684 -0.3243
v  -1.3820 0.2726 0.3243
v  -1.3820 0.2726 -0.3243
v  -1.0653 0.2726 -0.3243
v  -1.0653 0.2726 0.3243
v  -1.3820 0.5409 0.3243
v  -1.0653 0.5409 0.3243
v  -1.0653 0.5409 -0.3243
v  -1.3820 0.5409 -0.3243
v  -1.3970 0.5404 0.3132
v  -1.3970 0.5404 -0.3354
v  -1.0803 0.5404 -0.3354
v  -1.0803 0.5404 0.3132
v  -1.3970 0.8088 0.3132
v  -1.0803 0.8088 0.3132
v  -1.0803 0.8088 -0.3354
v  -1.3970 0.8088 -0.3354
v  -1.4038 0.8110 0.3249
v  -1.4038 0.8110 -0.3237
v  -1.0872 0.8110 -0.3237
v  -1.0872 0.8110 0.3249
v  -1.4038 1.0793 0.3249
v  -1.0872 1.0793 0.3249
v  -1.0872 1.0793 -0.3237
v  -1.4038 1.0793 -0.3237
v  -1.3901 1.0803 0.3249
v  -1.3901 1.0803 -0.3237
v  -1.0734 1.0803 -0.3237
v  -1.0734 1.0803 0.3249
v  -1.3901 1.3487 0.3249
v  -1.0734 1.3487 0.3249
v  -1.0734 1.3487 -0.3237
v  -1.3901 1.3487 -0.3237
v  -1.3923 1.3457 0.3243
v  -1.3923 1.3457 -0.3243
v  -1.0756 1.3457 -0.3243
v  -1.0756 1.3457 0.3243
v  -1.3923 1.6141 0.3243
v  -1.0756 1.6141 0.3243
v  -1.0756 1.6141 -0.3243
v  -1.3923 1.6141 -0.3243
v  -1.3820 1.6183 0.3243
v  -1.3820 1.6183 -0.3243
v  -1.0653 1.6183 -0.3243
v  -1.0653 1.6183 0.3243
v  -1.3820 1.8867 0.3243
v  -1.0653 1.8867 0.3243
v  -1.0653 1.8867 -0.3243
v  -1.3820 1.8867 -0.3243
v  -1.3970 1.8861 0.3132
v  -1.3970 1.8861 -0.3354
v  -1.0803 1.8861 -0.3354
v  -1.0803 1.8861 0.3132
v  -1.3970 2.1545 0.3132
v  -1.0803 2.1545 0.3132
v  -1.0803 2.1545 -0.3354
v  -1.3970 2.1545 -0.3354
v  -1.3874 2.1519 0.3117
v  -1.3874 2.1519 -0.3369
v  -1.0692 2.1552 -0.3369
v  -1.0692 2.1552 0.3117
v  -1.3640 2.4193 0.3117
v  -1.0512 2.3608 0.3117
v  -1.0512 2.3608 -0.3369
v  -1.3640 2.4193 -0.3369
v  -1.3469 2.4126 0.3117
v  -1.3469 2.4126 -0.3369
v  -1.0330 2.3605 -0.3369
v  -1.0330 2.3605 0.3117
v  -1.2774 2.6718 0.3117
v  -0.9795 2.5599 0.3117
v  -0.9795 2.5599 -0.3369
v  -1.2774 2.6718 -0.3369
v  -1.2578 2.6522 0.3117
v  -1.2578 2.6522 -0.3369
v  -0.9577 2.5464 -0.3369
v  -0.9577 2.5464 0.3117
v  -1.1443 2.8954 0.3117
v  -0.8704 2.7335 0.3117
v  -0.8704 2.7335 -0.3369
v  -1.1443 2.8954 -0.3369
v  -1.1537 2.8992 0.3152
v  -1.1537 2.8992 -0.3334
v  -0.8766 2.7429 -0.3334
v  -0.8766 2.7429 0.3152
v  -0.9998 3.1190 0.3152
v  -0.7581 2.9120 0.3152
v  -0.7581 2.9120 -0.3334
v  -0.9998 3.1190 -0.3334
v  -0.9800 3.1075 0.3387
v  -0.9800 3.1075 -0.3099
v  -0.7342 2.9054 -0.3099
v  -0.7342 2.9054 0.3387
v  -0.7902 3.2972 0.3387
v  -0.5882 3.0514 0.3387
v  -0.5882 3.0514 -0.3099
v  -0.7902 3.2972 -0.3099
v  -0.7956 3.2992 0.3164
v  -0.7956 3.2992 -0.3321
v  -0.5886 3.0575 -0.3321
v  -0.5886 3.0575 0.3164
v  -0.5758 3.4531 0.3164
v  -0.4195 3.1759 0.3164
v  -0.4195 3.1759 -0.3321
v  -0.5758 3.4531 -0.3321
v  -0.5739 3.4704 0.3407
v  -0.5739 3.4704 -0.3079
v  -0.4364 3.1834 -0.3079
v  -0.4364 3.1834 0.3407
v  -0.3217 3.5622 0.3407
v  -0.2424 3.2540 0.3407
v  -0.2424 3.2540 -0.3079
v  -0.3217 3.5622 -0.3079
v  -0.3108 3.5696 0.3341
v  -0.3108 3.5696 -0.3144
v  -0.2524 3.2568 -0.3144
v  -0.2524 3.2568 0.3341
v  -0.0435 3.5930 0.3341
v  -0.0467 3.2748 0.3341
v  -0.0467 3.2748 -0.3144
v  -0.0435 3.5930 -0.3144
v  1.3166 0.0000 0.3243
v  0.9999 0.0000 0.3243
v  0.9999 0.0000 -0.3243
v  1.3166 0.0000 -0.3243
v  1.3166 0.2684 0.3243
v  1.3166 0.2684 -0.3243
v  0.9999 0.2684 -0.3243
v  0.9999 0.2684 0.3243
v  1.3063 0.2726 0.3243
v  0.9896 0.2726 0.3243
v  0.9896 0.2726 -0.3243
v  1.3063 0.2726 -0.3243
v  1.3063 0.5409 0.3243
v  1.3063 0.5409 -0.3243
v  0.9896 0.5409 -0.3243
v  0.9896 0.5409 0.3243
v  1.3213 0.5404 0.3132
v  1.0046 0.5404 0.3132
v  1.0046 0.5404 -0.3354
v  1.3213 0.5404 -0.3354
v  1.3213 0.8088 0.3132
v  1.3213 0.8088 -0.3354
v  1.0046 0.8088 -0.3354
v  1.0046 0.8088 0.3132
v  1.3282 0.8110 0.3249
v  1.0115 0.8110 0.3249
v  1.0115 0.8110 -0.3237
v  1.3282 0.8110 -0.3237
v  1.3282 1.0793 0.3249
v  1.3282 1.0793 -0.3237
v  1.0115 1.0793 -0.3237
v  1.0115 1.0793 0.3249
v  1.3144 1.0803 0.3249
v  0.9977 1.0803 0.3249
v  0.9977 1.0803 -0.3237
v  1.3144 1.0803 -0.3237
v  1.3144 1.3487 0.3249
v  1.3144 1.3487 -0.3237
v  0.9977 1.3487 -0.3237
v  0.9977 1.3487 0.3249
v  1.3166 1.3457 0.3243
v  0.9999 1.3457 0.3243
v  0.9999 1.3457 -0.3243
v  1.3166 1.3457 -0.3243
v  1.3166 1.6141 0.3243
v  1.3166 1.6141 -0.3243
v  0.9999 1.6141 -0.3243
v  0.9999 1.6141 0.3243
v  1.3063 1.6183 0.3243
v  0.9896 1.6183 0.3243
v  0.9896 1.6183 -0.3243
v  1.3063 1.6183 -0.3243
v  1.3063 1.8867 0.3243
v  1.3063 1.8867 -0.3243
v  0.9896 1.8867 -0.3243
v  0.9896 1.8867 0.3243
v  1.3213 1.8861 0.3132
v  1.0046 1.8861 0.3132
v  1.0046 1.8861 -0.3354
v  1.3213 1.8861 -0.3354
v  1.3213 2.1545 0.3132
v  1.3213 2.1545 -0.3354
v  1.0046 2.1545 -0.3354
v  1.0046 2.1545 0.3132
v  1.3117 2.1519 0.3117
v  0.9935 2.1552 0.3117
v  0.9935 2.1552 -0.3369
v  1.3117 2.1519 -0.3369
v  1.2883 2.4193 0.3117
v  1.2883 2.4193 -0.3369
v  0.9755 2.3608 -0.3369
v  0.9755 2.3608 0.3117
v  1.2712 2.4126 0.3117
v  0.9573 2.3605 0.3117
v  0.9573 2.3605 -0.3369
v  1.2712 2.4126 -0.3369
v  1.2017 2.6718 0.3117
v  1.2017 2.6718 -0.3369
v  0.9038 2.5599 -0.3369
v  0.9038 2.5599 0.3117
v  1.1821 2.6522 0.3117
v  0.8820 2.5464 0.3117
v  0.8820 2.5464 -0.3369
v  1.1821 2.6522 -0.3369
v  1.0686 2.8954 0.3117
v  1.0686 2.8954 -0.3369
v  0.7947 2.7335 -0.3369
v  0.7947 2.7335 0.3117
v  1.0780 2.8992 0.3152
v  0.8009 2.7429 0.3152
v  0.8009 2.7429 -0.3334
v  1.0780 2.8992 -0.3334
v  0.9241 3.1190 0.3152
v  0.9241 3.1190 -0.3334
v  0.6824 2.9120 -0.3334
v  0.6824 2.9120 0.3152
v  0.9043 3.1075 0.3387
v  0.6585 2.9054 0.3387
v  0.6585 2.9054 -0.3099
v  0.9043 3.1075 -0.3099
v  0.7145 3.2972 0.3387
v  0.7145 3.2972 -0.3099
v  0.5125 3.0514 -0.3099
v  0.5125 3.0514 0.3387
v  0.7199 3.2992 0.3164
v  0.5129 3.0575 0.3164
v  0.5129 3.0575 -0.3321
v  0.7199 3.2992 -0.3321
v  0.5001 3.4531 0.3164
v  0.5001 3.4531 -0.3321
v  0.3438 3.1759 -0.3321
v  0.3438 3.1759 0.3164
v  0.4982 3.4704 0.3407
v  0.3607 3.1834 0.3407
v  0.3607 3.1834 -0.3079
v  0.4982 3.4704 -0.3079
v  0.2460 3.5622 0.3407
v  0.2460 3.5622 -0.3079
v  0.1667 3.2540 -0.3079
v  0.1667 3.2540 0.3407
v  0.2351 3.5696 0.3341
v  0.1767 3.2568 0.3341
v  0.1767 3.2568 -0.3144
v  0.2351 3.5696 -0.3144
v  -0.0322 3.5930 0.3341
v  -0.0322 3.5930 -0.3144
v  -0.0290 3.2748 -0.3144
v  -0.0290 3.2748 0.3341
# 256 vertices

vn 0.0000 -1.0000 -0.0000
vn 0.0000 1.0000 -0.0000
vn 0.0000 0.0000 1.0000
vn 1.0000 0.0000 -0.0000
vn 0.0000 0.0000 -1.0000
vn -1.0000 0.0000 -0.0000
vn 0.0102 -0.9999 -0.0000
vn 0.1837 0.9830 -0.0000
vn 0.9962 -0.0872 -0.0000
vn -0.9962 0.0872 -0.0000
vn -0.1636 -0.9865 -0.0000
vn 0.3516 0.9362 -0.0000
vn 0.9659 -0.2588 -0.0000
vn -0.9659 0.2588 -0.0000
vn -0.3324 -0.9431 -0.0000
vn 0.5088 0.8609 -0.0000
vn 0.9063 -0.4226 -0.0000
vn -0.9063 0.4226 -0.0000
vn -0.4911 -0.8711 -0.0000
vn 0.6506 0.7595 -0.0000
vn 0.8192 -0.5736 -0.0000
vn -0.8192 0.5736 -0.0000
vn -0.6349 -0.7726 -0.0000
vn 0.7726 0.6350 -0.0000
vn 0.7071 -0.7071 -0.0000
vn -0.7071 0.7071 -0.0000
vn -0.7595 -0.6506 -0.0000
vn 0.8711 0.4912 -0.0000
vn 0.5736 -0.8192 -0.0000
vn -0.5736 0.8192 -0.0000
vn -0.9020 -0.4318 -0.0000
vn 0.9685 0.2490 -0.0000
vn 0.3420 -0.9397 -0.0000
vn -0.3420 0.9397 -0.0000
vn -0.9830 -0.1837 -0.0000
vn 0.9999 -0.0102 -0.0000
vn 0.0872 -0.9962 -0.0000
vn -0.0872 0.9962 -0.0000
vn -0.0102 -0.9999 -0.0000
vn -0.1837 0.9830 -0.0000
vn -0.9962 -0.0872 -0.0000
vn 0.9962 0.0872 -0.0000
vn 0.1636 -0.9865 -0.0000
vn -0.3516 0.9362 -0.0000
vn -0.9659 -0.2588 -0.0000
vn 0.9659 0.2588 -0.0000
vn 0.3324 -0.9431 -0.0000
vn -0.5088 0.8609 -0.0000
vn -0.9063 -0.4226 -0.0000
vn 0.9063 0.4226 -0.0000
vn 0.4911 -0.8711 -0.0000
vn -0.6506 0.7595 -0.0000
vn -0.8192 -0.5736 -0.0000
vn 0.8192 0.5736 -0.0000
vn 0.6349 -0.7726 -0.0000
vn -0.7726 0.6350 -0.0000
vn -0.7071 -0.7071 -0.0000
vn 0.7071 0.7071 -0.0000
vn 0.7595 -0.6506 -0.0000
vn -0.8711 0.4912 -0.0000
vn -0.5736 -0.8192 -0.0000
vn 0.5736 0.8192 -0.0000
vn 0.9020 -0.4318 -0.0000
vn -0.9685 0.2490 -0.0000
vn -0.3420 -0.9397 -0.0000
vn 0.3420 0.9397 -0.0000
vn 0.9830 -0.1837 -0.0000
vn -0.9999 -0.0102 -0.0000
vn -0.0872 -0.9962 -0.0000
vn 0.0872 0.9962 -0.0000
# 70 vertex normals

vt 0.3287 0.2892 0.0000
vt 0.6713 0.2892 0.0000
vt 0.6713 0.4566 0.0000
vt 0.3287 0.4566 0.0000
vt 0.3287 0.7657 0.0000
vt 0.3287 0.5983 0.0000
vt 0.6713 0.5983 0.0000
vt 0.6713 0.7657 0.0000
vt 0.1614 0.4566 0.0000
vt 0.1614 0.5983 0.0000
vt 0.8386 0.4566 0.0000
vt 0.8386 0.5983 0.0000
vt 0.3287 0.1475 0.0000
vt 0.6713 0.1475 0.0000
# 14 texture coords

g Box002
usemtl wire_228214153
s 2
f 1/1/1 2/2/1 3/3/1 4/4/1 
s 4
f 5/5/2 6/6/2 7/7/2 8/8/2 
s 8
f 1/9/3 4/4/3 6/6/3 5/10/3 
s 16
f 4/4/4 3/3/4 7/7/4 6/6/4 
s 32
f 3/3/5 2/11/5 8/12/5 7/7/5 
s 64
f 2/2/6 1/1/6 5/13/6 8/14/6 
s 2
f 9/1/1 10/2/1 11/3/1 12/4/1 
s 4
f 13/5/2 14/6/2 15/7/2 16/8/2 
s 8
f 9/9/3 12/4/3 14/6/3 13/10/3 
s 16
f 12/4/4 11/3/4 15/7/4 14/6/4 
s 32
f 11/3/5 10/11/5 16/12/5 15/7/5 
s 64
f 10/2/6 9/1/6 13/13/6 16/14/6 
s 2
f 17/1/1 18/2/1 19/3/1 20/4/1 
s 4
f 21/5/2 22/6/2 23/7/2 24/8/2 
s 8
f 17/9/3 20/4/3 22/6/3 21/10/3 
s 16
f 20/4/4 19/3/4 23/7/4 22/6/4 
s 32
f 19/3/5 18/11/5 24/12/5 23/7/5 
s 64
f 18/2/6 17/1/6 21/13/6 24/14/6 
s 2
f 25/1/1 26/2/1 27/3/1 28/4/1 
s 4
f 29/5/2 30/6/2 31/7/2 32/8/2 
s 8
f 25/9/3 28/4/3 30/6/3 29/10/3 
s 16
f 28/4/4 27/3/4 31/7/4 30/6/4 
s 32
f 27/3/5 26/11/5 32/12/5 31/7/5 
s 64
f 26/2/6 25/1/6 29/13/6 32/14/6 
s 2
f 33/1/1 34/2/1 35/3/1 36/4/1 
s 4
f 37/5/2 38/6/2 39/7/2 40/8/2 
s 8
f 33/9/3 36/4/3 38/6/3 37/10/3 
s 16
f 36/4/4 35/3/4 39/7/4 38/6/4 
s 32
f 35/3/5 34/11/5 40/12/5 39/7/5 
s 64
f 34/2/6 33/1/6 37/13/6 40/14/6 
s 2
f 41/1/1 42/2/1 43/3/1 44/4/1 
s 4
f 45/5/2 46/6/2 47/7/2 48/8/2 
s 8
f 41/9/3 44/4/3 46/6/3 45/10/3 
s 16
f 44/4/4 43/3/4 47/7/4 46/6/4 
s 32
f 43/3/5 42/11/5 48/12/5 47/7/5 
s 64
f 42/2/6 41/1/6 45/13/6 48/14/6 
s 2
f 49/1/1 50/2/1 51/3/1 52/4/1 
s 4
f 53/5/2 54/6/2 55/7/2 56/8/2 
s 8
f 49/9/3 52/4/3 54/6/3 53/10/3 
s 16
f 52/4/4 51/3/4 55/7/4 54/6/4 
s 32
f 51/3/5 50/11/5 56/12/5 55/7/5 
s 64
f 50/2/6 49/1/6 53/13/6 56/14/6 
s 2
f 57/1/1 58/2/1 59/3/1 60/4/1 
s 4
f 61/5/2 62/6/2 63/7/2 64/8/2 
s 8
f 57/9/3 60/4/3 62/6/3 61/10/3 
s 16
f 60/4/4 59/3/4 63/7/4 62/6/4 
s 32
f 59/3/5 58/11/5 64/12/5 63/7/5 
s 64
f 58/2/6 57/1/6 61/13/6 64/14/6 
s 2
f 65/1/7 66/2/7 67/3/7 68/4/7 
s 4
f 69/5/8 70/6/8 71/7/8 72/8/8 
s 8
f 65/9/3 68/4/3 70/6/3 69/10/3 
s 16
f 68/4/9 67/3/9 71/7/9 70/6/9 
s 32
f 67/3/5 66/11/5 72/12/5 71/7/5 
s 64
f 66/2/10 65/1/10 69/13/10 72/14/10 
s 2
f 73/1/11 74/2/11 75/3/11 76/4/11 
s 4
f 77/5/12 78/6/12 79/7/12 80/8/12 
s 8
f 73/9/3 76/4/3 78/6/3 77/10/3 
s 16
f 76/4/13 75/3/13 79/7/13 78/6/13 
s 32
f 75/3/5 74/11/5 80/12/5 79/7/5 
s 64
f 74/2/14 73/1/14 77/13/14 80/14/14 
s 2
f 81/1/15 82/2/15 83/3/15 84/4/15 
s 4
f 85/5/16 86/6/16 87/7/16 88/8/16 
s 8
f 81/9/3 84/4/3 86/6/3 85/10/3 
s 16
f 84/4/17 83/3/17 87/7/17 86/6/17 
s 32
f 83/3/5 82/11/5 88/12/5 87/7/5 
s 64
f 82/2/18 81/1/18 85/13/18 88/14/18 
s 2
f 89/1/19 90/2/19 91/3/19 92/4/19 
s 4
f 93/5/20 94/6/20 95/7/20 96/8/20 
s 8
f 89/9/3 92/4/3 94/6/3 93/10/3 
s 16
f 92/4/21 91/3/21 95/7/21 94/6/21 
s 32
f 91/3/5 90/11/5 96/12/5 95/7/5 
s 64
f 90/2/22 89/1/22 93/13/22 96/14/22 
s 2
f 97/1/23 98/2/23 99/3/23 100/4/23 
s 4
f 101/5/24 102/6/24 103/7/24 104/8/24 
s 8
f 97/9/3 100/4/3 102/6/3 101/10/3 
s 16
f 100/4/25 99/3/25 103/7/25 102/6/25 
s 32
f 99/3/5 98/11/5 104/12/5 103/7/5 
s 64
f 98/2/26 97/1/26 101/13/26 104/14/26 
s 2
f 105/1/27 106/2/27 107/3/27 108/4/27 
s 4
f 109/5/28 110/6/28 111/7/28 112/8/28 
s 8
f 105/9/3 108/4/3 110/6/3 109/10/3 
s 16
f 108/4/29 107/3/29 111/7/29 110/6/29 
s 32
f 107/3/5 106/11/5 112/12/5 111/7/5 
s 64
f 106/2/30 105/1/30 109/13/30 112/14/30 
s 2
f 113/1/31 114/2/31 115/3/31 116/4/31 
s 4
f 117/5/32 118/6/32 119/7/32 120/8/32 
s 8
f 113/9/3 116/4/3 118/6/3 117/10/3 
s 16
f 116/4/33 115/3/33 119/7/33 118/6/33 
s 32
f 115/3/5 114/11/5 120/12/5 119/7/5 
s 64
f 114/2/34 113/1/34 117/13/34 120/14/34 
s 2
f 121/1/35 122/2/35 123/3/35 124/4/35 
s 4
f 125/5/36 126/6/36 127/7/36 128/8/36 
s 8
f 121/9/3 124/4/3 126/6/3 125/10/3 
s 16
f 124/4/37 123/3/37 127/7/37 126/6/37 
s 32
f 123/3/5 122/11/5 128/12/5 127/7/5 
s 64
f 122/2/38 121/1/38 125/13/38 128/14/38 
s 2
f 129/1/1 130/4/1 131/3/1 132/2/1 
s 4
f 133/5/2 134/8/2 135/7/2 136/6/2 
s 8
f 129/9/3 133/10/3 136/6/3 130/4/3 
s 16
f 130/4/6 136/6/6 135/7/6 131/3/6 
s 32
f 131/3/5 135/7/5 134/12/5 132/11/5 
s 64
f 132/2/4 134/14/4 133/13/4 129/1/4 
s 2
f 137/1/1 138/4/1 139/3/1 140/2/1 
s 4
f 141/5/2 142/8/2 143/7/2 144/6/2 
s 8
f 137/9/3 141/10/3 144/6/3 138/4/3 
s 16
f 138/4/6 144/6/6 143/7/6 139/3/6 
s 32
f 139/3/5 143/7/5 142/12/5 140/11/5 
s 64
f 140/2/4 142/14/4 141/13/4 137/1/4 
s 2
f 145/1/1 146/4/1 147/3/1 148/2/1 
s 4
f 149/5/2 150/8/2 151/7/2 152/6/2 
s 8
f 145/9/3 149/10/3 152/6/3 146/4/3 
s 16
f 146/4/6 152/6/6 151/7/6 147/3/6 
s 32
f 147/3/5 151/7/5 150/12/5 148/11/5 
s 64
f 148/2/4 150/14/4 149/13/4 145/1/4 
s 2
f 153/1/1 154/4/1 155/3/1 156/2/1 
s 4
f 157/5/2 158/8/2 159/7/2 160/6/2 
s 8
f 153/9/3 157/10/3 160/6/3 154/4/3 
s 16
f 154/4/6 160/6/6 159/7/6 155/3/6 
s 32
f 155/3/5 159/7/5 158/12/5 156/11/5 
s 64
f 156/2/4 158/14/4 157/13/4 153/1/4 
s 2
f 161/1/1 162/4/1 163/3/1 164/2/1 
s 4
f 165/5/2 166/8/2 167/7/2 168/6/2 
s 8
f 161/9/3 165/10/3 168/6/3 162/4/3 
s 16
f 162/4/6 168/6/6 167/7/6 163/3/6 
s 32
f 163/3/5 167/7/5 166/12/5 164/11/5 
s 64
f 164/2/4 166/14/4 165/13/4 161/1/4 
s 2
f 169/1/1 170/4/1 171/3/1 172/2/1 
s 4
f 173/5/2 174/8/2 175/7/2 176/6/2 
s 8
f 169/9/3 173/10/3 176/6/3 170/4/3 
s 16
f 170/4/6 176/6/6 175/7/6 171/3/6 
s 32
f 171/3/5 175/7/5 174/12/5 172/11/5 
s 64
f 172/2/4 174/14/4 173/13/4 169/1/4 
s 2
f 177/1/1 178/4/1 179/3/1 180/2/1 
s 4
f 181/5/2 182/8/2 183/7/2 184/6/2 
s 8
f 177/9/3 181/10/3 184/6/3 178/4/3 
s 16
f 178/4/6 184/6/6 183/7/6 179/3/6 
s 32
f 179/3/5 183/7/5 182/12/5 180/11/5 
s 64
f 180/2/4 182/14/4 181/13/4 177/1/4 
s 2
f 185/1/1 186/4/1 187/3/1 188/2/1 
s 4
f 189/5/2 190/8/2 191/7/2 192/6/2 
s 8
f 185/9/3 189/10/3 192/6/3 186/4/3 
s 16
f 186/4/6 192/6/6 191/7/6 187/3/6 
s 32
f 187/3/5 191/7/5 190/12/5 188/11/5 
s 64
f 188/2/4 190/14/4 189/13/4 185/1/4 
s 2
f 193/1/39 194/4/39 195/3/39 196/2/39 
s 4
f 197/5/40 198/8/40 199/7/40 200/6/40 
s 8
f 193/9/3 197/10/3 200/6/3 194/4/3 
s 16
f 194/4/41 200/6/41 199/7/41 195/3/41 
s 32
f 195/3/5 199/7/5 198/12/5 196/11/5 
s 64
f 196/2/42 198/14/42 197/13/42 193/1/42 
s 2
f 201/1/43 202/4/43 203/3/43 204/2/43 
s 4
f 205/5/44 206/8/44 207/7/44 208/6/44 
s 8
f 201/9/3 205/10/3 208/6/3 202/4/3 
s 16
f 202/4/45 208/6/45 207/7/45 203/3/45 
s 32
f 203/3/5 207/7/5 206/12/5 204/11/5 
s 64
f 204/2/46 206/14/46 205/13/46 201/1/46 
s 2
f 209/1/47 210/4/47 211/3/47 212/2/47 
s 4
f 213/5/48 214/8/48 215/7/48 216/6/48 
s 8
f 209/9/3 213/10/3 216/6/3 210/4/3 
s 16
f 210/4/49 216/6/49 215/7/49 211/3/49 
s 32
f 211/3/5 215/7/5 214/12/5 212/11/5 
s 64
f 212/2/50 214/14/50 213/13/50 209/1/50 
s 2
f 217/1/51 218/4/51 219/3/51 220/2/51 
s 4
f 221/5/52 222/8/52 223/7/52 224/6/52 
s 8
f 217/9/3 221/10/3 224/6/3 218/4/3 
s 16
f 218/4/53 224/6/53 223/7/53 219/3/53 
s 32
f 219/3/5 223/7/5 222/12/5 220/11/5 
s 64
f 220/2/54 222/14/54 221/13/54 217/1/54 
s 2
f 225/1/55 226/4/55 227/3/55 228/2/55 
s 4
f 229/5/56 230/8/56 231/7/56 232/6/56 
s 8
f 225/9/3 229/10/3 232/6/3 226/4/3 
s 16
f 226/4/57 232/6/57 231/7/57 227/3/57 
s 32
f 227/3/5 231/7/5 230/12/5 228/11/5 
s 64
f 228/2/58 230/14/58 229/13/58 225/1/58 
s 2
f 233/1/59 234/4/59 235/3/59 236/2/59 
s 4
f 237/5/60 238/8/60 239/7/60 240/6/60 
s 8
f 233/9/3 237/10/3 240/6/3 234/4/3 
s 16
f 234/4/61 240/6/61 239/7/61 235/3/61 
s 32
f 235/3/5 239/7/5 238/12/5 236/11/5 
s 64
f 236/2/62 238/14/62 237/13/62 233/1/62 
s 2
f 241/1/63 242/4/63 243/3/63 244/2/63 
s 4
f 245/5/64 246/8/64 247/7/64 248/6/64 
s 8
f 241/9/3 245/10/3 248/6/3 242/4/3 
s 16
f 242/4/65 248/6/65 247/7/65 243/3/65 
s 32
f 243/3/5 247/7/5 246/12/5 244/11/5 
s 64
f 244/2/66 246/14/66 245/13/66 241/1/66 
s 2
f 249/1/67 250/4/67 251/3/67 252/2/67 
s 4
f 253/5/68 254/8/68 255/7/68 256/6/68 
s 8
f 249/9/3 253/10/3 256/6/3 250/4/3 
s 16
f 250/4/69 256/6/69 255/7/69 251/3/69 
s 32
f 251/3/5 255/7/5 254/12/5 252/11/5 
s 64
f 252/2/70 254/14/70 253/13/70 249/1/70 
# 192 polygons

