# 3ds Max Wavefront OBJ Exporter v0.97b - (c)2007 guruware
# File Created: 27.03.2016 21:02:06

mtllib ruina3.mtl

#
# object Box002
#

v  -1.3923 0.0000 0.3243
v  -1.3923 0.0000 -0.3243
v  -1.0756 0.0000 -0.3243
v  -1.0756 0.0000 0.3243
v  -1.3923 0.2684 0.3243
v  -1.0756 0.2684 0.3243
v  -1.0756 0.2684 -0.3243
v  -1.3923 0.2684 -0.3243
v  -1.3820 0.2726 0.3243
v  -1.3820 0.2726 -0.3243
v  -1.0653 0.2726 -0.3243
v  -1.0653 0.2726 0.3243
v  -1.3820 0.5409 0.3243
v  -1.0653 0.5409 0.3243
v  -1.0653 0.5409 -0.3243
v  -1.3820 0.5409 -0.3243
v  -1.3970 0.5404 0.3132
v  -1.3970 0.5404 -0.3354
v  -1.0803 0.5404 -0.3354
v  -1.0803 0.5404 0.3132
v  -1.3970 0.8088 0.3132
v  -1.0803 0.8088 0.3132
v  -1.0803 0.8088 -0.3354
v  -1.3970 0.8088 -0.3354
v  -1.4038 0.8110 0.3249
v  -1.4038 0.8110 -0.3237
v  -1.0872 0.8110 -0.3237
v  -1.0872 0.8110 0.3249
v  -1.4038 1.0793 0.3249
v  -1.0872 1.0793 0.3249
v  -1.0872 1.0793 -0.3237
v  -1.4038 1.0793 -0.3237
v  -1.3901 1.0803 0.3249
v  -1.3901 1.0803 -0.3237
v  -1.0734 1.0803 -0.3237
v  -1.0734 1.0803 0.3249
v  -1.3901 1.3487 0.3249
v  -1.0734 1.3487 0.3249
v  -1.0734 1.3487 -0.3237
v  -1.3901 1.3487 -0.3237
v  -1.3923 1.3457 0.3243
v  -1.3923 1.3457 -0.3243
v  -1.0756 1.3457 -0.3243
v  -1.0756 1.3457 0.3243
v  -1.3923 1.6141 0.3243
v  -1.0756 1.6141 0.3243
v  -1.0756 1.6141 -0.3243
v  -1.3923 1.6141 -0.3243
v  -1.3820 1.6183 0.3243
v  -1.3820 1.6183 -0.3243
v  -1.0653 1.6183 -0.3243
v  -1.0653 1.6183 0.3243
v  -1.3820 1.8867 0.3243
v  -1.0653 1.8867 0.3243
v  -1.0653 1.8867 -0.3243
v  -1.3820 1.8867 -0.3243
v  -1.3970 1.8861 0.3132
v  -1.3970 1.8861 -0.3354
v  -1.0803 1.8861 -0.3354
v  -1.0803 1.8861 0.3132
v  -1.3970 2.1545 0.3132
v  -1.0803 2.1545 0.3132
v  -1.0803 2.1545 -0.3354
v  -1.3970 2.1545 -0.3354
v  -1.3874 2.1519 0.3117
v  -1.3874 2.1519 -0.3369
v  -1.0692 2.1552 -0.3369
v  -1.0692 2.1552 0.3117
v  -1.3640 2.4193 0.3117
v  -1.0512 2.3608 0.3117
v  -1.0512 2.3608 -0.3369
v  -1.3640 2.4193 -0.3369
v  -1.3469 2.4126 0.3117
v  -1.3469 2.4126 -0.3369
v  -1.0330 2.3605 -0.3369
v  -1.0330 2.3605 0.3117
v  -1.2774 2.6718 0.3117
v  -0.9795 2.5599 0.3117
v  -0.9795 2.5599 -0.3369
v  -1.2774 2.6718 -0.3369
v  1.3166 0.0000 0.3243
v  0.9999 0.0000 0.3243
v  0.9999 0.0000 -0.3243
v  1.3166 0.0000 -0.3243
v  1.3166 0.2684 0.3243
v  1.3166 0.2684 -0.3243
v  0.9999 0.2684 -0.3243
v  0.9999 0.2684 0.3243
v  1.3063 0.2726 0.3243
v  0.9896 0.2726 0.3243
v  0.9896 0.2726 -0.3243
v  1.3063 0.2726 -0.3243
v  1.3063 0.5409 0.3243
v  1.3063 0.5409 -0.3243
v  0.9896 0.5409 -0.3243
v  0.9896 0.5409 0.3243
v  1.3213 0.5404 0.3132
v  1.0046 0.5404 0.3132
v  1.0046 0.5404 -0.3354
v  1.3213 0.5404 -0.3354
v  1.3213 0.8088 0.3132
v  1.3213 0.8088 -0.3354
v  1.0046 0.8088 -0.3354
v  1.0046 0.8088 0.3132
v  1.3282 0.8110 0.3249
v  1.0115 0.8110 0.3249
v  1.0115 0.8110 -0.3237
v  1.3282 0.8110 -0.3237
v  1.3282 1.0793 0.3249
v  1.3282 1.0793 -0.3237
v  1.0115 1.0793 -0.3237
v  1.0115 1.0793 0.3249
v  1.3144 1.0803 0.3249
v  0.9977 1.0803 0.3249
v  0.9977 1.0803 -0.3237
v  1.3144 1.0803 -0.3237
v  1.3144 1.3487 0.3249
v  1.3144 1.3487 -0.3237
v  0.9977 1.3487 -0.3237
v  0.9977 1.3487 0.3249
v  1.3166 1.3457 0.3243
v  0.9999 1.3457 0.3243
v  0.9999 1.3457 -0.3243
v  1.3166 1.3457 -0.3243
v  1.3166 1.6141 0.3243
v  1.3166 1.6141 -0.3243
v  0.9999 1.6141 -0.3243
v  0.9999 1.6141 0.3243
v  1.6151 0.0000 0.8413
v  1.3725 0.0000 1.0449
v  0.9556 0.0000 0.5481
v  1.1982 0.0000 0.3445
v  1.6151 0.2684 0.8413
v  1.1982 0.2684 0.3445
v  0.9556 0.2684 0.5481
v  1.3725 0.2684 1.0449
v  1.6048 0.2726 0.8413
v  1.3622 0.2726 1.0449
v  0.9453 0.2726 0.5481
v  1.1879 0.2726 0.3445
v  1.6048 0.5409 0.8413
v  1.1879 0.5409 0.3445
v  0.9453 0.5409 0.5481
v  1.3622 0.5409 1.0449
v  2.1266 -0.0255 0.4111
v  2.0446 -0.0255 0.7170
v  1.4181 -0.0255 0.5491
v  1.5001 -0.0255 0.2432
v  2.1266 0.2429 0.4111
v  1.5001 0.2429 0.2432
v  1.4181 0.2429 0.5491
v  2.0446 0.2429 0.7170
# 152 vertices

vn 0.0000 -1.0000 -0.0000
vn 0.0000 1.0000 -0.0000
vn 0.0000 0.0000 1.0000
vn 1.0000 0.0000 -0.0000
vn 0.0000 0.0000 -1.0000
vn -1.0000 0.0000 -0.0000
vn 0.0102 -0.9999 -0.0000
vn 0.1837 0.9830 -0.0000
vn 0.9962 -0.0872 -0.0000
vn -0.9962 0.0872 -0.0000
vn -0.1636 -0.9865 -0.0000
vn 0.3516 0.9362 -0.0000
vn 0.9659 -0.2588 -0.0000
vn -0.9659 0.2588 -0.0000
vn 0.6428 0.0000 0.7660
vn -0.7660 0.0000 0.6428
vn -0.6428 0.0000 -0.7660
vn 0.7660 0.0000 -0.6428
vn 0.9659 0.0000 0.2588
vn -0.2588 0.0000 0.9659
vn -0.9659 0.0000 -0.2588
vn 0.2588 0.0000 -0.9659
# 22 vertex normals

vt 0.3287 0.2892 0.0000
vt 0.6713 0.2892 0.0000
vt 0.6713 0.4566 0.0000
vt 0.3287 0.4566 0.0000
vt 0.3287 0.7657 0.0000
vt 0.3287 0.5983 0.0000
vt 0.6713 0.5983 0.0000
vt 0.6713 0.7657 0.0000
vt 0.1614 0.4566 0.0000
vt 0.1614 0.5983 0.0000
vt 0.8386 0.4566 0.0000
vt 0.8386 0.5983 0.0000
vt 0.3287 0.1475 0.0000
vt 0.6713 0.1475 0.0000
# 14 texture coords

g Box002
usemtl wire_228214153
s 2
f 1/1/1 2/2/1 3/3/1 4/4/1 
s 4
f 5/5/2 6/6/2 7/7/2 8/8/2 
s 8
f 1/9/3 4/4/3 6/6/3 5/10/3 
s 16
f 4/4/4 3/3/4 7/7/4 6/6/4 
s 32
f 3/3/5 2/11/5 8/12/5 7/7/5 
s 64
f 2/2/6 1/1/6 5/13/6 8/14/6 
s 2
f 9/1/1 10/2/1 11/3/1 12/4/1 
s 4
f 13/5/2 14/6/2 15/7/2 16/8/2 
s 8
f 9/9/3 12/4/3 14/6/3 13/10/3 
s 16
f 12/4/4 11/3/4 15/7/4 14/6/4 
s 32
f 11/3/5 10/11/5 16/12/5 15/7/5 
s 64
f 10/2/6 9/1/6 13/13/6 16/14/6 
s 2
f 17/1/1 18/2/1 19/3/1 20/4/1 
s 4
f 21/5/2 22/6/2 23/7/2 24/8/2 
s 8
f 17/9/3 20/4/3 22/6/3 21/10/3 
s 16
f 20/4/4 19/3/4 23/7/4 22/6/4 
s 32
f 19/3/5 18/11/5 24/12/5 23/7/5 
s 64
f 18/2/6 17/1/6 21/13/6 24/14/6 
s 2
f 25/1/1 26/2/1 27/3/1 28/4/1 
s 4
f 29/5/2 30/6/2 31/7/2 32/8/2 
s 8
f 25/9/3 28/4/3 30/6/3 29/10/3 
s 16
f 28/4/4 27/3/4 31/7/4 30/6/4 
s 32
f 27/3/5 26/11/5 32/12/5 31/7/5 
s 64
f 26/2/6 25/1/6 29/13/6 32/14/6 
s 2
f 33/1/1 34/2/1 35/3/1 36/4/1 
s 4
f 37/5/2 38/6/2 39/7/2 40/8/2 
s 8
f 33/9/3 36/4/3 38/6/3 37/10/3 
s 16
f 36/4/4 35/3/4 39/7/4 38/6/4 
s 32
f 35/3/5 34/11/5 40/12/5 39/7/5 
s 64
f 34/2/6 33/1/6 37/13/6 40/14/6 
s 2
f 41/1/1 42/2/1 43/3/1 44/4/1 
s 4
f 45/5/2 46/6/2 47/7/2 48/8/2 
s 8
f 41/9/3 44/4/3 46/6/3 45/10/3 
s 16
f 44/4/4 43/3/4 47/7/4 46/6/4 
s 32
f 43/3/5 42/11/5 48/12/5 47/7/5 
s 64
f 42/2/6 41/1/6 45/13/6 48/14/6 
s 2
f 49/1/1 50/2/1 51/3/1 52/4/1 
s 4
f 53/5/2 54/6/2 55/7/2 56/8/2 
s 8
f 49/9/3 52/4/3 54/6/3 53/10/3 
s 16
f 52/4/4 51/3/4 55/7/4 54/6/4 
s 32
f 51/3/5 50/11/5 56/12/5 55/7/5 
s 64
f 50/2/6 49/1/6 53/13/6 56/14/6 
s 2
f 57/1/1 58/2/1 59/3/1 60/4/1 
s 4
f 61/5/2 62/6/2 63/7/2 64/8/2 
s 8
f 57/9/3 60/4/3 62/6/3 61/10/3 
s 16
f 60/4/4 59/3/4 63/7/4 62/6/4 
s 32
f 59/3/5 58/11/5 64/12/5 63/7/5 
s 64
f 58/2/6 57/1/6 61/13/6 64/14/6 
s 2
f 65/1/7 66/2/7 67/3/7 68/4/7 
s 4
f 69/5/8 70/6/8 71/7/8 72/8/8 
s 8
f 65/9/3 68/4/3 70/6/3 69/10/3 
s 16
f 68/4/9 67/3/9 71/7/9 70/6/9 
s 32
f 67/3/5 66/11/5 72/12/5 71/7/5 
s 64
f 66/2/10 65/1/10 69/13/10 72/14/10 
s 2
f 73/1/11 74/2/11 75/3/11 76/4/11 
s 4
f 77/5/12 78/6/12 79/7/12 80/8/12 
s 8
f 73/9/3 76/4/3 78/6/3 77/10/3 
s 16
f 76/4/13 75/3/13 79/7/13 78/6/13 
s 32
f 75/3/5 74/11/5 80/12/5 79/7/5 
s 64
f 74/2/14 73/1/14 77/13/14 80/14/14 
s 2
f 81/1/1 82/4/1 83/3/1 84/2/1 
s 4
f 85/5/2 86/8/2 87/7/2 88/6/2 
s 8
f 81/9/3 85/10/3 88/6/3 82/4/3 
s 16
f 82/4/6 88/6/6 87/7/6 83/3/6 
s 32
f 83/3/5 87/7/5 86/12/5 84/11/5 
s 64
f 84/2/4 86/14/4 85/13/4 81/1/4 
s 2
f 89/1/1 90/4/1 91/3/1 92/2/1 
s 4
f 93/5/2 94/8/2 95/7/2 96/6/2 
s 8
f 89/9/3 93/10/3 96/6/3 90/4/3 
s 16
f 90/4/6 96/6/6 95/7/6 91/3/6 
s 32
f 91/3/5 95/7/5 94/12/5 92/11/5 
s 64
f 92/2/4 94/14/4 93/13/4 89/1/4 
s 2
f 97/1/1 98/4/1 99/3/1 100/2/1 
s 4
f 101/5/2 102/8/2 103/7/2 104/6/2 
s 8
f 97/9/3 101/10/3 104/6/3 98/4/3 
s 16
f 98/4/6 104/6/6 103/7/6 99/3/6 
s 32
f 99/3/5 103/7/5 102/12/5 100/11/5 
s 64
f 100/2/4 102/14/4 101/13/4 97/1/4 
s 2
f 105/1/1 106/4/1 107/3/1 108/2/1 
s 4
f 109/5/2 110/8/2 111/7/2 112/6/2 
s 8
f 105/9/3 109/10/3 112/6/3 106/4/3 
s 16
f 106/4/6 112/6/6 111/7/6 107/3/6 
s 32
f 107/3/5 111/7/5 110/12/5 108/11/5 
s 64
f 108/2/4 110/14/4 109/13/4 105/1/4 
s 2
f 113/1/1 114/4/1 115/3/1 116/2/1 
s 4
f 117/5/2 118/8/2 119/7/2 120/6/2 
s 8
f 113/9/3 117/10/3 120/6/3 114/4/3 
s 16
f 114/4/6 120/6/6 119/7/6 115/3/6 
s 32
f 115/3/5 119/7/5 118/12/5 116/11/5 
s 64
f 116/2/4 118/14/4 117/13/4 113/1/4 
s 2
f 121/1/1 122/4/1 123/3/1 124/2/1 
s 4
f 125/5/2 126/8/2 127/7/2 128/6/2 
s 8
f 121/9/3 125/10/3 128/6/3 122/4/3 
s 16
f 122/4/6 128/6/6 127/7/6 123/3/6 
s 32
f 123/3/5 127/7/5 126/12/5 124/11/5 
s 64
f 124/2/4 126/14/4 125/13/4 121/1/4 
s 2
f 129/1/1 130/4/1 131/3/1 132/2/1 
s 4
f 133/5/2 134/8/2 135/7/2 136/6/2 
s 8
f 129/9/15 133/10/15 136/6/15 130/4/15 
s 16
f 130/4/16 136/6/16 135/7/16 131/3/16 
s 32
f 131/3/17 135/7/17 134/12/17 132/11/17 
s 64
f 132/2/18 134/14/18 133/13/18 129/1/18 
s 2
f 137/1/1 138/4/1 139/3/1 140/2/1 
s 4
f 141/5/2 142/8/2 143/7/2 144/6/2 
s 8
f 137/9/15 141/10/15 144/6/15 138/4/15 
s 16
f 138/4/16 144/6/16 143/7/16 139/3/16 
s 32
f 139/3/17 143/7/17 142/12/17 140/11/17 
s 64
f 140/2/18 142/14/18 141/13/18 137/1/18 
s 2
f 145/1/1 146/4/1 147/3/1 148/2/1 
s 4
f 149/5/2 150/8/2 151/7/2 152/6/2 
s 8
f 145/9/19 149/10/19 152/6/19 146/4/19 
s 16
f 146/4/20 152/6/20 151/7/20 147/3/20 
s 32
f 147/3/21 151/7/21 150/12/21 148/11/21 
s 64
f 148/2/22 150/14/22 149/13/22 145/1/22 
# 114 polygons

