# 3ds Max Wavefront OBJ Exporter v0.97b - (c)2007 guruware
# File Created: 24.04.2016 18:20:49

mtllib rock_6.mtl

#
# object rock_6
#

v  -0.0222 0.1593 -1.0341
v  -0.2057 0.2406 -0.8215
v  -0.3433 0.2048 -0.2213
v  0.0047 0.3316 0.7191
v  -0.3248 0.2638 0.3075
v  -0.1834 0.1919 0.8755
v  0.2950 0.0956 0.6383
v  0.2621 0.1356 -0.5542
v  -0.2732 -0.1149 -0.6667
v  -0.2409 -0.1742 0.3810
v  0.0305 -0.1534 1.0341
v  0.3433 -0.2697 0.4836
v  0.2207 -0.1845 -0.8850
v  0.0273 -0.3316 0.6141
# 14 vertices

vn 0.2506 0.9680 -0.0151
vn 0.5629 0.8073 0.1772
vn -0.0568 0.9951 -0.0809
vn 0.0017 0.9963 0.0854
vn -0.1355 0.9893 -0.0545
vn -0.4553 0.8621 0.2225
vn 0.6322 0.7748 0.0085
vn 0.2915 0.9525 -0.0877
vn -0.9867 -0.1622 -0.0064
vn -0.8947 -0.1960 -0.4014
vn -0.9383 -0.2409 0.2480
vn 0.9591 0.0069 0.2829
vn 0.8556 -0.1019 0.5075
vn 0.9867 0.0407 0.1575
vn 0.9765 0.0986 -0.1917
vn 0.9166 0.2238 -0.3313
vn -0.5788 -0.4125 -0.7035
vn -0.8765 -0.0422 -0.4795
vn -0.8865 -0.3811 0.2626
vn -0.7398 -0.6653 0.1000
vn 0.1057 -0.9834 0.1475
vn -0.4836 -0.8746 -0.0345
vn -0.2254 -0.9679 -0.1109
vn 0.2129 -0.9757 0.0522
vn 0.3228 -0.8721 0.3676
vn -0.1306 -0.9849 -0.1135
vn 0.4491 0.5034 0.7382
vn 0.2689 0.5347 0.8011
vn 0.4515 0.5028 0.7371
vn 0.5693 0.4689 0.6753
vn -0.3951 -0.5860 -0.7075
vn -0.7838 -0.4996 0.3689
vn -0.8713 -0.4492 0.1974
vn 0.8070 0.3706 -0.4597
# 34 vertex normals

vt 0.8923 0.8492 0.0000
vt 0.8510 0.8739 0.0000
vt 0.7423 0.8775 0.0000
vt 0.5895 0.7854 0.0000
vt 0.6495 0.8564 0.0000
vt 0.5557 0.8127 0.0000
vt 0.6103 0.7455 0.0000
vt 0.8185 0.7837 0.0000
vt 0.8164 0.5627 0.0000
vt 0.8732 0.6421 0.0000
vt 0.6942 0.5925 0.0000
vt 0.5847 0.6834 0.0000
vt 0.6462 0.6865 0.0000
vt 0.8844 0.7351 0.0000
vt 0.9339 0.6748 0.0000
vt 0.9397 0.6383 0.0000
vt 0.6319 0.5034 0.0000
vt 0.7311 0.5232 0.0000
vt 0.6409 0.6257 0.0000
vt 0.5697 0.6045 0.0000
vt 0.9189 0.5903 0.0000
vt 0.5443 0.7630 0.0000
vt 0.5230 0.7256 0.0000
vt 0.6464 0.6058 0.0000
vt 0.5860 0.5524 0.0000
vt 0.9019 0.8003 0.0000
# 26 texture coords

g rock_6
usemtl Material__47
s 1
f 1/1/1 2/2/2 3/3/3 4/4/4 
f 4/4/4 3/3/3 5/5/5 6/6/6 
f 4/4/4 7/7/7 8/8/8 
f 4/4/4 8/8/8 1/1/1 
s 2
f 3/9/9 9/10/10 10/11/11 
s 4
f 7/7/12 11/12/13 12/13/14 
f 8/8/15 12/13/14 13/14/16 
s 2
f 1/15/17 9/10/10 2/16/18 
f 6/17/19 5/18/20 3/9/9 10/11/11 
s 4
f 12/13/14 8/8/15 7/7/12 
s 1
f 14/19/21 10/11/22 9/10/23 
f 14/19/21 12/13/24 11/20/25 
f 14/19/21 13/14/26 12/13/24 
f 14/19/21 9/10/23 13/14/26 
s 2
f 2/21/18 9/10/10 3/9/9 
s 8
f 4/22/27 6/23/28 11/12/29 7/7/30 
s 2
f 1/15/17 13/14/31 9/10/10 
f 6/17/19 10/11/11 14/24/32 11/25/33 
s 4
f 8/8/15 13/14/16 1/26/34 
# 5 polygons - 14 triangles

