# 3ds Max Wavefront OBJ Exporter v0.97b - (c)2007 guruware
# File Created: 24.04.2016 18:21:59

mtllib rock_8.mtl

#
# object rock_7
#

v  0.0050 -0.2181 0.6192
v  -0.1802 -0.2181 0.6192
v  -0.2555 -0.2181 -0.6192
v  0.2783 -0.1942 -0.6192
v  0.2982 -0.2132 0.0595
v  0.1533 0.2181 0.6192
v  0.2077 0.2181 0.0181
v  0.0322 0.2181 -0.6192
v  -0.1107 0.2181 -0.6192
v  -0.2852 0.2181 -0.0617
v  -0.0076 0.2181 0.6192
v  0.2985 -0.0426 -0.6192
v  0.2741 0.0080 0.6192
v  -0.2985 -0.0569 0.6192
# 14 vertices

vn 0.0047 -1.0000 -0.0054
vn 0.0000 -1.0000 -0.0000
vn 0.0404 -0.9991 -0.0085
vn 0.0325 -0.9994 -0.0121
vn -0.0348 -0.9990 -0.0270
vn -0.0000 1.0000 -0.0000
vn 0.0000 1.0000 -0.0000
vn -0.0000 1.0000 0.0000
vn 0.9936 -0.0045 0.1130
vn 0.9753 0.2147 0.0511
vn 0.9595 0.2814 0.0118
vn 0.9702 0.2425 0.0011
vn 0.9226 0.3818 -0.0552
vn 0.8559 0.4925 -0.1577
vn 0.0000 0.0000 -1.0000
vn -0.8877 -0.4375 -0.1433
vn -0.7813 -0.5734 -0.2468
vn -0.9959 -0.0729 -0.0532
vn -0.9811 0.1237 -0.1491
vn -0.9098 0.3020 -0.2848
vn 0.0000 0.0000 1.0000
vn 0.6869 0.7017 -0.1891
vn -0.6616 0.6997 0.2697
vn 0.6107 -0.7271 0.3136
# 24 vertex normals

vt 0.8602 0.1879 0.0000
vt 0.8611 0.2189 0.0000
vt 0.6539 0.2376 0.0000
vt 0.6513 0.1480 0.0000
vt 0.7650 0.1414 0.0000
vt 0.8521 0.3959 0.0000
vt 0.7513 0.3866 0.0000
vt 0.6516 0.3382 0.0000
vt 0.6559 0.3146 0.0000
vt 0.7532 0.3029 0.0000
vt 0.8570 0.3694 0.0000
vt 0.6482 0.1226 0.0000
vt 0.7513 0.0685 0.0000
vt 0.8519 0.0573 0.0000
vt 0.8561 0.0977 0.0000
vt 0.5812 0.2122 0.0000
vt 0.6259 0.1443 0.0000
vt 0.5815 0.1883 0.0000
vt 0.8654 0.2522 0.0000
vt 0.8977 0.2431 0.0000
vt 0.9222 0.2622 0.0000
vt 0.9344 0.3198 0.0000
vt 0.8968 0.3351 0.0000
vt 0.8755 0.3185 0.0000
vt 0.6408 0.0606 0.0000
vt 0.8701 0.1550 0.0000
# 26 texture coords

g rock_7
usemtl Material__47
s 1
f 1/1/1 2/2/2 3/3/3 4/4/4 
f 5/5/5 1/1/1 4/4/4 
f 6/6/6 7/7/6 8/8/7 9/9/7 
f 9/9/7 10/10/8 11/11/8 6/6/6 
s 2
f 4/4/9 12/12/10 7/13/11 5/5/12 
f 5/5/12 7/13/11 6/14/13 13/15/14 
s 4
f 4/4/15 3/3/15 9/16/15 12/17/15 
f 9/16/15 8/18/15 12/17/15 
s 2
f 2/2/16 14/19/17 10/10/18 3/3/19 
f 3/3/19 10/10/18 9/9/20 
s 4
f 2/20/21 1/21/21 13/22/21 6/23/21 
f 6/23/21 11/24/21 14/19/21 2/20/21 
s 2
f 12/12/10 8/25/22 7/13/11 
s 8
f 14/19/23 11/24/23 10/10/23 
f 5/5/24 13/15/24 1/26/24 
# 9 polygons - 6 triangles

