# 3ds Max Wavefront OBJ Exporter v0.97b - (c)2007 guruware
# File Created: 15.03.2016 11:22:57

mtllib Tree_Pine.mtl

#
# object tree4_00
#

v  0.1050 0.4273 -0.0669
v  0.0854 0.0093 -0.1075
v  0.0325 0.4290 -0.1246
v  0.1365 0.0093 -0.0146
v  -0.0061 0.0093 -0.1425
v  -0.0391 0.4288 -0.1180
v  -0.1095 0.0093 -0.0860
v  -0.1164 0.4268 -0.0257
v  -0.1391 0.0093 0.0159
v  -0.1054 0.4242 0.0730
v  -0.0880 0.0093 0.1089
v  -0.0251 0.4225 0.1266
v  0.0139 0.0093 0.1385
v  0.0699 0.4227 0.1079
v  0.1069 0.0093 0.0873
v  0.1238 0.4247 0.0277
v  0.1211 0.9369 -0.0652
v  0.0497 0.9469 -0.1026
v  -0.0206 0.9444 -0.0837
v  -0.0673 0.9308 -0.0097
v  -0.0443 0.9141 0.0662
v  0.0272 0.9041 0.1036
v  0.1052 0.9066 0.0806
v  0.1441 0.9202 0.0107
v  0.1029 1.4420 -0.0774
v  0.0279 1.4485 -0.0986
v  -0.0409 1.4414 -0.0620
v  -0.0631 1.4248 0.0109
v  -0.0257 1.4084 0.0774
v  0.0494 1.4019 0.0986
v  0.1181 1.4091 0.0620
v  0.1403 1.4257 -0.0109
v  0.0568 1.9560 -0.0846
v  -0.0183 1.9569 -0.0958
v  -0.0795 1.9556 -0.0509
v  -0.0908 1.9530 0.0238
v  -0.0458 1.9504 0.0846
v  0.0293 1.9495 0.0958
v  0.0904 1.9508 0.0509
v  0.1018 1.9535 -0.0238
v  0.0348 2.7739 -0.0603
v  -0.0180 2.7739 -0.0672
v  -0.0603 2.7739 -0.0348
v  -0.0672 2.7739 0.0180
v  -0.0348 2.7739 0.0603
v  0.0180 2.7739 0.0672
v  0.0603 2.7739 0.0348
v  0.0672 2.7739 -0.0180
# 48 vertices

vn 0.7728 0.0253 -0.6342
vn 0.1717 0.0263 -0.9848
vn -0.6355 0.0479 -0.7706
vn -0.9947 0.0450 -0.0920
vn -0.7440 0.0265 0.6676
vn -0.0550 0.0234 0.9982
vn 0.6661 0.0227 0.7455
vn 0.9981 0.0249 0.0555
vn 0.5512 0.0014 -0.8344
vn -0.1777 0.0597 -0.9823
vn -0.8027 0.0824 -0.5907
vn -0.9738 0.1062 0.2010
vn -0.5077 0.0856 0.8573
vn 0.2339 0.0293 0.9718
vn 0.8514 -0.0248 0.5239
vn 0.9696 -0.0389 -0.2417
vn 0.3721 0.0072 -0.9282
vn -0.3712 0.0083 -0.9285
vn -0.9056 0.0034 -0.4241
vn -0.9199 0.0086 0.3921
vn -0.3704 0.0095 0.9288
vn 0.3754 0.0088 0.9268
vn 0.9188 0.0075 0.3946
vn 0.9212 0.0070 -0.3891
vn 0.2116 0.0149 -0.9772
vn -0.5296 -0.0324 -0.8476
vn -0.9720 -0.0566 -0.2283
vn -0.8416 -0.0477 0.5380
vn -0.2114 -0.0118 0.9773
vn 0.5295 0.0340 0.8476
vn 0.9712 0.0653 0.2292
vn 0.8418 0.0581 -0.5367
vn 0.1408 0.0339 -0.9895
vn -0.5989 0.0290 -0.8003
vn -0.9896 0.0267 -0.1415
vn -0.7986 0.0278 0.6013
vn -0.1404 0.0317 0.9896
vn 0.5983 0.0368 0.8004
vn 0.9889 0.0398 0.1428
vn 0.7991 0.0386 -0.6000
# 40 vertex normals

vt 0.7386 0.0866 0.0000
vt 0.7504 0.0030 0.0000
vt 0.7583 0.0872 0.0000
vt 0.7297 0.0026 0.0000
vt 0.7694 0.0033 0.0000
vt 0.7734 0.0874 0.0000
vt 0.7923 0.0040 0.0000
vt 0.7975 0.0880 0.0000
vt 0.8130 0.0053 0.0000
vt 0.8165 0.0890 0.0000
vt 0.8340 0.0073 0.0000
vt 0.8348 0.0908 0.0000
vt 0.8553 0.0102 0.0000
vt 0.8538 0.0937 0.0000
vt 0.6975 0.0851 0.0000
vt 0.7086 0.0022 0.0000
vt 0.7179 0.0858 0.0000
vt 0.6873 0.0020 0.0000
vt 0.7362 0.1883 0.0000
vt 0.7533 0.1906 0.0000
vt 0.7704 0.1906 0.0000
vt 0.7916 0.1891 0.0000
vt 0.8112 0.1875 0.0000
vt 0.8298 0.1875 0.0000
vt 0.8467 0.1904 0.0000
vt 0.7046 0.1821 0.0000
vt 0.7206 0.1849 0.0000
vt 0.7386 0.2892 0.0000
vt 0.7539 0.2909 0.0000
vt 0.7703 0.2901 0.0000
vt 0.7873 0.2878 0.0000
vt 0.8047 0.2861 0.0000
vt 0.8216 0.2867 0.0000
vt 0.8369 0.2902 0.0000
vt 0.7100 0.2827 0.0000
vt 0.7244 0.2858 0.0000
vt 0.7429 0.3921 0.0000
vt 0.7568 0.3927 0.0000
vt 0.7693 0.3931 0.0000
vt 0.7813 0.3933 0.0000
vt 0.7937 0.3938 0.0000
vt 0.8071 0.3950 0.0000
vt 0.8211 0.3971 0.0000
vt 0.7134 0.3912 0.0000
vt 0.7281 0.3914 0.0000
vt 0.7407 0.5556 0.0000
vt 0.7511 0.5559 0.0000
vt 0.7609 0.5564 0.0000
vt 0.7701 0.5570 0.0000
vt 0.7793 0.5578 0.0000
vt 0.7890 0.5588 0.0000
vt 0.7994 0.5601 0.0000
vt 0.7191 0.5557 0.0000
vt 0.7298 0.5555 0.0000
# 54 texture coords

g tree4_00
usemtl wire_166229229
s off
f 1/1/1 2/2/1 3/3/1 
f 2/2/1 1/1/1 4/4/1 
f 3/3/2 5/5/2 6/6/2 
f 5/5/2 3/3/2 2/2/2 
f 6/6/3 7/7/3 8/8/3 
f 7/7/3 6/6/3 5/5/3 
f 8/8/4 9/9/4 10/10/4 
f 9/9/4 8/8/4 7/7/4 
f 10/10/5 11/11/5 12/12/5 
f 11/11/5 10/10/5 9/9/5 
f 12/12/6 13/13/6 14/14/6 
f 13/13/6 12/12/6 11/11/6 
f 14/15/7 15/16/7 16/17/7 
f 15/16/7 14/15/7 13/18/7 
f 16/17/8 4/4/8 1/1/8 
f 4/4/8 16/17/8 15/16/8 
f 17/19/9 3/3/9 18/20/9 
f 3/3/9 17/19/9 1/1/9 
f 18/20/10 3/3/10 19/21/10 
f 3/3/10 6/6/10 19/21/10 
f 19/21/11 6/6/11 20/22/11 
f 20/22/11 6/6/11 8/8/11 
f 20/22/12 8/8/12 21/23/12 
f 21/23/12 8/8/12 10/10/12 
f 21/23/13 12/12/13 22/24/13 
f 12/12/13 21/23/13 10/10/13 
f 22/24/14 14/14/14 23/25/14 
f 14/14/14 22/24/14 12/12/14 
f 23/26/15 16/17/15 24/27/15 
f 16/17/15 23/26/15 14/15/15 
f 24/27/16 1/1/16 17/19/16 
f 1/1/16 24/27/16 16/17/16 
f 25/28/17 18/20/17 26/29/17 
f 18/20/17 25/28/17 17/19/17 
f 26/29/18 18/20/18 27/30/18 
f 27/30/18 18/20/18 19/21/18 
f 27/30/19 19/21/19 28/31/19 
f 28/31/19 19/21/19 20/22/19 
f 28/31/20 20/22/20 29/32/20 
f 29/32/20 20/22/20 21/23/20 
f 29/32/21 21/23/21 30/33/21 
f 30/33/21 21/23/21 22/24/21 
f 30/33/22 23/25/22 31/34/22 
f 23/25/22 30/33/22 22/24/22 
f 31/35/23 24/27/23 32/36/23 
f 24/27/23 31/35/23 23/26/23 
f 32/36/24 17/19/24 25/28/24 
f 17/19/24 32/36/24 24/27/24 
f 33/37/25 26/29/25 34/38/25 
f 26/29/25 33/37/25 25/28/25 
f 34/38/26 27/30/26 35/39/26 
f 27/30/26 34/38/26 26/29/26 
f 35/39/27 27/30/27 36/40/27 
f 36/40/27 27/30/27 28/31/27 
f 36/40/28 28/31/28 37/41/28 
f 37/41/28 28/31/28 29/32/28 
f 37/41/29 29/32/29 38/42/29 
f 29/32/29 30/33/29 38/42/29 
f 38/42/30 31/34/30 39/43/30 
f 31/34/30 38/42/30 30/33/30 
f 39/44/31 32/36/31 40/45/31 
f 32/36/31 39/44/31 31/35/31 
f 40/45/32 25/28/32 33/37/32 
f 25/28/32 40/45/32 32/36/32 
f 41/46/33 34/38/33 42/47/33 
f 34/38/33 41/46/33 33/37/33 
f 42/47/34 34/38/34 43/48/34 
f 34/38/34 35/39/34 43/48/34 
f 43/48/35 35/39/35 44/49/35 
f 44/49/35 35/39/35 36/40/35 
f 44/49/36 36/40/36 45/50/36 
f 36/40/36 37/41/36 45/50/36 
f 45/50/37 37/41/37 46/51/37 
f 46/51/37 37/41/37 38/42/37 
f 46/51/38 38/42/38 47/52/38 
f 38/42/38 39/43/38 47/52/38 
f 47/53/39 40/45/39 48/54/39 
f 40/45/39 47/53/39 39/44/39 
f 48/54/40 33/37/40 41/46/40 
f 33/37/40 48/54/40 40/45/40 
# 0 polygons - 80 triangles

#
# object Object003
#

v  -0.1385 5.6002 0.1358
v  -0.2172 4.1205 0.4073
v  0.1492 5.0117 0.2860
v  0.5588 4.0518 0.1335
v  0.3567 4.2972 -0.5093
v  -0.3255 3.6044 -0.2092
v  -0.2968 4.4706 -0.3859
v  0.3088 3.6044 -0.3491
v  0.5023 3.6044 -0.1610
v  0.5755 4.1551 -0.2056
v  0.3788 3.6044 0.2362
v  0.0797 2.7483 0.5307
v  -0.5268 2.8344 0.4012
v  -0.2986 2.3837 0.2808
v  0.2407 2.4714 0.1976
v  -0.5666 4.3408 0.0773
v  -0.4490 3.6044 0.1879
v  0.0223 6.1330 0.0173
v  0.1799 4.9051 -0.1967
v  0.5714 2.9248 -0.3665
v  -0.1207 2.5822 -0.1977
v  -0.2637 3.0109 -0.4128
v  0.4437 2.4561 -0.0324
v  -0.4416 2.4494 0.0657
v  -0.6451 2.9248 0.0762
v  -0.2555 3.6044 0.3761
v  0.6288 2.7935 0.1469
v  0.3049 4.9078 0.0677
v  0.0223 2.6435 0.0173
# 29 vertices

vn -0.1290 0.1856 0.9741
vn 0.3321 -0.0082 0.9432
vn -0.2299 -0.1872 -0.9550
vn -0.2108 -0.2063 -0.9555
vn 0.9913 -0.1311 0.0091
vn 0.9105 -0.3013 0.2832
vn -0.2436 -0.3636 0.8991
vn 0.2185 -0.6958 0.6842
vn -0.8520 -0.0774 -0.5178
vn -0.9369 -0.1934 -0.2914
vn -0.9401 0.3134 0.1339
vn -0.6161 0.1738 0.7683
vn -0.0506 0.4449 -0.8941
vn 0.0035 -0.4475 -0.8943
vn 0.1005 -0.5955 -0.7970
vn -0.7269 -0.2973 -0.6191
vn -0.4069 -0.5144 -0.7549
vn 0.3379 0.0792 0.9378
vn 0.2148 -0.0749 0.9738
vn 0.5186 -0.5173 0.6808
vn 0.5756 -0.6069 0.5480
vn 0.8131 0.4334 -0.3886
vn 0.8149 0.4343 -0.3839
vn -0.9083 0.3085 -0.2825
vn -0.7930 0.1222 -0.5968
vn 0.2084 0.2523 0.9449
vn -0.1942 0.1003 0.9758
vn -0.8631 0.2693 -0.4271
vn 0.7490 -0.1980 -0.6323
vn 0.6893 -0.1491 -0.7089
vn 0.9000 -0.3875 -0.1997
vn 0.8874 0.1874 -0.4212
vn 0.2044 0.1935 -0.9596
vn 0.8393 0.2845 0.4633
vn 0.9470 0.2913 0.1355
vn 0.0092 -0.7177 -0.6963
vn -0.8955 -0.3880 0.2180
vn -0.7850 -0.4965 0.3704
vn -0.8599 0.3160 0.4009
vn -0.6947 0.0830 0.7145
vn -0.6868 -0.0006 0.7268
vn -0.6971 0.0083 0.7169
vn 0.6700 0.2765 -0.6890
vn 0.9891 0.1244 -0.0788
vn 0.9238 0.2532 0.2873
vn 0.5663 0.0843 0.8199
vn -0.2056 0.2983 -0.9321
vn 0.0603 0.0488 -0.9970
vn -0.0406 0.2285 0.9727
vn -0.4165 -0.8543 -0.3109
vn -0.3180 -0.8348 0.4494
vn 0.3865 -0.9223 0.0060
vn 0.8405 0.2143 0.4976
vn 0.3025 -0.8367 -0.4565
# 54 vertex normals

vt 0.2521 0.9040 0.0000
vt 0.0980 0.6116 0.0000
vt 0.2522 0.7674 0.0000
vt 0.2530 0.5488 0.0000
vt 0.3569 0.5960 0.0000
vt 0.5010 0.4654 0.0000
vt 0.4508 0.6533 0.0000
vt 0.3704 0.4591 0.0000
vt 0.3060 0.4632 0.0000
vt 0.3119 0.5651 0.0000
vt 0.2088 0.4715 0.0000
vt 0.1269 0.3005 0.0000
vt 0.0020 0.3201 0.0000
vt 0.0604 0.2162 0.0000
vt 0.1898 0.2319 0.0000
vt 0.5235 0.6400 0.0000
vt 0.5773 0.4791 0.0000
vt 0.3386 0.9980 0.0000
vt 0.4534 0.9108 0.0000
vt 0.6106 0.6120 0.0000
vt 0.3456 0.7353 0.0000
vt 0.3328 0.3244 0.0000
vt 0.4348 0.2126 0.0000
vt 0.4755 0.3246 0.0000
vt 0.2764 0.2335 0.0000
vt 0.5558 0.2007 0.0000
vt 0.5700 0.3169 0.0000
vt 0.0702 0.4913 0.0000
vt 0.2506 0.3049 0.0000
vt 0.2886 0.7354 0.0000
vt 0.6699 0.1677 0.0000
vt 0.5889 0.0995 0.0000
vt 0.6423 0.0530 0.0000
vt 0.6278 0.3089 0.0000
vt 0.6212 0.1980 0.0000
vt 0.6312 0.4926 0.0000
vt 0.5999 0.0020 0.0000
vt 0.5316 0.1130 0.0000
# 38 texture coords

g Object003
usemtl wire_166229229
s off
f 49/55/41 50/56/41 51/57/41 
f 51/57/42 50/56/42 52/58/42 
f 53/59/43 54/60/43 55/61/43 
f 54/60/44 53/59/44 56/62/44 
f 52/58/45 57/63/45 58/64/45 
f 57/63/46 52/58/46 59/65/46 
f 60/66/47 61/67/47 62/68/47 
f 62/68/48 63/69/48 60/66/48 
f 55/61/49 54/60/49 64/70/49 
f 54/60/50 65/71/50 64/70/50 
f 66/72/51 64/70/51 49/73/51 
f 64/70/52 50/74/52 49/73/52 
f 53/59/53 55/61/53 67/75/53 
f 68/76/54 69/77/54 70/78/54 
f 69/77/55 68/76/55 71/79/55 
f 70/78/56 72/80/56 73/81/56 
f 72/80/57 70/78/57 69/77/57 
f 50/56/58 59/65/58 52/58/58 
f 59/65/59 50/56/59 74/82/59 
f 63/69/60 75/83/60 60/66/60 
f 75/83/61 63/69/61 71/79/61 
f 76/84/62 58/64/62 67/75/62 
f 67/75/63 58/64/63 53/59/63 
f 54/60/64 73/81/64 65/71/64 
f 73/81/65 54/60/65 70/78/65 
f 60/66/66 59/65/66 74/82/66 
f 74/82/67 61/67/67 60/66/67 
f 66/72/68 55/61/68 64/70/68 
f 58/64/69 56/62/69 53/59/69 
f 56/62/70 58/64/70 57/63/70 
f 68/76/71 75/83/71 71/79/71 
f 76/84/72 67/75/72 66/72/72 
f 67/75/73 55/61/73 66/72/73 
f 52/58/74 76/84/74 51/57/74 
f 76/84/75 52/58/75 58/64/75 
f 62/85/76 77/86/76 63/87/76 
f 73/81/77 72/80/77 61/88/77 
f 61/88/78 72/80/78 62/89/78 
f 74/90/79 73/81/79 61/88/79 
f 73/81/80 74/90/80 65/71/80 
f 64/70/81 65/71/81 50/74/81 
f 50/74/82 65/71/82 74/90/82 
f 68/76/83 56/62/83 57/63/83 
f 57/63/84 75/83/84 68/76/84 
f 59/65/85 75/83/85 57/63/85 
f 75/83/86 59/65/86 60/66/86 
f 56/62/87 70/78/87 54/60/87 
f 70/78/88 56/62/88 68/76/88 
f 49/55/89 51/57/89 66/72/89 
f 63/87/90 77/86/90 71/91/90 
f 71/91/91 77/86/91 69/92/91 
f 69/92/92 77/86/92 72/80/92 
f 76/84/93 66/72/93 51/57/93 
f 72/80/94 77/86/94 62/89/94 
# 0 polygons - 54 triangles

