# 3ds Max Wavefront OBJ Exporter v0.97b - (c)2007 guruware
# File Created: 24.04.2016 17:22:55

mtllib rock_7.mtl

#
# object rock_8
#

v  0.4565 0.1722 -0.1047
v  0.3308 0.2600 -0.7674
v  0.0401 0.2213 -1.2551
v  -0.3204 0.3583 0.0293
v  -0.1925 0.2850 -1.1771
v  -0.4219 0.2073 -0.6513
v  -0.2355 0.1033 1.0828
v  0.2905 0.1465 0.9386
v  0.2504 -0.1241 -1.0097
v  -0.2111 -0.1882 -0.8704
v  -0.4565 -0.1657 0.1297
v  -0.1584 -0.2914 1.2551
v  0.4310 -0.1993 0.7813
v  -0.2698 -0.3583 0.1092
# 14 vertices

vn 0.1930 0.9810 0.0213
vn -0.4529 0.8686 0.2010
vn 0.1644 0.9864 -0.0070
vn 0.1303 0.9909 0.0343
vn 0.1399 0.9891 -0.0452
vn -0.5308 0.8406 -0.1074
vn -0.0150 0.9716 0.2363
vn 0.0826 0.9814 0.1730
vn -0.1431 -0.6295 -0.7637
vn -0.9742 0.0015 0.2255
vn -0.9646 0.2247 0.1382
vn -0.9657 -0.0809 0.2468
vn 0.6326 -0.0928 0.7689
vn 0.9502 -0.2867 -0.1225
vn 0.9284 0.0085 -0.3716
vn 0.9531 -0.0087 -0.3024
vn -0.8512 -0.3989 -0.3411
vn -0.3400 -0.8975 -0.2809
vn -0.6613 -0.5421 -0.5185
vn -0.8806 -0.2444 -0.4059
vn 0.2068 0.4249 0.8813
vn 0.2355 -0.9703 -0.0549
vn 0.0864 -0.9824 -0.1654
vn 0.1656 -0.9779 -0.1277
vn -0.7569 -0.6479 -0.0859
vn -0.7079 -0.6978 0.1096
vn -0.7182 -0.6808 -0.1440
vn 0.2188 -0.9758 0.0027
vn 0.1850 -0.9820 0.0394
vn 0.8442 0.1483 -0.5151
vn -0.9567 0.2695 0.1101
vn -0.9604 0.2655 0.0842
vn 0.9402 -0.3230 -0.1083
vn 0.9379 0.3096 0.1569
# 34 vertex normals

vt 0.3463 0.3479 0.0000
vt 0.4585 0.3598 0.0000
vt 0.5441 0.4016 0.0000
vt 0.3345 0.4795 0.0000
vt 0.5342 0.4415 0.0000
vt 0.4496 0.4871 0.0000
vt 0.1574 0.4799 0.0000
vt 0.1724 0.3692 0.0000
vt 0.5553 0.2554 0.0000
vt 0.4976 0.2936 0.0000
vt 0.4838 0.2145 0.0000
vt 0.1938 0.0573 0.0000
vt 0.3282 0.1538 0.0000
vt 0.1385 0.1520 0.0000
vt 0.1110 0.2894 0.0000
vt 0.1927 0.2829 0.0000
vt 0.5502 0.1765 0.0000
vt 0.5649 0.2153 0.0000
vt 0.0603 0.1882 0.0000
vt 0.3208 0.1853 0.0000
vt 0.5637 0.3048 0.0000
vt 0.3738 0.0772 0.0000
vt 0.4722 0.1397 0.0000
# 23 texture coords

g rock_8
usemtl Material__47
s 1
f 1/1/1 2/2/2 3/3/3 4/4/4 
f 4/4/4 3/3/3 5/5/5 6/6/6 
f 4/4/4 7/7/7 8/8/8 
f 4/4/4 8/8/8 1/1/1 
s 2
f 3/9/9 9/10/9 10/11/9 
f 7/12/10 11/13/11 12/14/12 
s 4
f 8/15/13 12/14/13 13/16/13 
s 8
f 1/1/14 9/10/15 2/2/16 
s 16
f 6/17/17 5/18/18 3/9/19 10/11/20 
s 8
f 12/14/21 8/15/21 7/19/21 
s 1
f 14/20/22 10/11/23 9/10/24 
s 16
f 14/20/25 12/14/26 11/13/27 
s 1
f 14/20/22 13/16/28 12/14/29 
f 14/20/22 9/10/24 13/16/28 
s 8
f 2/21/16 9/10/15 3/9/30 
s 2
f 4/22/31 6/23/32 11/13/11 7/12/10 
s 8
f 1/1/14 13/16/33 9/10/15 
s 16
f 6/23/17 10/11/20 14/20/25 11/13/27 
s 2
f 8/8/34 13/16/34 1/1/34 
# 5 polygons - 14 triangles

