# 3ds Max Wavefront OBJ Exporter v0.97b - (c)2007 guruware
# File Created: 23.05.2016 22:51:06

mtllib gema_head.mtl

#
# object gema_head
#

v  -0.2202 5.0372 1.2411
v  0.0000 4.9234 1.2859
v  0.0001 4.9391 1.3978
v  0.0650 4.9598 1.2823
v  0.2378 5.0497 1.3505
v  -0.0000 4.9550 1.4043
v  -0.1875 5.2848 1.3212
v  -0.2634 5.0929 1.3498
v  0.2635 5.0919 1.3499
v  0.1842 5.2918 1.3199
v  0.2557 5.2301 1.2041
v  0.0001 5.3397 1.1964
v  -0.2524 5.2369 1.2027
v  -0.2397 5.0507 1.3503
v  -0.2516 5.0927 1.2285
v  0.2529 5.0979 1.2274
v  0.0001 5.4098 1.2769
v  -0.0000 5.2915 1.3392
v  0.2233 5.0391 1.2405
# 19 vertices

vn -0.4751 -0.8714 0.1223
vn 0.4342 -0.8970 0.0831
vn -0.1043 0.1867 0.9769
vn 0.1036 0.1880 0.9767
vn 0.3891 0.8908 -0.2346
vn -0.3759 0.9121 -0.1635
vn -0.8653 0.3892 0.3159
vn -0.2705 -0.1401 0.9525
vn 0.8618 0.3905 0.3236
vn 0.2774 -0.1580 0.9477
vn -0.9951 -0.0226 -0.0967
vn 0.9955 -0.0364 -0.0880
vn -0.5496 0.6298 -0.5489
vn -0.1003 0.1890 0.9768
vn 0.5371 0.6359 -0.5542
vn 0.1018 0.1890 0.9767
vn -0.1009 0.4635 0.8803
vn 0.0913 0.4638 0.8812
vn 0.4532 -0.8910 0.0268
vn 0.8517 -0.5204 -0.0618
vn -0.4275 -0.9033 0.0353
vn -0.8688 -0.4881 -0.0835
vn -0.8581 -0.5054 -0.0905
vn 0.8796 -0.4654 -0.0986
vn -0.3387 -0.3571 0.8705
vn 0.3382 -0.3534 0.8722
vn 0.4903 -0.8632 0.1207
# 27 vertex normals

vt 0.8767 0.6639 0.0000
vt 0.8453 0.6829 0.0000
vt 0.8358 0.6693 0.0000
vt 0.8193 0.6792 0.0000
vt 0.7999 0.6561 0.0000
vt 0.8359 0.6688 0.0000
vt 0.8610 0.6190 0.0000
vt 0.8695 0.6452 0.0000
vt 0.7994 0.6490 0.0000
vt 0.8067 0.6200 0.0000
vt 0.7870 0.6113 0.0000
vt 0.8213 0.5903 0.0000
vt 0.8452 0.5898 0.0000
vt 0.8793 0.6097 0.0000
vt 0.8827 0.6203 0.0000
vt 0.8676 0.6498 0.0000
vt 0.7831 0.6267 0.0000
vt 0.8852 0.6429 0.0000
vt 0.7832 0.6481 0.0000
vt 0.8332 0.6004 0.0000
vt 0.8338 0.6195 0.0000
vt 0.7940 0.6711 0.0000
vt 0.7853 0.6601 0.0000
vt 0.8838 0.6530 0.0000
vt 0.8292 0.6842 0.0000
# 25 texture coords

g gema_head
usemtl Material__47
s off
f 1/1/1 2/2/1 3/3/1 
f 4/4/2 5/5/2 3/3/2 
f 6/6/3 7/7/3 8/8/3 
f 6/6/4 9/9/4 10/10/4 
f 11/11/5 12/12/5 10/10/5 
f 12/13/6 13/14/6 7/7/6 
f 13/15/7 8/8/7 7/7/7 
f 14/16/8 6/6/8 8/8/8 
f 11/17/9 10/10/9 9/9/9 
f 5/5/10 9/9/10 6/6/10 
f 15/18/11 8/8/11 13/15/11 
f 16/19/12 11/17/12 9/9/12 
f 17/20/13 12/13/13 7/7/13 
f 6/6/14 18/21/14 7/7/14 
f 12/12/15 17/20/15 10/10/15 
f 6/6/16 10/10/16 18/21/16 
f 17/20/17 7/7/17 18/21/17 
f 17/20/18 18/21/18 10/10/18 
f 4/4/19 19/22/19 5/5/19 
f 19/23/20 9/9/20 5/5/20 
f 1/1/21 3/3/21 14/16/21 
f 15/18/22 14/16/22 8/8/22 
f 15/18/23 1/24/23 14/16/23 
f 19/23/24 16/19/24 9/9/24 
f 3/3/25 6/6/25 14/16/25 
f 3/3/26 5/5/26 6/6/26 
f 2/25/27 4/4/27 3/3/27 
# 0 polygons - 27 triangles

