# 3ds Max Wavefront OBJ Exporter v0.97b - (c)2007 guruware
# File Created: 23.05.2016 22:51:37

mtllib gema_body.mtl

#
# object gema_pecho
#

v  0.2204 2.7447 1.3115
v  0.0001 2.8662 1.3253
v  0.0001 2.8800 1.4374
v  -0.0648 2.8301 1.3312
v  -0.2376 2.7609 1.4203
v  0.0002 2.8664 1.4478
v  0.1876 2.5263 1.4529
v  0.2635 2.7190 1.4309
v  -0.2634 2.7200 1.4308
v  -0.1841 2.5192 1.4535
v  -0.2555 2.5488 1.3256
v  0.0001 2.4409 1.3466
v  0.2525 2.5419 1.3260
v  0.2398 2.7600 1.4204
v  0.2517 2.6878 1.3137
v  -0.2528 2.6826 1.3140
v  0.0001 2.3940 1.4424
v  0.0002 2.5245 1.4720
v  -0.2231 2.7428 1.3114
# 19 vertices

vn 0.4751 0.8733 -0.1074
vn -0.4342 0.8879 -0.1519
vn 0.1043 0.0724 0.9919
vn -0.1036 0.0712 0.9921
vn -0.3891 -0.9212 0.0040
vn 0.3759 -0.9234 0.0782
vn 0.8653 -0.2942 0.4059
vn 0.2705 0.3819 0.8837
vn -0.8618 -0.2934 0.4137
vn -0.2774 0.3979 0.8745
vn 0.9951 -0.0032 -0.0993
vn -0.9955 0.0124 -0.0944
vn 0.5496 -0.7504 -0.3671
vn 0.1003 0.0703 0.9925
vn -0.5371 -0.7577 -0.3707
vn -0.1018 0.0703 0.9923
vn 0.1009 -0.2199 0.9703
vn -0.0913 -0.2200 0.9712
vn -0.4532 0.8676 -0.2047
vn -0.8517 0.4867 -0.1944
vn 0.4275 0.8817 -0.1997
vn 0.8688 0.4498 -0.2070
vn 0.8581 0.4648 -0.2183
vn -0.8796 0.4240 -0.2157
vn 0.3387 0.5702 0.7484
vn -0.3382 0.5671 0.7510
vn -0.4903 0.8650 -0.1068
# 27 vertex normals

vt 0.9826 0.6639 0.0000
vt 0.9512 0.6829 0.0000
vt 0.9417 0.6693 0.0000
vt 0.9252 0.6792 0.0000
vt 0.9058 0.6561 0.0000
vt 0.9418 0.6688 0.0000
vt 0.9669 0.6190 0.0000
vt 0.9754 0.6452 0.0000
vt 0.9052 0.6490 0.0000
vt 0.9126 0.6200 0.0000
vt 0.8929 0.6113 0.0000
vt 0.9272 0.5903 0.0000
vt 0.9511 0.5898 0.0000
vt 0.9852 0.6097 0.0000
vt 0.9886 0.6203 0.0000
vt 0.9735 0.6498 0.0000
vt 0.8890 0.6267 0.0000
vt 0.9911 0.6429 0.0000
vt 0.8891 0.6481 0.0000
vt 0.9391 0.6004 0.0000
vt 0.9397 0.6195 0.0000
vt 0.8999 0.6711 0.0000
vt 0.8912 0.6601 0.0000
vt 0.9897 0.6530 0.0000
vt 0.9351 0.6842 0.0000
# 25 texture coords

g gema_pecho
usemtl Material__47
s off
f 1/1/1 2/2/1 3/3/1 
f 4/4/2 5/5/2 3/3/2 
f 6/6/3 7/7/3 8/8/3 
f 6/6/4 9/9/4 10/10/4 
f 11/11/5 12/12/5 10/10/5 
f 12/13/6 13/14/6 7/7/6 
f 13/15/7 8/8/7 7/7/7 
f 14/16/8 6/6/8 8/8/8 
f 11/17/9 10/10/9 9/9/9 
f 5/5/10 9/9/10 6/6/10 
f 15/18/11 8/8/11 13/15/11 
f 16/19/12 11/17/12 9/9/12 
f 17/20/13 12/13/13 7/7/13 
f 6/6/14 18/21/14 7/7/14 
f 12/12/15 17/20/15 10/10/15 
f 6/6/16 10/10/16 18/21/16 
f 17/20/17 7/7/17 18/21/17 
f 17/20/18 18/21/18 10/10/18 
f 4/4/19 19/22/19 5/5/19 
f 19/23/20 9/9/20 5/5/20 
f 1/1/21 3/3/21 14/16/21 
f 15/18/22 14/16/22 8/8/22 
f 15/18/23 1/24/23 14/16/23 
f 19/23/24 16/19/24 9/9/24 
f 3/3/25 6/6/25 14/16/25 
f 3/3/26 5/5/26 6/6/26 
f 2/25/27 4/4/27 3/3/27 
# 0 polygons - 27 triangles

