# 3ds Max Wavefront OBJ Exporter v0.97b - (c)2007 guruware
# File Created: 15.03.2016 11:24:55

mtllib Tree_Pine_2.mtl

#
# object tree5_00
#

v  -0.1389 0.4755 -0.0187
v  -0.1517 -0.0076 0.0319
v  -0.1175 0.4774 0.0862
v  -0.1279 -0.0076 -0.0884
v  -0.0967 -0.0076 0.1308
v  -0.0493 0.4771 0.1336
v  0.0368 -0.0076 0.1575
v  0.0877 0.4748 0.1093
v  0.1387 -0.0076 0.0893
v  0.1513 0.4718 0.0138
v  0.1625 -0.0076 -0.0310
v  0.1200 0.4698 -0.0934
v  0.0943 -0.0076 -0.1329
v  0.0220 0.4701 -0.1473
v  -0.0260 -0.0076 -0.1567
v  -0.0852 0.4724 -0.1164
v  -0.1519 1.0643 -0.0322
v  -0.1164 1.0759 0.0540
v  -0.0402 1.0729 0.0894
v  0.0561 1.0572 0.0586
v  0.0921 1.0379 -0.0256
v  0.0566 1.0263 -0.1118
v  -0.0295 1.0293 -0.1495
v  -0.1159 1.0450 -0.1165
v  -0.1449 1.6480 -0.0079
v  -0.0942 1.6555 0.0666
v  -0.0061 1.6473 0.0853
v  0.0677 1.6281 0.0373
v  0.0840 1.6092 -0.0494
v  0.0332 1.6017 -0.1239
v  -0.0548 1.6099 -0.1426
v  -0.1286 1.6291 -0.0945
v  -0.1093 2.2420 0.0328
v  -0.0512 2.2430 0.0985
v  0.0363 2.2415 0.1042
v  0.1018 2.2384 0.0465
v  0.1071 2.2355 -0.0408
v  0.0489 2.2345 -0.1065
v  -0.0385 2.2359 -0.1122
v  -0.1041 2.2391 -0.0545
v  -0.0719 3.1871 0.0276
v  -0.0303 3.1871 0.0730
v  0.0313 3.1871 0.0757
v  0.0767 3.1871 0.0341
v  0.0793 3.1871 -0.0274
v  0.0377 3.1871 -0.0728
v  -0.0238 3.1871 -0.0755
v  -0.0692 3.1871 -0.0339
# 48 vertices

vn -0.9996 0.0253 -0.0110
vn -0.7646 0.0263 0.6440
vn -0.0085 0.0479 0.9988
vn 0.7029 0.0450 0.7099
vn 0.9991 0.0265 -0.0332
vn 0.6838 0.0234 -0.7293
vn -0.0311 0.0227 -0.9993
vn -0.7289 0.0249 -0.6841
vn -0.9586 0.0014 0.2848
vn -0.4953 0.0597 0.8667
vn 0.2352 0.0824 0.9685
vn 0.8752 0.1062 0.4719
vn 0.9399 0.0856 -0.3304
vn 0.4455 0.0293 -0.8948
vn -0.3154 -0.0248 -0.9486
vn -0.8981 -0.0389 -0.4381
vn -0.8816 0.0072 0.4719
vn -0.3125 0.0083 0.9499
vn 0.4211 0.0034 0.9070
vn 0.9567 0.0086 0.2909
vn 0.8808 0.0095 -0.4734
vn 0.3082 0.0088 -0.9513
vn -0.4502 0.0075 -0.8929
vn -0.9558 0.0070 -0.2941
vn -0.7902 0.0149 0.6126
vn -0.1391 -0.0324 0.9897
vn 0.5978 -0.0566 0.7996
vn 0.9905 -0.0477 0.1288
vn 0.7902 -0.0118 -0.6128
vn 0.1392 0.0340 -0.9897
vn -0.5966 0.0653 -0.7999
vn -0.9898 0.0581 -0.1300
vn -0.7439 0.0339 0.6674
vn -0.0556 0.0290 0.9980
vn 0.6671 0.0267 0.7445
vn 0.9982 0.0278 0.0527
vn 0.7436 0.0317 -0.6678
vn 0.0562 0.0368 -0.9977
vn -0.6658 0.0398 -0.7451
vn -0.9978 0.0386 -0.0540
# 40 vertex normals

vt 0.0535 0.0870 0.0000
vt 0.0654 0.0030 0.0000
vt 0.0733 0.0876 0.0000
vt 0.0445 0.0026 0.0000
vt 0.0844 0.0033 0.0000
vt 0.0885 0.0878 0.0000
vt 0.1075 0.0040 0.0000
vt 0.1127 0.0884 0.0000
vt 0.1282 0.0053 0.0000
vt 0.1318 0.0894 0.0000
vt 0.1493 0.0073 0.0000
vt 0.1502 0.0912 0.0000
vt 0.1707 0.0102 0.0000
vt 0.1692 0.0942 0.0000
vt 0.0123 0.0855 0.0000
vt 0.0234 0.0022 0.0000
vt 0.0327 0.0862 0.0000
vt 0.0020 0.0020 0.0000
vt 0.0511 0.1892 0.0000
vt 0.0682 0.1914 0.0000
vt 0.0854 0.1915 0.0000
vt 0.1067 0.1900 0.0000
vt 0.1264 0.1883 0.0000
vt 0.1451 0.1884 0.0000
vt 0.1621 0.1913 0.0000
vt 0.0194 0.1830 0.0000
vt 0.0355 0.1857 0.0000
vt 0.0535 0.2906 0.0000
vt 0.0689 0.2922 0.0000
vt 0.0853 0.2914 0.0000
vt 0.1024 0.2892 0.0000
vt 0.1199 0.2875 0.0000
vt 0.1369 0.2880 0.0000
vt 0.1523 0.2915 0.0000
vt 0.0247 0.2840 0.0000
vt 0.0392 0.2871 0.0000
vt 0.0579 0.3939 0.0000
vt 0.0718 0.3945 0.0000
vt 0.0844 0.3949 0.0000
vt 0.0964 0.3952 0.0000
vt 0.1089 0.3957 0.0000
vt 0.1223 0.3969 0.0000
vt 0.1364 0.3989 0.0000
vt 0.0282 0.3930 0.0000
vt 0.0430 0.3933 0.0000
vt 0.0556 0.5582 0.0000
vt 0.0661 0.5585 0.0000
vt 0.0759 0.5590 0.0000
vt 0.0852 0.5596 0.0000
vt 0.0944 0.5604 0.0000
vt 0.1041 0.5614 0.0000
vt 0.1146 0.5627 0.0000
vt 0.0339 0.5583 0.0000
vt 0.0447 0.5581 0.0000
# 54 texture coords

g tree5_00
usemtl Material__33
s off
f 1/1/1 2/2/1 3/3/1 
f 2/2/1 1/1/1 4/4/1 
f 3/3/2 5/5/2 6/6/2 
f 5/5/2 3/3/2 2/2/2 
f 6/6/3 7/7/3 8/8/3 
f 7/7/3 6/6/3 5/5/3 
f 8/8/4 9/9/4 10/10/4 
f 9/9/4 8/8/4 7/7/4 
f 10/10/5 11/11/5 12/12/5 
f 11/11/5 10/10/5 9/9/5 
f 12/12/6 13/13/6 14/14/6 
f 13/13/6 12/12/6 11/11/6 
f 14/15/7 15/16/7 16/17/7 
f 15/16/7 14/15/7 13/18/7 
f 16/17/8 4/4/8 1/1/8 
f 4/4/8 16/17/8 15/16/8 
f 17/19/9 3/3/9 18/20/9 
f 3/3/9 17/19/9 1/1/9 
f 18/20/10 3/3/10 19/21/10 
f 3/3/10 6/6/10 19/21/10 
f 19/21/11 6/6/11 20/22/11 
f 20/22/11 6/6/11 8/8/11 
f 20/22/12 8/8/12 21/23/12 
f 21/23/12 8/8/12 10/10/12 
f 21/23/13 12/12/13 22/24/13 
f 12/12/13 21/23/13 10/10/13 
f 22/24/14 14/14/14 23/25/14 
f 14/14/14 22/24/14 12/12/14 
f 23/26/15 16/17/15 24/27/15 
f 16/17/15 23/26/15 14/15/15 
f 24/27/16 1/1/16 17/19/16 
f 1/1/16 24/27/16 16/17/16 
f 25/28/17 18/20/17 26/29/17 
f 18/20/17 25/28/17 17/19/17 
f 26/29/18 18/20/18 27/30/18 
f 27/30/18 18/20/18 19/21/18 
f 27/30/19 19/21/19 28/31/19 
f 28/31/19 19/21/19 20/22/19 
f 28/31/20 20/22/20 29/32/20 
f 29/32/20 20/22/20 21/23/20 
f 29/32/21 21/23/21 30/33/21 
f 30/33/21 21/23/21 22/24/21 
f 30/33/22 23/25/22 31/34/22 
f 23/25/22 30/33/22 22/24/22 
f 31/35/23 24/27/23 32/36/23 
f 24/27/23 31/35/23 23/26/23 
f 32/36/24 17/19/24 25/28/24 
f 17/19/24 32/36/24 24/27/24 
f 33/37/25 26/29/25 34/38/25 
f 26/29/25 33/37/25 25/28/25 
f 34/38/26 27/30/26 35/39/26 
f 27/30/26 34/38/26 26/29/26 
f 35/39/27 27/30/27 36/40/27 
f 36/40/27 27/30/27 28/31/27 
f 36/40/28 28/31/28 37/41/28 
f 37/41/28 28/31/28 29/32/28 
f 37/41/29 29/32/29 38/42/29 
f 29/32/29 30/33/29 38/42/29 
f 38/42/30 31/34/30 39/43/30 
f 31/34/30 38/42/30 30/33/30 
f 39/44/31 32/36/31 40/45/31 
f 32/36/31 39/44/31 31/35/31 
f 40/45/32 25/28/32 33/37/32 
f 25/28/32 40/45/32 32/36/32 
f 41/46/33 34/38/33 42/47/33 
f 34/38/33 41/46/33 33/37/33 
f 42/47/34 34/38/34 43/48/34 
f 34/38/34 35/39/34 43/48/34 
f 43/48/35 35/39/35 44/49/35 
f 44/49/35 35/39/35 36/40/35 
f 44/49/36 36/40/36 45/50/36 
f 36/40/36 37/41/36 45/50/36 
f 45/50/37 37/41/37 46/51/37 
f 46/51/37 37/41/37 38/42/37 
f 46/51/38 38/42/38 47/52/38 
f 38/42/38 39/43/38 47/52/38 
f 47/53/39 40/45/39 48/54/39 
f 40/45/39 47/53/39 39/44/39 
f 48/54/40 33/37/40 41/46/40 
f 33/37/40 48/54/40 40/45/40 
# 0 polygons - 80 triangles

#
# object Object004
#

v  0.1803 5.4489 0.0888
v  0.0879 5.6638 -0.0086
v  0.0553 5.6508 0.0834
v  0.2037 5.4582 -0.0484
v  0.1797 5.4486 -0.1168
v  0.0273 5.6397 -0.0839
v  0.0765 5.4076 -0.2064
v  -0.0649 5.3710 -0.1623
v  -0.0401 5.6223 -0.0629
v  0.0074 5.3802 -0.2190
v  -0.1643 5.3119 -0.1156
v  -0.0929 5.5919 0.0411
v  -0.1877 5.3026 0.0217
v  -0.0605 5.3532 0.1796
v  -0.1637 5.3122 0.0900
v  -0.0380 5.6138 0.1001
v  0.1352 5.4309 0.1445
v  0.0086 5.3807 0.1922
v  -0.0179 6.0218 0.0306
v  0.2508 5.1377 0.0717
v  0.1095 5.4192 -0.0330
v  0.0883 5.4022 0.0931
v  0.2497 5.1499 -0.1107
v  0.2032 5.1374 -0.1934
v  0.0142 5.3876 -0.1163
v  0.0498 5.0837 -0.2855
v  -0.1225 5.0358 -0.1965
v  -0.0679 5.3648 -0.0739
v  -0.0423 5.0477 -0.2860
v  -0.2402 4.9584 -0.1137
v  -0.1124 5.3251 0.0722
v  -0.2391 4.9462 0.0687
v  -0.0392 5.0124 0.2435
v  -0.1926 4.9587 0.1514
v  -0.0282 5.3536 0.1358
v  0.0529 5.0484 0.2440
v  0.2053 5.1142 0.1538
v  -0.0181 5.7367 0.0416
v  0.1404 5.1293 0.0794
v  0.2854 4.7717 -0.2085
v  0.1239 5.1372 -0.0910
v  0.3496 4.7767 0.0257
v  0.1977 4.7456 -0.2968
v  -0.0260 5.0858 -0.1612
v  -0.0291 4.6638 -0.3558
v  -0.1162 5.0605 -0.0761
v  -0.1464 4.6161 -0.3208
v  -0.2184 4.6107 -0.1774
v  -0.2745 4.5228 0.2119
v  -0.1220 5.0248 0.1304
v  -0.3387 4.5178 -0.0223
v  -0.1869 4.5489 0.3002
v  0.0400 4.6307 0.3592
v  0.0070 5.0700 0.1796
v  0.3200 4.7551 0.1490
v  0.1573 4.6784 0.3242
v  -0.0239 5.5662 0.0127
v  0.2692 4.4390 -0.1368
v  0.0696 4.7620 -0.1070
v  0.1547 4.7425 0.0125
v  0.1204 4.4529 -0.2839
v  -0.0753 4.7258 -0.0973
v  0.0155 4.4386 -0.3133
v  -0.1837 4.3770 -0.2635
v  -0.2589 4.3356 -0.1892
v  -0.1076 4.6996 0.0038
v  -0.2514 4.3219 -0.0514
v  -0.0251 4.6540 0.1585
v  -0.2796 4.2331 0.1113
v  -0.1308 4.2191 0.2584
v  0.1733 4.2951 0.2380
v  0.0949 4.6868 0.1417
v  -0.0259 4.2335 0.2877
v  0.2485 4.3364 0.1637
v  0.2989 4.4120 -0.0332
v  -0.0179 5.1776 0.0306
v  0.2857 3.9713 -0.2631
v  0.0433 4.3943 -0.1578
v  0.1915 4.3688 -0.0354
v  0.0476 3.9895 -0.3988
v  -0.1367 4.3469 -0.0964
v  -0.0950 3.9708 -0.4003
v  -0.3302 3.8901 -0.2699
v  -0.3439 3.8180 0.0214
v  -0.1432 4.3125 0.0425
v  -0.4001 3.8360 -0.1504
v  0.0135 4.2529 0.2101
v  -0.3245 3.7017 0.2367
v  -0.0863 3.6834 0.3724
v  0.2915 3.7829 0.2435
v  0.1596 4.2958 0.1483
v  0.0563 3.7022 0.3740
v  0.3614 3.8370 0.1241
v  0.3584 3.9359 -0.1421
v  0.0445 4.8715 0.0644
v  0.2129 3.9586 -0.1136
v  0.3002 3.4286 -0.4263
v  -0.0213 3.9705 -0.2202
v  -0.0530 3.4211 -0.5187
v  -0.2254 3.8932 -0.0778
v  -0.2338 3.3818 -0.4709
v  -0.4811 3.2589 -0.2200
v  -0.3911 3.1790 0.1606
v  -0.1825 3.8551 0.1036
v  -0.5237 3.1872 -0.0410
v  -0.2797 3.0394 0.4337
v  0.0820 3.8015 0.2664
v  0.0734 3.0470 0.5261
v  0.2543 3.0862 0.4609
v  0.4777 3.2091 0.2274
v  0.2430 3.8694 0.1354
v  0.5203 3.2808 0.0484
v  0.4384 3.3962 -0.2950
v  0.0026 4.6153 0.0502
v  0.3506 3.0858 -0.2037
v  0.4160 2.7163 -0.6015
v  -0.0479 3.1060 -0.3852
v  -0.0799 2.7057 -0.7313
v  -0.3952 2.9745 -0.1429
v  -0.3339 2.6506 -0.6643
v  -0.6812 2.4780 -0.3118
v  -0.5548 2.3657 0.2227
v  -0.3222 2.9097 0.1658
v  -0.7411 2.3773 -0.0604
v  -0.3984 2.1697 0.6062
v  0.1279 2.8185 0.4429
v  0.0976 2.1803 0.7360
v  0.6989 2.4080 0.3165
v  0.3516 2.2354 0.6690
v  0.4019 2.9341 0.2200
v  0.7588 2.5087 0.0651
v  0.6102 2.6707 -0.4172
v  -0.0007 4.2129 0.0604
v  -0.0095 2.1443 -0.7207
v  -0.4903 2.1337 -0.5426
v  -0.2655 2.5340 -0.2773
v  0.1650 2.5138 -0.3573
v  -0.6598 2.0785 -0.3420
v  -0.4110 2.4025 0.1203
v  -0.7422 1.9060 0.1460
v  -0.1742 2.3377 0.3313
v  -0.6470 1.8053 0.3863
v  -0.3321 1.7937 0.5113
v  0.4968 1.6083 0.5576
v  0.3535 2.2465 0.3001
v  0.0161 1.5977 0.7358
v  0.6663 1.6634 0.3570
v  0.7487 1.8360 -0.1310
v  0.4500 2.3621 -0.0396
v  0.2552 2.0987 -0.6810
v  0.6535 1.9367 -0.3712
v  0.0287 3.6409 0.0606
# 152 vertices

vn 0.7916 0.4997 0.3516
vn 0.8717 0.4560 0.1793
vn 0.5555 0.5503 -0.6234
vn 0.4529 0.4894 -0.7452
vn -0.3628 0.3737 -0.8537
vn -0.5953 0.4066 -0.6930
vn -0.8594 0.3985 -0.3203
vn -0.9384 0.3168 -0.1384
vn -0.6907 0.2904 0.6622
vn -0.7532 0.2506 0.6082
vn 0.0573 0.2868 0.9563
vn 0.1834 0.3928 0.9011
vn 0.9066 0.2294 0.3543
vn 0.7023 0.2793 -0.6548
vn -0.3436 0.2318 -0.9100
vn -0.8985 0.1465 -0.4137
vn -0.7507 0.1467 0.6442
vn 0.1114 0.1617 0.9805
vn 0.8407 0.4997 0.2088
vn 0.8896 0.4560 0.0252
vn 0.4388 0.5503 -0.7104
vn 0.3166 0.4894 -0.8125
vn -0.5055 0.3737 -0.7777
vn -0.7066 0.4066 -0.5792
vn -0.9020 0.3985 -0.1662
vn -0.9481 0.3168 0.0267
vn -0.5652 0.2904 0.7721
vn -0.6362 0.2506 0.7297
vn 0.3371 0.3928 0.8556
vn 0.2225 0.2868 0.9318
vn 0.9245 0.3249 0.1993
vn 0.5296 0.3898 -0.7534
vn -0.5033 0.3169 -0.8039
vn -0.9511 0.2003 -0.2351
vn -0.6329 0.2006 0.7478
vn 0.2517 0.2250 0.9413
vn 0.9044 0.4213 -0.0679
vn 0.8195 0.5222 -0.2359
vn 0.2283 0.4863 -0.8435
vn 0.0853 0.4168 -0.9050
vn -0.8597 0.2900 -0.4205
vn -0.6879 0.3854 -0.6150
vn -0.9555 0.2941 0.0238
vn -0.8907 0.3886 0.2359
vn -0.3534 0.3566 0.8648
vn -0.4320 0.3132 0.8457
vn 0.5374 0.4659 0.7030
vn 0.4487 0.3669 0.8149
vn 0.9371 0.3410 -0.0748
vn 0.3085 0.3226 -0.8948
vn -0.7006 0.2456 -0.6700
vn -0.9838 0.1791 0.0031
vn -0.4230 0.2651 0.8665
vn 0.4808 0.3062 0.8217
vn 0.7421 0.4997 -0.4468
vn 0.6469 0.4560 -0.6112
vn -0.3507 0.4894 -0.7984
vn -0.1920 0.5503 -0.8126
vn -0.8774 0.4513 -0.1628
vn -0.9352 0.3437 0.0853
vn -0.6516 0.3168 0.6893
vn -0.7553 0.3985 0.5202
vn 0.0662 0.2506 0.9658
vn 0.1463 0.2904 0.9456
vn 0.8434 0.3928 0.3666
vn 0.8162 0.2868 0.5015
vn 0.7924 0.3356 -0.5094
vn -0.1351 0.2856 -0.9488
vn -0.9483 0.1919 -0.2527
vn -0.8577 0.1330 0.4966
vn 0.0707 0.2358 0.9692
vn 0.8096 0.3003 0.5043
vn 0.6012 0.4997 -0.6236
vn 0.4667 0.4560 -0.7578
vn -0.5454 0.4894 -0.6804
vn -0.3958 0.5503 -0.7352
vn -0.9263 0.3737 0.0490
vn -0.8549 0.4066 0.3223
vn -0.4510 0.3168 0.8344
vn -0.5950 0.3985 0.6980
vn 0.3139 0.2506 0.9158
vn 0.3861 0.2904 0.8756
vn 0.9095 0.3928 0.1358
vn 0.9182 0.2868 0.2732
vn 0.6349 0.3249 -0.7010
vn -0.3877 0.3898 -0.8353
vn -0.9478 0.3169 0.0339
vn -0.6791 0.2003 0.7062
vn 0.3312 0.2006 0.9220
vn 0.9410 0.2250 0.2526
vn 0.3764 0.5160 -0.7694
vn 0.2161 0.4565 -0.8631
vn -0.7411 0.4168 -0.5263
vn -0.6163 0.4863 -0.6194
vn -0.9106 0.3045 0.2794
vn -0.7744 0.3546 0.5240
vn -0.4270 0.3825 0.8194
vn -0.2464 0.3179 0.9155
vn 0.5832 0.3410 0.7373
vn 0.5240 0.2974 0.7981
vn 0.8985 0.4335 -0.0688
vn 0.9301 0.3669 0.0189
vn 0.4038 0.3410 -0.8489
vn -0.6207 0.3226 -0.7146
vn -0.9305 0.2456 0.2717
vn -0.4892 0.1791 0.8536
vn 0.5389 0.2651 0.7996
vn 0.9520 0.3062 -0.0055
vn 0.3173 0.7203 -0.6169
vn 0.1830 0.6346 -0.7508
vn -0.7118 0.5560 -0.4292
vn -0.5823 0.6581 -0.4774
vn -0.8687 0.4018 0.2899
vn -0.7210 0.4857 0.4942
vn -0.3774 0.5020 0.7782
vn -0.2387 0.4146 0.8781
vn 0.5007 0.4731 0.7250
vn 0.4668 0.4075 0.7849
vn 0.7819 0.6109 0.1241
vn 0.8294 0.5543 -0.0694
vn 0.4053 0.3265 -0.8539
vn -0.6204 0.3155 -0.7180
vn -0.9288 0.2512 0.2725
vn -0.4867 0.1891 0.8528
vn 0.5372 0.2689 0.7995
vn 0.9541 0.2993 -0.0082
vn -0.2808 0.6346 -0.7200
vn -0.0939 0.7203 -0.6873
vn -0.7508 0.6581 -0.0571
vn -0.8292 0.5560 0.0567
vn -0.3290 0.3814 0.8639
vn -0.4907 0.5088 0.7073
vn 0.1220 0.3948 0.9106
vn 0.2878 0.5152 0.8073
vn 0.8259 0.4731 0.3067
vn 0.8326 0.4075 0.3752
vn 0.6145 0.6465 -0.4522
vn 0.7494 0.5007 -0.4333
vn -0.1578 0.3264 -0.9319
vn -0.9201 0.3155 -0.2323
vn -0.6045 0.2512 0.7559
vn 0.0905 0.1891 0.9778
vn 0.8986 0.2689 0.3468
vn 0.7768 0.2993 -0.5540
# 144 vertex normals

vt 0.9085 0.9080 0.0000
vt 0.9407 0.8835 0.0000
vt 0.9460 0.9028 0.0000
vt 0.9030 0.8801 0.0000
vt 0.8990 0.9668 0.0000
vt 0.9315 0.9416 0.0000
vt 0.9396 0.9597 0.0000
vt 0.8900 0.9400 0.0000
vt 0.5076 0.9732 0.0000
vt 0.4639 0.9533 0.0000
vt 0.5073 0.9576 0.0000
vt 0.4587 0.9729 0.0000
vt 0.4614 0.9278 0.0000
vt 0.5162 0.9369 0.0000
vt 0.4775 0.9106 0.0000
vt 0.2842 0.9938 0.0000
vt 0.2488 0.9664 0.0000
vt 0.2920 0.9658 0.0000
vt 0.2452 0.9831 0.0000
vt 0.4573 0.2808 0.0000
vt 0.4851 0.2440 0.0000
vt 0.4783 0.2799 0.0000
vt 0.4567 0.2452 0.0000
vt 0.9927 0.8816 0.0000
vt 0.9871 0.9413 0.0000
vt 0.5678 0.9668 0.0000
vt 0.1878 0.9728 0.0000
vt 0.4795 0.3364 0.0000
vt 0.1949 0.0381 0.0000
vt 0.2364 0.0064 0.0000
vt 0.2432 0.0313 0.0000
vt 0.1878 0.0020 0.0000
vt 0.0137 0.9864 0.0000
vt 0.0555 0.9540 0.0000
vt 0.0659 0.9773 0.0000
vt 0.0020 0.9520 0.0000
vt 0.8887 0.3253 0.0000
vt 0.8319 0.2995 0.0000
vt 0.8882 0.3050 0.0000
vt 0.8252 0.3249 0.0000
vt 0.8286 0.2663 0.0000
vt 0.8998 0.2782 0.0000
vt 0.8495 0.2440 0.0000
vt 0.8699 0.9777 0.0000
vt 0.8178 0.9515 0.0000
vt 0.8729 0.9400 0.0000
vt 0.8174 0.9738 0.0000
vt 0.2380 0.2750 0.0000
vt 0.1878 0.2815 0.0000
vt 0.1883 0.2440 0.0000
vt 0.2364 0.2487 0.0000
vt 0.2882 0.0089 0.0000
vt 0.1118 0.9553 0.0000
vt 0.9486 0.3120 0.0000
vt 0.7606 0.9720 0.0000
vt 0.2882 0.2507 0.0000
vt 0.0666 0.8759 0.0000
vt 0.0020 0.8270 0.0000
vt 0.0641 0.8417 0.0000
vt 0.0020 0.8758 0.0000
vt 0.8697 0.7684 0.0000
vt 0.9243 0.7238 0.0000
vt 0.9378 0.7552 0.0000
vt 0.8545 0.7221 0.0000
vt 0.5944 0.2165 0.0000
vt 0.6686 0.1859 0.0000
vt 0.6637 0.2186 0.0000
vt 0.5913 0.1911 0.0000
vt 0.0700 0.7668 0.0000
vt 0.1612 0.8099 0.0000
vt 0.0853 0.8094 0.0000
vt 0.1503 0.7600 0.0000
vt 0.6694 0.8953 0.0000
vt 0.7435 0.8801 0.0000
vt 0.7410 0.9294 0.0000
vt 0.6698 0.9243 0.0000
vt 0.7612 0.8088 0.0000
vt 0.8283 0.8466 0.0000
vt 0.7611 0.8584 0.0000
vt 0.8255 0.8120 0.0000
vt 0.1307 0.8540 0.0000
vt 0.9980 0.7243 0.0000
vt 0.5198 0.2129 0.0000
vt 0.0020 0.8026 0.0000
vt 0.5931 0.9220 0.0000
vt 0.8946 0.8113 0.0000
vt 0.1166 0.8930 0.0000
vt 0.0663 0.9256 0.0000
vt 0.0607 0.8965 0.0000
vt 0.1216 0.9349 0.0000
vt 0.6897 0.0311 0.0000
vt 0.7422 0.0020 0.0000
vt 0.7494 0.0427 0.0000
vt 0.6821 0.0032 0.0000
vt 0.0020 0.6735 0.0000
vt 0.0750 0.6506 0.0000
vt 0.0756 0.6741 0.0000
vt 0.0098 0.6442 0.0000
vt 0.0885 0.6195 0.0000
vt 0.0060 0.6057 0.0000
vt 0.0302 0.5798 0.0000
vt 0.6675 0.9645 0.0000
vt 0.7294 0.9899 0.0000
vt 0.6690 0.9899 0.0000
vt 0.7295 0.9465 0.0000
vt 0.8180 0.9155 0.0000
vt 0.7606 0.9229 0.0000
vt 0.7612 0.8801 0.0000
vt 0.8161 0.8855 0.0000
vt 0.0020 0.9295 0.0000
vt 0.9716 0.6388 0.0000
vt 0.9092 0.6140 0.0000
vt 0.9724 0.6070 0.0000
vt 0.1446 0.6643 0.0000
vt 0.5931 0.9867 0.0000
vt 0.8859 0.8837 0.0000
vt 0.6038 0.8630 0.0000
vt 0.6662 0.8154 0.0000
vt 0.6765 0.8528 0.0000
vt 0.5931 0.8088 0.0000
vt 0.0824 0.6942 0.0000
vt 0.0195 0.7430 0.0000
vt 0.0020 0.6912 0.0000
vt 0.0981 0.7293 0.0000
vt 0.8728 0.1243 0.0000
vt 0.7874 0.0855 0.0000
vt 0.8721 0.0938 0.0000
vt 0.7774 0.1236 0.0000
vt 0.8895 0.0535 0.0000
vt 0.7825 0.0356 0.0000
vt 0.8140 0.0020 0.0000
vt 0.8093 0.6243 0.0000
vt 0.8877 0.6637 0.0000
vt 0.8086 0.6577 0.0000
vt 0.8921 0.6070 0.0000
vt 0.7616 0.7669 0.0000
vt 0.6951 0.7823 0.0000
vt 0.6915 0.7221 0.0000
vt 0.7597 0.7251 0.0000
vt 0.7440 0.8191 0.0000
vt 0.1671 0.6962 0.0000
vt 0.9629 0.1043 0.0000
vt 0.7233 0.6551 0.0000
vt 0.8374 0.7236 0.0000
vt 0.8745 0.2149 0.0000
vt 0.7774 0.2147 0.0000
vt 0.8707 0.1634 0.0000
vt 0.7774 0.1414 0.0000
vt 0.5637 0.7246 0.0000
vt 0.4815 0.7917 0.0000
vt 0.4587 0.7221 0.0000
vt 0.5840 0.7718 0.0000
vt 0.6435 0.1689 0.0000
vt 0.5316 0.1162 0.0000
vt 0.6418 0.1279 0.0000
vt 0.5198 0.1676 0.0000
vt 0.5235 0.0487 0.0000
vt 0.6625 0.0726 0.0000
vt 0.5624 0.0020 0.0000
vt 0.5956 0.6279 0.0000
vt 0.7063 0.6070 0.0000
vt 0.7013 0.6754 0.0000
vt 0.5962 0.6716 0.0000
vt 0.8851 0.4236 0.0000
vt 0.7862 0.4385 0.0000
vt 0.7850 0.3650 0.0000
vt 0.8818 0.3714 0.0000
vt 0.9708 0.1819 0.0000
vt 0.6744 0.7254 0.0000
vt 0.7603 0.1429 0.0000
vt 0.4805 0.6684 0.0000
vt 0.9861 0.3717 0.0000
vt 0.4587 0.8935 0.0000
vt 0.4677 0.8088 0.0000
vt 0.5501 0.8789 0.0000
vt 0.5760 0.8102 0.0000
vt 0.2835 0.6083 0.0000
vt 0.2200 0.7050 0.0000
vt 0.1878 0.6070 0.0000
vt 0.3209 0.6878 0.0000
vt 0.3135 0.0695 0.0000
vt 0.4381 0.0693 0.0000
vt 0.3589 0.1219 0.0000
vt 0.4087 0.0020 0.0000
vt 0.5027 0.1375 0.0000
vt 0.3799 0.2212 0.0000
vt 0.4897 0.2269 0.0000
vt 0.1885 0.4859 0.0000
vt 0.2895 0.5715 0.0000
vt 0.1878 0.5899 0.0000
vt 0.2845 0.4978 0.0000
vt 0.1878 0.9487 0.0000
vt 0.2756 0.8570 0.0000
vt 0.2858 0.9455 0.0000
vt 0.1879 0.8440 0.0000
vt 0.7859 0.4859 0.0000
vt 0.9593 0.5274 0.0000
vt 0.7861 0.5757 0.0000
vt 0.4634 0.6134 0.0000
vt 0.1878 0.2193 0.0000
vt 0.4761 0.4909 0.0000
vt 0.4417 0.8503 0.0000
vt 0.7507 0.3650 0.0000
vt 0.7679 0.4671 0.0000
vt 0.6796 0.4572 0.0000
vt 0.6553 0.3722 0.0000
vt 0.5254 0.5840 0.0000
vt 0.5889 0.4873 0.0000
vt 0.6263 0.5667 0.0000
vt 0.4932 0.4859 0.0000
vt 0.3589 0.3638 0.0000
vt 0.4087 0.2440 0.0000
vt 0.4381 0.3112 0.0000
vt 0.3135 0.3115 0.0000
vt 0.4897 0.4689 0.0000
vt 0.3799 0.4632 0.0000
vt 0.5027 0.3795 0.0000
vt 0.6215 0.3296 0.0000
vt 0.5198 0.3479 0.0000
vt 0.5205 0.2440 0.0000
vt 0.6165 0.2558 0.0000
vt 0.1879 0.7221 0.0000
vt 0.2858 0.8236 0.0000
vt 0.1878 0.8269 0.0000
vt 0.2756 0.7352 0.0000
vt 0.5198 0.4541 0.0000
vt 0.7688 0.4924 0.0000
vt 0.1878 0.4613 0.0000
vt 0.8081 0.2490 0.0000
vt 0.4417 0.7284 0.0000
# 230 texture coords

g Object004
usemtl Material__33
s off
f 49/55/41 50/56/41 51/57/41 
f 50/56/42 49/55/42 52/58/42 
f 53/59/43 54/60/43 50/61/43 
f 54/60/44 53/59/44 55/62/44 
f 54/63/45 56/64/45 57/65/45 
f 56/64/46 54/63/46 58/66/46 
f 59/67/47 60/68/47 57/65/47 
f 60/68/48 59/67/48 61/69/48 
f 62/70/49 60/71/49 63/72/49 
f 60/71/50 62/70/50 64/73/50 
f 64/74/51 65/75/51 51/76/51 
f 64/74/52 66/77/52 65/75/52 
f 50/56/53 67/78/53 51/57/53 
f 54/60/54 67/79/54 50/61/54 
f 57/65/55 67/80/55 54/63/55 
f 60/68/56 67/80/56 57/65/56 
f 64/73/57 67/81/57 60/71/57 
f 51/76/58 67/82/58 64/74/58 
f 68/83/59 69/84/59 70/85/59 
f 69/84/60 68/83/60 71/86/60 
f 72/87/61 73/88/61 69/89/61 
f 73/88/62 72/87/62 74/90/62 
f 73/91/63 75/92/63 76/93/63 
f 75/92/64 73/91/64 77/94/64 
f 78/95/65 79/96/65 76/93/65 
f 79/96/66 78/95/66 80/97/66 
f 81/98/67 79/99/67 82/100/67 
f 79/99/68 81/98/68 83/101/68 
f 83/102/69 84/103/69 85/104/69 
f 83/102/70 85/104/70 70/105/70 
f 69/84/71 86/106/71 70/85/71 
f 73/88/72 86/107/72 69/89/72 
f 76/93/73 86/108/73 73/91/73 
f 79/96/74 86/108/74 76/93/74 
f 83/101/75 86/109/75 79/99/75 
f 70/105/76 86/110/76 83/102/76 
f 87/111/77 88/112/77 89/113/77 
f 88/112/78 87/111/78 90/114/78 
f 91/115/79 92/116/79 89/117/79 
f 92/116/80 91/115/80 93/118/80 
f 94/119/81 95/120/81 96/121/81 
f 95/120/82 94/119/82 92/122/82 
f 94/123/83 97/124/83 98/125/83 
f 97/124/84 94/123/84 99/126/84 
f 98/127/85 100/128/85 101/129/85 
f 98/127/86 101/129/86 102/130/86 
f 103/131/87 102/132/87 104/133/87 
f 102/132/88 103/131/88 87/134/88 
f 89/113/89 105/135/89 87/111/89 
f 92/116/90 105/136/90 89/117/90 
f 94/119/91 105/137/91 92/122/91 
f 98/125/92 105/138/92 94/123/92 
f 102/130/93 105/139/93 98/127/93 
f 87/134/94 105/140/94 102/132/94 
f 106/141/95 107/142/95 108/143/95 
f 107/142/96 106/141/96 109/144/96 
f 110/145/97 111/146/97 112/147/97 
f 111/146/98 110/145/98 107/148/98 
f 113/149/99 114/150/99 110/151/99 
f 114/150/100 113/149/100 115/152/100 
f 116/153/101 117/154/101 118/155/101 
f 117/154/102 116/153/102 114/150/102 
f 116/156/103 119/157/103 120/158/103 
f 116/156/104 121/159/104 119/157/104 
f 120/160/105 122/161/105 123/162/105 
f 120/160/106 123/162/106 108/163/106 
f 107/142/107 124/164/107 108/143/107 
f 110/165/108 124/166/108 107/167/108 
f 114/150/109 124/168/109 110/151/109 
f 116/153/110 124/168/110 114/150/110 
f 120/158/111 124/169/111 116/156/111 
f 108/163/112 124/170/112 120/160/112 
f 125/171/113 126/172/113 127/173/113 
f 126/172/114 125/171/114 128/174/114 
f 129/175/115 130/176/115 131/177/115 
f 130/176/116 129/175/116 126/178/116 
f 129/179/117 132/180/117 133/181/117 
f 132/180/118 129/179/118 134/182/118 
f 135/183/119 136/184/119 137/185/119 
f 136/184/120 135/183/120 133/181/120 
f 135/186/121 138/187/121 139/188/121 
f 138/187/122 135/186/122 140/189/122 
f 139/190/123 141/191/123 142/192/123 
f 139/190/124 142/192/124 127/193/124 
f 126/172/125 143/194/125 127/173/125 
f 129/175/126 143/195/126 126/178/126 
f 133/181/127 143/196/127 129/179/127 
f 135/183/128 143/196/128 133/181/128 
f 139/188/129 143/197/129 135/186/129 
f 127/193/130 143/198/130 139/190/130 
f 144/199/131 145/200/131 146/201/131 
f 146/201/132 145/200/132 147/202/132 
f 148/203/133 149/204/133 150/205/133 
f 149/204/134 148/203/134 146/206/134 
f 148/207/135 151/208/135 152/209/135 
f 151/208/136 148/207/136 153/210/136 
f 154/211/137 155/212/137 152/209/137 
f 155/212/138 154/211/138 156/213/138 
f 155/214/139 157/215/139 158/216/139 
f 155/214/140 158/216/140 159/217/140 
f 159/218/141 160/219/141 161/220/141 
f 159/218/142 161/220/142 144/221/142 
f 146/201/143 162/222/143 144/199/143 
f 148/203/144 162/223/144 146/206/144 
f 152/209/145 162/224/145 148/207/145 
f 155/212/146 162/224/146 152/209/146 
f 159/217/147 162/225/147 155/214/147 
f 144/221/148 162/226/148 159/218/148 
f 163/227/149 164/228/149 165/229/149 
f 165/229/150 164/228/150 166/230/150 
f 167/231/151 168/232/151 169/233/151 
f 168/232/152 167/231/152 165/234/152 
f 167/235/153 170/236/153 171/237/153 
f 170/236/154 167/235/154 172/238/154 
f 173/239/155 174/240/155 171/237/155 
f 174/240/156 173/239/156 175/241/156 
f 176/242/157 174/243/157 177/244/157 
f 174/243/158 176/242/158 178/245/158 
f 179/246/159 163/247/159 178/248/159 
f 163/247/160 179/246/160 180/249/160 
f 165/250/161 181/251/161 163/252/161 
f 167/231/162 181/253/162 165/234/162 
f 171/237/163 181/254/163 167/235/163 
f 174/240/164 181/254/164 171/237/164 
f 178/245/165 181/255/165 174/243/165 
f 163/247/166 181/256/166 178/248/166 
f 182/257/167 183/258/167 184/259/167 
f 182/257/168 184/259/168 185/260/168 
f 186/261/169 187/262/169 184/263/169 
f 187/262/170 186/261/170 188/264/170 
f 189/265/171 190/266/171 191/267/171 
f 190/266/172 189/265/172 187/268/172 
f 189/265/173 192/269/173 193/270/173 
f 192/269/174 189/265/174 194/271/174 
f 193/272/175 195/273/175 196/274/175 
f 193/272/176 196/274/176 197/275/176 
f 198/276/177 197/277/177 199/278/177 
f 197/277/178 198/276/178 185/279/178 
f 184/259/179 200/280/179 185/260/179 
f 187/262/180 200/281/180 184/263/180 
f 189/265/181 200/282/181 187/268/181 
f 193/270/182 200/282/182 189/265/182 
f 197/275/183 200/283/183 193/272/183 
f 185/279/184 200/284/184 197/277/184 
# 0 polygons - 144 triangles

