# 3ds Max Wavefront OBJ Exporter v0.97b - (c)2007 guruware
# File Created: 25.05.2016 22:17:18

mtllib base_boss.mtl

#
# object Group36196
#

v  49.8977 277.1329 57.1689
v  -2.4252 308.6068 54.4814
v  -22.0884 230.7874 47.1689
v  -112.7523 50.0406 40.0439
v  -113.3726 27.5811 -24.3936
v  -118.0116 -35.9570 -80.0811
v  68.3409 197.0127 -94.7217
v  81.9808 243.8800 -66.9873
v  87.1872 177.4394 -66.8311
v  52.2194 257.3832 41.6689
v  84.3483 195.9595 -15.6123
v  -36.7389 25.3072 -77.4404
v  7.9958 180.8687 -60.9717
v  33.2861 88.6824 -62.5186
v  85.9744 44.5627 -50.8154
v  87.3666 -36.0564 63.1846
v  86.0185 -35.5670 -63.7373
v  85.7368 265.0845 -10.2061
v  85.9561 346.0559 -12.6748
v  89.7314 334.1800 48.7471
v  87.3196 269.7545 52.4033
v  -71.3920 282.6635 55.8564
v  -89.6300 265.1364 34.4814
v  -74.6016 213.5950 62.8096
v  -109.4216 346.2037 -15.8467
v  -21.5147 340.3641 33.8252
v  95.7763 286.9151 11.3877
v  84.1939 337.1802 -64.3467
v  86.0801 28.3838 55.8564
v  16.9901 25.4041 58.9971
v  29.7162 209.1038 -76.8311
v  78.6113 159.0495 -77.2842
v  -5.2197 322.0981 -64.1123
v  74.2013 304.5760 -103.7842
v  45.8922 255.1360 -94.2686
v  -1.5886 281.7003 -61.7842
v  13.5775 257.2242 -48.9873
v  -114.4930 83.4411 -71.0186
v  -71.8852 185.9407 -73.8623
v  -94.7553 31.3084 -71.7529
v  -34.8986 248.8116 -59.7217
v  87.2776 155.6268 6.1064
v  86.4925 99.9114 -4.3467
v  86.5624 70.6819 -32.5186
v  79.0267 152.3842 38.8721
v  -55.3207 76.5494 45.9033
v  3.9560 69.2951 58.2627
v  78.3810 -36.0525 -84.8779
v  111.9178 197.2865 24.1064
v  75.7163 174.2525 58.2627
v  102.9332 144.0422 35.2158
v  84.8302 114.8208 56.0596
v  43.0937 276.9155 9.7627
v  94.5414 234.6529 20.2939
v  23.5056 167.7120 47.1689
v  72.6248 207.5104 57.2471
v  67.9324 231.7114 41.5127
v  80.1630 92.8973 -70.2061
v  60.8829 45.5244 27.4033
v  60.3589 79.2010 45.5283
v  85.3274 66.2395 42.3252
v  63.8229 54.9458 -17.3154
v  -96.2905 41.1527 59.5127
v  -109.9170 -35.8582 67.3252
v  -111.1060 278.5459 -51.2998
v  -98.4032 189.2497 -47.7998
v  -113.6820 277.8625 37.1221
v  -102.9111 238.7734 22.2783
v  -76.2357 186.1788 27.6064
v  -114.7035 184.1785 16.0596
v  -96.5939 101.7195 64.4033
v  25.6221 192.0254 55.4189
v  -49.2234 195.1475 50.4502
v  -59.3019 321.6065 -72.3936
v  -111.4475 340.0373 35.6533
v  -113.6864 333.8116 -66.7529
v  -51.8585 282.5992 -71.6748
v  -94.1113 282.6549 43.9502
v  -61.9423 336.4102 43.1377
v  -105.5499 322.5724 50.0127
v  -76.5411 302.2129 58.2627
v  63.8014 239.7542 53.6689
v  -101.0715 217.0118 29.9658
v  -28.9430 300.5429 -47.7998
v  -106.6230 302.3698 55.6533
v  -47.3498 304.3209 48.3877
v  -43.8256 273.6914 51.6377
# 87 vertices

vn -0.0930 -0.0698 0.9932
vn -0.9954 0.0926 -0.0227
vn 0.8474 0.0652 -0.5269
vn 0.2635 -0.5762 0.7737
vn 0.9966 0.0782 0.0270
vn 0.1563 0.0594 -0.9859
vn 0.9999 0.0023 -0.0106
vn 0.9981 -0.0153 -0.0603
vn 0.9967 -0.0412 -0.0692
vn -0.7951 0.0972 0.5987
vn -0.0012 0.9929 0.1188
vn 0.9742 0.0752 -0.2128
vn 0.0035 0.9855 -0.1694
vn 0.9998 0.0202 0.0021
vn 0.0402 0.1137 0.9927
vn -0.4878 -0.4699 -0.7357
vn -0.4324 0.0746 -0.8986
vn -0.6472 -0.6274 -0.4330
vn -0.0526 -0.0058 -0.9986
vn 0.1980 0.1028 -0.9748
vn 0.1569 -0.0367 -0.9869
vn -0.8109 0.0646 -0.5817
vn -0.1312 0.4632 -0.8765
vn 0.9996 -0.0181 0.0212
vn -0.1498 0.3510 0.9243
vn 0.0376 0.1895 -0.9812
vn -0.8825 0.3447 -0.3198
vn -0.0241 0.1311 -0.9911
vn 0.8207 0.0281 -0.5706
vn 0.3681 -0.5851 0.7227
vn 0.2825 0.4349 0.8550
vn 0.9692 -0.0641 0.2377
vn 0.9125 0.2748 0.3031
vn 0.4224 -0.7142 -0.5581
vn 0.8862 0.4298 0.1730
vn 0.7212 -0.5861 0.3692
vn -0.2262 0.1823 0.9569
vn 0.6551 0.0838 0.7509
vn 0.4625 -0.4156 -0.7832
vn -0.1332 0.7802 -0.6112
vn 0.9724 -0.0165 -0.2328
vn 0.9993 -0.0229 -0.0302
vn 0.4599 0.6656 0.5878
vn 0.1852 -0.9196 -0.3465
vn 0.1167 -0.7250 0.6787
vn 0.8394 -0.5250 0.1405
vn -0.1707 0.1137 -0.9787
vn -0.1328 -0.1209 -0.9837
vn 0.0998 -0.5445 -0.8328
vn -0.4814 -0.1175 -0.8686
vn 1.0000 -0.0069 -0.0033
vn 0.9994 -0.0050 0.0343
vn -0.0129 0.8514 0.5243
vn 0.4500 0.8830 0.1335
vn -0.1914 0.3838 0.9034
vn 0.6478 -0.3532 0.6750
vn 0.6803 -0.7250 -0.1080
vn -0.1328 -0.4713 0.8719
vn 0.9998 -0.0128 0.0157
vn 0.4429 0.7218 0.5318
vn 0.9993 -0.0202 0.0325
vn 0.7887 -0.5914 0.1677
vn -0.1052 -0.0771 -0.9915
vn -0.0836 0.1286 -0.9882
vn 0.6323 0.2499 -0.7333
vn -0.4575 -0.1699 -0.8728
vn 0.6452 0.7380 0.1979
vn 0.9998 -0.0111 -0.0163
vn 0.6879 -0.4268 0.5871
vn 0.5502 -0.8341 -0.0404
vn 0.8017 -0.2372 -0.5486
vn 0.9960 0.0854 0.0243
vn 0.9400 0.0257 -0.3402
vn 0.0763 -0.9971 -0.0047
vn -0.9297 -0.0607 -0.3632
vn -0.1514 -0.1087 -0.9825
vn 0.0072 0.0189 0.9998
vn -0.9984 -0.0155 0.0548
vn -0.7033 -0.1275 -0.6994
vn -0.9665 -0.2549 -0.0301
vn -0.2791 0.4393 0.8539
vn -0.0579 0.1761 0.9827
vn 0.1152 -0.6938 -0.7109
vn 0.2572 -0.3178 -0.9126
vn -0.6613 0.2553 -0.7053
vn -0.9999 -0.0124 0.0119
vn 0.0210 0.0919 0.9956
vn 0.0181 0.0977 0.9950
vn -0.9471 0.3211 0.0012
vn -0.0137 0.9718 -0.2354
vn -0.9557 -0.1460 -0.2555
vn -0.9539 0.1951 -0.2280
vn -0.8912 0.0672 0.4485
vn 0.3813 -0.4890 0.7845
vn 0.1829 -0.2450 -0.9521
vn -0.9989 -0.0399 0.0243
vn -0.0180 0.2295 -0.9731
vn -0.2656 -0.4373 -0.8592
vn -0.9999 -0.0093 0.0129
vn -0.8713 -0.3247 -0.3681
vn -0.7037 0.1939 0.6835
vn -0.1231 0.4770 0.8702
vn -0.2966 -0.2700 -0.9161
vn 0.0036 0.4327 -0.9015
vn 0.0294 0.9817 0.1880
vn 0.0261 0.1281 0.9914
vn -0.1727 -0.5022 0.8474
vn -0.0870 0.5059 0.8582
vn 0.0184 0.3979 0.9173
vn -0.9990 0.0352 -0.0288
vn 0.2806 -0.7539 0.5941
vn 0.8507 0.5202 0.0752
vn -0.9185 0.2524 0.3045
vn -0.2624 -0.2819 0.9229
vn -0.6662 -0.5731 0.4773
vn 0.2588 0.0848 0.9622
vn -0.2572 -0.7566 0.6012
vn -0.6623 0.4277 0.6152
vn 0.1173 -0.6781 -0.7255
vn -0.5992 -0.0996 -0.7944
vn 0.6722 0.1148 -0.7314
vn -0.1119 -0.0396 -0.9929
vn -0.5041 -0.0948 -0.8584
vn 0.1467 0.7180 -0.6804
vn 0.2706 -0.4392 0.8567
vn 0.2066 0.0777 0.9753
vn -0.3777 0.6791 0.6294
vn -0.1560 0.1213 0.9803
vn -0.0459 0.3736 0.9265
vn -0.0474 0.0261 0.9985
vn -0.0911 0.1598 0.9829
vn 0.3312 -0.1666 0.9287
vn -0.1613 -0.3045 0.9388
vn 0.3091 -0.3296 0.8921
vn -0.1174 0.5049 0.8551
vn 0.8514 0.5215 -0.0557
vn 0.1361 0.0511 0.9894
vn -0.0220 -0.6188 0.7852
vn -0.0730 0.6186 0.7823
vn -0.9049 0.0425 0.4234
vn -0.1425 -0.5705 0.8088
vn -0.9952 -0.0556 0.0808
vn -0.7607 0.1581 0.6295
vn 0.2892 0.2812 0.9150
vn 0.1412 -0.0315 0.9895
vn 0.0134 -0.0969 0.9952
vn -0.1625 0.4675 0.8689
vn 0.0050 0.9125 0.4091
vn 0.1950 0.2441 0.9500
vn -0.3983 -0.5129 0.7604
vn 0.1221 -0.0895 0.9885
vn 0.3087 0.1354 0.9415
vn -0.1422 0.0883 0.9859
vn 0.6532 0.3711 0.6600
vn 0.3927 0.7052 0.5903
vn -0.0983 -0.3768 0.9211
vn -0.7817 0.1096 0.6140
vn -0.1995 0.5066 0.8388
vn 0.4872 0.5404 0.6859
vn -0.4522 -0.2253 0.8630
vn -0.0753 -0.5439 0.8357
vn 0.8118 -0.0477 -0.5820
vn 0.7844 -0.0133 -0.6201
vn -0.0817 0.2720 0.9588
vn -0.9690 0.1129 0.2199
vn 0.4902 -0.6866 -0.5369
vn 0.3484 0.9201 0.1788
# 167 vertex normals

vt 0.4131 0.4757 0.0000
vt 0.3083 0.4933 0.0000
vt 0.2868 0.4034 0.0000
vt 0.1775 0.1183 0.0000
vt 0.1183 0.0862 0.0000
vt 0.1167 0.0130 0.0000
vt 0.6487 0.3936 0.0000
vt 0.6072 0.4581 0.0000
vt 0.6225 0.3485 0.0000
vt 0.4323 0.4430 0.0000
vt 0.5868 0.3609 0.0000
vt 0.8626 0.1470 0.0000
vt 0.7665 0.3706 0.0000
vt 0.7404 0.2313 0.0000
vt 0.6212 0.1790 0.0000
vt 0.5916 0.0456 0.0000
vt 0.6770 0.0646 0.0000
vt 0.5517 0.4334 0.0000
vt 0.5707 0.5538 0.0000
vt 0.4793 0.5741 0.0000
vt 0.4879 0.4905 0.0000
vt 0.1773 0.4235 0.0000
vt 0.1504 0.4040 0.0000
vt 0.1764 0.3481 0.0000
vt 0.4576 0.6488 0.0000
vt 0.1256 0.5407 0.0000
vt 0.2646 0.5281 0.0000
vt 0.5541 0.4681 0.0000
vt 0.4387 0.6982 0.0000
vt 0.5603 0.1189 0.0000
vt 0.4384 0.1030 0.0000
vt 0.7203 0.4112 0.0000
vt 0.6449 0.3300 0.0000
vt 0.7695 0.5846 0.0000
vt 0.6553 0.5506 0.0000
vt 0.6758 0.4803 0.0000
vt 0.7639 0.5223 0.0000
vt 0.7515 0.4842 0.0000
vt 0.9713 0.2480 0.0000
vt 0.8873 0.3924 0.0000
vt 0.9504 0.1670 0.0000
vt 0.8221 0.4814 0.0000
vt 0.5561 0.3030 0.0000
vt 0.5668 0.2399 0.0000
vt 0.5976 0.2176 0.0000
vt 0.5074 0.2839 0.0000
vt 0.2921 0.1561 0.0000
vt 0.3987 0.1506 0.0000
vt 0.6978 0.0525 0.0000
vt 0.0444 0.0545 0.0000
vt 0.9980 0.0697 0.0000
vt 0.5572 0.3543 0.0000
vt 0.4799 0.3075 0.0000
vt 0.5523 0.2837 0.0000
vt 0.5207 0.2386 0.0000
vt 0.4635 0.4497 0.0000
vt 0.5224 0.3974 0.0000
vt 0.3877 0.2885 0.0000
vt 0.4647 0.3535 0.0000
vt 0.6350 0.5860 0.0000
vt 0.4551 0.3950 0.0000
vt 0.6659 0.2290 0.0000
vt 0.5306 0.1513 0.0000
vt 0.5053 0.1829 0.0000
vt 0.5537 0.1833 0.0000
vt 0.5584 0.1815 0.0000
vt 0.2236 0.1007 0.0000
vt 0.2210 0.0020 0.0000
vt 0.9304 0.5399 0.0000
vt 0.9439 0.4089 0.0000
vt 0.1079 0.4251 0.0000
vt 0.0421 0.3889 0.0000
vt 0.1258 0.3719 0.0000
vt 0.1852 0.3119 0.0000
vt 0.1109 0.2696 0.0000
vt 0.1844 0.1954 0.0000
vt 0.3855 0.3203 0.0000
vt 0.2430 0.3332 0.0000
vt 0.8499 0.5902 0.0000
vt 0.0570 0.1407 0.0000
vt 0.0842 0.4954 0.0000
vt 0.1066 0.5831 0.0000
vt 0.0133 0.2631 0.0000
vt 0.8396 0.5357 0.0000
vt 0.0020 0.4581 0.0000
vt 0.9259 0.6208 0.0000
vt 0.1742 0.6835 0.0000
vt 0.1433 0.4274 0.0000
vt 0.1819 0.4990 0.0000
vt 0.1080 0.4715 0.0000
vt 0.1649 0.4492 0.0000
vt 0.4317 0.4094 0.0000
vt 0.1301 0.3321 0.0000
vt 0.7990 0.5562 0.0000
vt 0.1142 0.4475 0.0000
vt 0.2238 0.4769 0.0000
vt 0.2355 0.4450 0.0000
# 97 texture coords

g Group36196
usemtl default
s off
f 1/1/1 2/2/1 3/3/1 
f 4/4/2 5/5/2 6/6/2 
f 7/7/3 8/8/3 9/9/3 
f 10/10/4 1/1/4 3/3/4 
f 8/8/5 11/11/5 9/9/5 
f 12/12/6 13/13/6 14/14/6 
f 15/15/7 16/16/7 17/17/7 
f 8/8/8 18/18/8 11/11/8 
f 19/19/9 20/20/9 21/21/9 
f 22/22/10 23/23/10 24/24/10 
f 19/25/11 25/26/11 26/27/11 
f 19/19/12 27/28/12 8/8/12 
f 19/25/13 28/29/13 25/26/13 
f 15/15/14 29/30/14 16/16/14 
f 29/30/15 30/31/15 16/16/15 
f 31/32/16 7/7/16 32/33/16 
f 33/34/17 34/35/17 35/36/17 
f 36/37/18 35/36/18 37/38/18 
f 38/39/19 39/40/19 40/41/19 
f 41/42/20 37/38/20 39/40/20 
f 39/40/21 13/13/21 40/41/21 
f 37/38/22 35/36/22 31/32/22 
f 37/38/23 31/32/23 39/40/23 
f 42/43/24 43/44/24 44/45/24 
f 45/46/25 46/47/25 47/48/25 
f 12/12/26 14/14/26 48/49/26 
f 40/50/27 6/6/27 5/5/27 
f 48/49/28 6/51/28 40/41/28 
f 11/11/29 18/18/29 49/52/29 
f 50/53/30 46/47/30 45/46/30 
f 51/54/31 45/46/31 52/55/31 
f 42/43/32 50/53/32 45/46/32 
f 19/19/33 21/21/33 27/28/33 
f 53/56/34 21/21/34 10/10/34 
f 18/18/35 54/57/35 49/52/35 
f 49/52/36 50/53/36 42/43/36 
f 50/53/37 55/58/37 46/47/37 
f 49/52/38 56/59/38 50/53/38 
f 35/36/39 34/35/39 8/8/39 
f 28/60/40 34/35/40 33/34/40 
f 34/35/41 28/60/41 8/8/41 
f 8/8/42 28/60/42 19/19/42 
f 18/18/43 53/56/43 57/61/43 
f 27/28/44 21/21/44 53/56/44 
f 18/18/45 27/28/45 53/56/45 
f 8/8/46 27/28/46 18/18/46 
f 14/14/47 58/62/47 48/49/47 
f 31/32/48 32/33/48 14/14/48 
f 39/40/49 31/32/49 13/13/49 
f 13/13/50 31/32/50 14/14/50 
f 9/9/51 42/43/51 44/45/51 
f 17/17/52 9/9/52 15/15/52 
f 30/31/53 29/30/53 59/63/53 
f 15/15/54 59/63/54 29/30/54 
f 52/55/55 45/46/55 47/48/55 
f 60/64/56 30/31/56 59/63/56 
f 61/65/57 59/63/57 62/66/57 
f 61/65/58 60/64/58 59/63/58 
f 43/44/59 61/65/59 44/45/59 
f 43/44/60 60/64/60 61/65/60 
f 42/43/61 52/55/61 43/44/61 
f 43/44/62 52/55/62 60/64/62 
f 48/49/63 40/41/63 12/12/63 
f 40/41/64 13/13/64 12/12/64 
f 35/36/65 8/8/65 7/7/65 
f 31/32/66 35/36/66 7/7/66 
f 62/66/67 59/63/67 15/15/67 
f 15/15/68 9/9/68 44/45/68 
f 15/15/69 44/45/69 62/66/69 
f 44/45/70 61/65/70 62/66/70 
f 11/11/71 49/52/71 42/43/71 
f 9/9/72 11/11/72 42/43/72 
f 58/62/73 17/17/73 48/49/73 
f 48/49/74 17/17/74 16/16/74 
f 58/62/75 32/33/75 17/17/75 
f 32/33/76 58/62/76 14/14/76 
f 47/48/77 63/67/77 30/31/77 
f 6/6/78 64/68/78 4/4/78 
f 65/69/79 39/40/79 66/70/79 
f 67/71/80 65/72/80 68/73/80 
f 69/74/81 70/75/81 71/76/81 
f 72/77/82 73/78/82 71/76/82 
f 33/34/83 74/79/83 28/60/83 
f 41/42/84 36/37/84 37/38/84 
f 39/40/85 38/39/85 66/70/85 
f 4/4/86 70/75/86 38/80/86 
f 16/16/87 30/31/87 64/68/87 
f 30/31/88 63/67/88 64/68/88 
f 75/81/89 25/26/89 76/82/89 
f 28/29/90 76/82/90 25/26/90 
f 70/75/91 65/72/91 66/83/91 
f 66/83/92 38/80/92 70/75/92 
f 71/76/93 70/75/93 4/4/93 
f 4/4/94 55/58/94 71/76/94 
f 77/84/95 36/37/95 41/42/95 
f 75/81/96 76/85/96 65/72/96 
f 65/69/97 41/42/97 39/40/97 
f 65/69/98 77/84/98 41/42/98 
f 38/80/99 5/5/99 4/4/99 
f 38/80/100 40/50/100 5/5/100 
f 63/67/101 4/4/101 64/68/101 
f 46/47/102 63/67/102 47/48/102 
f 76/86/103 77/84/103 65/69/103 
f 76/82/104 28/29/104 74/87/104 
f 20/20/105 19/25/105 26/27/105 
f 1/1/106 20/20/106 2/2/106 
f 78/88/107 67/71/107 23/23/107 
f 26/27/108 2/2/108 20/20/108 
f 79/89/109 80/90/109 81/91/109 
f 75/81/110 65/72/110 67/71/110 
f 82/92/111 73/78/111 57/61/111 
f 53/56/112 10/10/112 57/61/112 
f 65/72/113 70/75/113 83/93/113 
f 83/93/114 70/75/114 69/74/114 
f 24/24/115 83/93/115 69/74/115 
f 3/3/116 22/22/116 24/24/116 
f 73/78/117 24/24/117 69/74/117 
f 69/74/118 71/76/118 73/78/118 
f 74/79/119 33/34/119 84/94/119 
f 33/34/120 35/36/120 36/37/120 
f 74/79/121 84/94/121 77/84/121 
f 76/86/122 74/79/122 77/84/122 
f 84/94/123 33/34/123 36/37/123 
f 84/94/124 36/37/124 77/84/124 
f 52/55/125 47/48/125 60/64/125 
f 60/64/126 47/48/126 30/31/126 
f 46/47/127 4/4/127 63/67/127 
f 46/47/128 55/58/128 4/4/128 
f 57/61/129 73/78/129 72/77/129 
f 56/59/130 72/77/130 50/53/130 
f 82/92/131 3/3/131 73/78/131 
f 24/24/132 73/78/132 3/3/132 
f 50/53/133 72/77/133 55/58/133 
f 72/77/134 71/76/134 55/58/134 
f 10/10/135 3/3/135 82/92/135 
f 10/10/136 82/92/136 57/61/136 
f 20/20/137 1/1/137 21/21/137 
f 21/21/138 1/1/138 10/10/138 
f 75/81/139 80/90/139 79/89/139 
f 75/81/11 26/27/11 25/26/11 
f 67/71/140 80/90/140 75/81/140 
f 85/95/141 67/71/141 78/88/141 
f 68/73/142 65/72/142 83/93/142 
f 24/24/143 68/73/143 83/93/143 
f 79/89/144 81/91/144 86/96/144 
f 87/97/145 22/22/145 3/3/145 
f 2/2/146 87/97/146 3/3/146 
f 2/2/147 26/27/147 86/96/147 
f 26/27/148 75/81/148 79/89/148 
f 26/27/149 79/89/149 86/96/149 
f 22/22/150 78/88/150 23/23/150 
f 81/91/151 22/22/151 87/97/151 
f 86/96/152 81/91/152 87/97/152 
f 2/2/153 86/96/153 87/97/153 
f 54/57/154 56/59/154 49/52/154 
f 18/18/155 57/61/155 54/57/155 
f 23/23/156 67/71/156 68/73/156 
f 23/23/157 68/73/157 24/24/157 
f 56/59/158 57/61/158 72/77/158 
f 54/57/159 57/61/159 56/59/159 
f 81/91/160 78/88/160 22/22/160 
f 81/91/161 85/95/161 78/88/161 
f 32/33/162 7/7/162 9/9/162 
f 32/33/163 9/9/163 17/17/163 
f 80/90/164 85/95/164 81/91/164 
f 85/95/165 80/90/165 67/71/165 
f 42/43/166 51/54/166 52/55/166 
f 42/43/167 45/46/167 51/54/167 
# 0 polygons - 168 triangles

