# 3ds Max Wavefront OBJ Exporter v0.97b - (c)2007 guruware
# File Created: 25.03.2016 17:39:46

mtllib rock_04.mtl

#
# object Object001
#

#
# object Box001
#

#
# object Box002
#

v  -0.9208 -0.0565 8.4914
v  -3.8601 -0.0565 -9.3427
v  12.5888 -0.0565 -11.8892
v  13.5686 -0.0565 11.7189
v  -5.8539 13.4694 4.6270
v  4.7289 13.7078 12.7913
v  8.0188 12.6124 5.2536
v  -7.4062 11.7216 -1.2374
v  0.6357 10.4775 0.4963
v  15.8506 4.5018 13.2476
v  8.6114 10.0719 17.5288
v  -2.0969 8.7438 10.5314
v  16.6881 3.4064 -6.2180
v  -5.2993 1.7623 -10.3279
v  -0.0680 3.2274 -12.6960
v  8.0273 8.5321 -1.0109
v  -10.5990 0.1060 9.6040
v  -14.4507 -0.0420 2.7961
v  -8.0018 0.0643 -0.5307
v  -4.2854 0.1060 6.0115
v  -6.6526 10.3915 0.8052
v  -7.4963 9.1488 -0.5130
v  -11.2395 6.4021 -1.4185
v  -11.5422 8.3143 5.8929
v  -12.6869 5.7273 -0.4114
v  -12.5712 6.7988 4.2853
v  -3.4103 2.5152 6.6247
v  -14.0354 2.5152 14.6494
v  -8.2888 5.1513 -2.4207
v  -17.3023 3.3975 2.8717
v  -16.5530 6.0553 1.4263
v  -15.8958 6.2770 11.3799
v  -12.2099 6.8495 11.7344
v  -11.8471 6.1159 12.3720
v  -6.0013 4.8575 9.7227
v  -6.6710 7.1685 6.4840
v  -9.3421 7.1685 8.0039
# 37 vertices

vn 0.0000 -1.0000 -0.0000
vn 0.0711 0.9640 -0.2563
vn 0.0664 0.9911 -0.1150
vn 0.1020 0.9307 -0.3513
vn 0.0924 0.8645 -0.4940
vn 0.2043 0.7844 -0.5856
vn -0.0225 -0.5057 0.8624
vn 0.2139 -0.4052 0.8889
vn -0.2010 -0.4580 0.8659
vn -0.3574 -0.4117 0.8383
vn -0.5058 -0.2584 0.8231
vn 0.8586 -0.5101 0.0509
vn 0.6671 -0.7444 -0.0277
vn 0.6967 -0.7171 -0.0173
vn 0.8836 -0.4638 0.0641
vn -0.1660 -0.6042 -0.7794
vn -0.1946 -0.5818 -0.7897
vn -0.0386 -0.2631 -0.9640
vn 0.2122 0.6356 -0.7423
vn 0.1887 0.8384 -0.5114
vn 0.2079 0.8020 -0.5599
vn -0.9337 -0.2750 0.2293
vn -0.8924 -0.2116 0.3985
vn -0.9033 -0.3306 0.2736
vn -0.8740 -0.4054 0.2678
vn -0.7930 -0.4936 0.3570
vn -0.8160 -0.4694 0.3372
vn 0.6546 0.7530 0.0678
vn 0.6026 0.7978 -0.0190
vn 0.5792 0.8014 -0.1496
vn 0.6829 0.7305 -0.0064
vn 0.1656 0.8265 -0.5381
vn 0.5823 0.8012 0.1377
vn 0.1193 0.8503 -0.5126
vn -0.1403 0.7612 -0.6331
vn -0.5400 0.4357 0.7201
vn -0.5226 0.4718 0.7101
vn -0.5546 0.4031 0.7280
vn -0.5780 0.3459 0.7391
vn -0.4679 0.5397 -0.6998
vn 0.0119 -0.9999 0.0072
vn 0.0214 -0.9997 0.0096
vn 0.0125 -0.9999 0.0073
vn 0.0027 -1.0000 0.0048
vn -0.3664 0.9286 -0.0585
vn -0.4629 0.7735 -0.4329
vn -0.5601 0.7971 -0.2255
vn -0.1841 0.9678 0.1717
vn -0.5151 0.8383 -0.1786
vn -0.6722 0.7110 -0.2064
vn 0.4695 -0.6011 0.6467
vn 0.4590 -0.3721 0.8067
vn 0.4939 -0.4227 0.7599
vn 0.5256 -0.1837 0.8307
vn 0.8894 -0.0486 -0.4546
vn 0.9565 -0.0527 -0.2870
vn 0.8754 -0.0478 -0.4811
vn 0.8325 -0.0978 -0.5453
vn 0.8548 -0.0309 -0.5180
vn 0.8034 -0.1302 -0.5810
vn -0.4274 -0.3359 -0.8393
vn -0.7180 -0.6703 0.1877
vn -0.7696 -0.5909 -0.2420
vn -0.7495 -0.6527 0.1102
vn -0.6882 -0.6347 0.3514
vn -0.7244 -0.6077 0.3254
vn 0.3891 0.7608 0.5193
vn 0.4130 0.7052 0.5763
vn 0.4056 0.7754 0.4839
vn 0.3529 0.8346 0.4230
vn 0.0852 0.9851 0.1497
vn -0.5123 0.8500 -0.1224
vn -0.9526 0.2991 0.0562
vn -0.6122 0.7903 0.0228
vn -0.2669 0.9469 -0.1794
vn 0.3471 0.6689 -0.6573
vn 0.1926 0.9121 0.3620
vn 0.2708 0.8368 0.4758
vn -0.1794 0.8007 0.5716
vn -0.1210 0.8454 0.5202
vn -0.1683 0.5979 0.7837
vn 0.5591 -0.2664 0.7851
vn 0.4451 0.2696 0.8539
vn 0.7833 0.5522 0.2855
vn 0.8033 0.5306 0.2706
vn 0.7693 0.5665 0.2954
vn 0.5169 0.7438 0.4238
vn -0.1125 0.4460 -0.8879
vn -0.0227 0.9748 -0.2218
# 89 vertex normals

vt 1.0000 0.0000 0.0000
vt 1.0000 1.0000 0.0000
vt 0.0000 1.0000 0.0000
vt 0.0000 0.0000 0.0000
vt 0.0000 0.1229 0.0000
vt 0.7042 0.1229 0.0000
vt 0.7042 0.2133 0.0000
vt 0.2007 0.2133 0.0000
vt 1.0000 0.3375 0.0000
vt 0.8061 0.7718 0.0000
vt 0.0000 0.6773 0.0000
vt 0.0000 0.3375 0.0000
vt 0.8015 0.0670 0.0000
vt 1.0000 0.6773 0.0000
vt 0.8771 1.0000 0.0000
vt -0.0000 0.7590 0.0000
vt 0.2133 0.9805 0.0000
vt 0.1229 0.9805 0.0000
vt 1.0790 1.2507 0.0000
vt 0.5750 1.3643 0.0000
vt -0.0601 0.7252 0.0000
vt 0.6531 0.8093 0.0000
vt -0.1695 0.1672 0.0000
vt 0.6117 1.1328 0.0000
vt 1.0000 0.6989 0.0000
vt 1.0000 0.8209 0.0000
vt 0.8391 1.0000 0.0000
vt 0.5965 0.6989 0.0000
vt 0.7333 1.0000 0.0000
vt 0.5965 0.8477 0.0000
vt 1.0000 0.1738 0.0000
vt 0.0000 0.1738 0.0000
vt 1.0000 0.7883 0.0000
vt 0.8209 1.0000 0.0000
vt 0.6989 1.0000 0.0000
vt 1.0000 0.2155 0.0000
vt 0.5003 0.8727 0.0000
vt 0.2667 1.0000 0.0000
vt 0.0000 0.7883 0.0000
vt 0.1609 1.0000 0.0000
vt 0.7704 0.4453 0.0000
vt 0.0000 0.2155 0.0000
vt 0.0000 0.4860 0.0000
vt 1.0000 1.1238 0.0000
vt 0.5965 1.1238 0.0000
vt -0.0592 1.0720 0.0000
vt 0.2299 1.2534 0.0000
vt 0.0814 1.2458 0.0000
vt -0.1058 1.1833 0.0000
vt -0.1994 0.6546 0.0000
vt 0.5948 1.0000 0.0000
vt -0.1067 1.3961 0.0000
vt -0.5263 1.0185 0.0000
vt 0.4935 1.2379 0.0000
# 54 texture coords

g Box002
usemtl wire_088144225
s 1
f 1/1/1 2/2/1 3/3/1 4/4/1 
f 5/5/2 6/6/3 7/7/4 8/5/5 
f 7/7/4 9/8/6 8/5/5 
s 2
f 4/1/7 10/9/8 11/10/9 1/4/10 
f 1/4/10 11/10/9 12/11/11 
s 4
f 4/4/12 3/1/13 13/9/14 10/12/15 
s 2
f 2/1/16 14/1/17 15/13/18 3/4/19 
f 15/13/18 16/12/20 13/12/21 3/4/19 
s 4
f 1/1/22 12/14/23 5/15/24 2/4/25 
f 5/15/24 8/15/26 14/4/27 2/4/25 
s 8
f 11/16/28 10/12/29 13/9/30 7/17/31 
f 13/9/30 16/9/32 7/17/31 
f 6/18/33 11/16/28 7/17/31 
s 1
f 9/19/6 7/20/4 16/12/34 15/13/35 
s 16
f 5/21/36 12/11/37 11/10/38 6/22/39 
s 1
f 15/23/35 14/4/40 8/15/5 9/24/6 
f 17/1/41 18/2/42 19/3/43 20/4/44 
f 21/25/45 22/26/46 23/27/47 24/28/48 
f 23/27/47 25/29/49 26/30/50 24/28/48 
s 2
f 17/4/51 20/1/52 27/31/53 28/32/54 
s 4
f 19/1/55 29/33/56 22/34/57 20/4/58 
f 22/34/57 21/35/59 27/32/60 20/4/58 
s 2
f 30/36/61 31/37/61 25/38/61 18/1/61 
f 19/4/61 18/1/61 25/38/61 29/39/61 
f 25/38/61 23/40/61 29/39/61 
s 4
f 17/1/62 28/31/63 32/41/64 18/4/65 
f 18/4/65 32/41/64 30/42/66 
f 33/43/67 34/32/68 35/31/69 36/44/70 
f 37/45/71 33/43/67 36/44/70 
s 8
f 31/46/72 30/42/73 32/41/74 24/47/75 
f 26/48/76 31/46/72 24/47/75 
s 1
f 21/44/45 24/45/48 37/45/77 36/44/78 
f 24/45/48 32/43/79 33/43/80 37/45/77 
f 32/43/79 28/32/81 34/32/81 33/43/80 
s 2
f 28/32/54 27/31/53 35/31/82 34/32/83 
s 8
f 35/31/84 27/31/85 21/44/86 36/44/87 
f 29/49/88 23/50/88 22/51/88 
f 31/52/72 26/53/76 25/54/89 
# 28 polygons - 10 triangles

