# 3ds Max Wavefront OBJ Exporter v0.97b - (c)2007 guruware
# File Created: 27.03.2016 20:37:37

mtllib banco.mtl

#
# object Box001
#

v  -0.7329 0.2749 -0.1314
v  -0.7329 0.2749 -0.1977
v  -0.6749 0.2749 -0.1977
v  -0.6749 0.2749 -0.1314
v  -0.7329 0.4286 -0.1314
v  -0.6749 0.4286 -0.1314
v  -0.6749 0.4286 -0.1977
v  -0.7329 0.4286 -0.1977
v  -0.7329 0.2749 0.1199
v  -0.7329 0.2749 0.0537
v  -0.6749 0.2749 0.0537
v  -0.6749 0.2749 0.1199
v  -0.7329 0.4286 0.1199
v  -0.6749 0.4286 0.1199
v  -0.6749 0.4286 0.0537
v  -0.7329 0.4286 0.0537
v  -0.7436 0.4229 -0.3780
v  -0.7436 0.5170 -0.3780
v  -0.6543 0.5170 -0.3780
v  -0.6543 0.4229 -0.3780
v  -0.7436 0.4229 0.2792
v  -0.6543 0.4229 0.2792
v  -0.6543 0.5170 0.2792
v  -0.7436 0.5170 0.2792
v  -0.7469 0.5785 -0.4017
v  -0.7469 0.2968 -0.3520
v  0.7469 0.2968 -0.3520
v  0.7469 0.5785 -0.4017
v  -0.7469 0.0151 -0.3023
v  -0.7469 0.0280 -0.4498
v  0.7469 0.0280 -0.4498
v  0.7469 0.0151 -0.3023
v  -0.7469 0.1129 -0.5711
v  0.7469 0.1129 -0.5711
v  -0.7469 0.2471 -0.6337
v  0.7469 0.2471 -0.6337
v  -0.7469 0.3946 -0.6208
v  0.7469 0.3946 -0.6208
v  -0.7469 0.5159 -0.5359
v  0.7469 0.5159 -0.5359
v  -0.7469 0.2755 -0.3291
v  -0.7469 0.2755 -0.0430
v  0.7469 0.2755 -0.0430
v  0.7469 0.2755 -0.3291
v  -0.7469 0.2755 0.2431
v  -0.7469 0.1325 0.2047
v  0.7469 0.1325 0.2047
v  0.7469 0.2755 0.2431
v  -0.7469 0.0278 0.1000
v  0.7469 0.0278 0.1000
v  -0.7469 -0.0106 -0.0430
v  0.7469 -0.0106 -0.0430
v  -0.7469 0.0278 -0.1860
v  0.7469 0.0278 -0.1860
v  -0.7469 0.1325 -0.2907
v  0.7469 0.1325 -0.2907
v  0.6754 0.2749 -0.1314
v  0.6754 0.2749 -0.1977
v  0.7333 0.2749 -0.1977
v  0.7333 0.2749 -0.1314
v  0.6754 0.4286 -0.1314
v  0.7333 0.4286 -0.1314
v  0.7333 0.4286 -0.1977
v  0.6754 0.4286 -0.1977
v  0.6754 0.2749 0.1199
v  0.6754 0.2749 0.0537
v  0.7333 0.2749 0.0537
v  0.7333 0.2749 0.1199
v  0.6754 0.4286 0.1199
v  0.7333 0.4286 0.1199
v  0.7333 0.4286 0.0537
v  0.6754 0.4286 0.0537
v  0.6646 0.4229 -0.3780
v  0.6646 0.5170 -0.3780
v  0.7540 0.5170 -0.3780
v  0.7540 0.4229 -0.3780
v  0.6646 0.4229 0.2792
v  0.7540 0.4229 0.2792
v  0.7540 0.5170 0.2792
v  0.6646 0.5170 0.2792
# 80 vertices

vn 0.0000 -1.0000 -0.0000
vn 0.0000 1.0000 -0.0000
vn 0.0000 0.0000 1.0000
vn 1.0000 0.0000 -0.0000
vn 0.0000 0.0000 -1.0000
vn -1.0000 0.0000 -0.0000
vn 0.0000 1.0000 0.0000
vn 0.0000 0.1736 0.9848
vn 0.0000 -0.9962 -0.0872
vn 0.0000 -0.8192 -0.5736
vn 0.0000 -0.4226 -0.9063
vn 0.0000 0.0872 -0.9962
vn -0.0000 0.5736 -0.8192
vn -0.0000 0.9063 -0.4226
vn 1.0000 0.0000 0.0000
vn 0.0000 -0.2588 0.9659
vn 0.0000 -0.7071 0.7071
vn 0.0000 -0.9659 0.2588
vn 0.0000 -0.9659 -0.2588
vn 0.0000 -0.7071 -0.7071
vn 0.0000 -0.2588 -0.9659
vn 1.0000 -0.0000 -0.0000
# 22 vertex normals

vt 0.1524 0.9240 0.0000
vt 0.1310 0.9240 0.0000
vt 0.1310 0.9052 0.0000
vt 0.1524 0.9052 0.0000
vt 0.2021 0.9240 0.0000
vt 0.2021 0.9052 0.0000
vt 0.2235 0.9052 0.0000
vt 0.2235 0.9240 0.0000
vt 0.1524 0.8838 0.0000
vt 0.2021 0.8838 0.0000
vt 0.1524 0.8651 0.0000
vt 0.2021 0.8651 0.0000
vt 0.1524 0.9453 0.0000
vt 0.2021 0.9453 0.0000
vt 0.3299 0.7993 0.0000
vt 0.3085 0.7993 0.0000
vt 0.3085 0.7806 0.0000
vt 0.3299 0.7806 0.0000
vt 0.3796 0.7993 0.0000
vt 0.3796 0.7806 0.0000
vt 0.4010 0.7806 0.0000
vt 0.4010 0.7993 0.0000
vt 0.3299 0.7592 0.0000
vt 0.3796 0.7592 0.0000
vt 0.3299 0.7405 0.0000
vt 0.3796 0.7405 0.0000
vt 0.3299 0.8207 0.0000
vt 0.3796 0.8207 0.0000
vt 0.0325 0.7998 0.0000
vt 0.0325 0.7694 0.0000
vt 0.0613 0.7694 0.0000
vt 0.0613 0.7998 0.0000
vt 0.3024 0.7998 0.0000
vt 0.2736 0.7998 0.0000
vt 0.2736 0.7694 0.0000
vt 0.3024 0.7694 0.0000
vt 0.0613 0.8286 0.0000
vt 0.2736 0.8286 0.0000
vt 0.0613 0.7405 0.0000
vt 0.2736 0.7405 0.0000
vt 0.0613 0.8590 0.0000
vt 0.2736 0.8590 0.0000
vt 0.0291 0.5290 0.0000
vt 0.0291 0.4338 0.0000
vt 0.5260 0.4338 0.0000
vt 0.5260 0.5290 0.0000
vt 0.5259 0.0326 0.0000
vt 0.5259 0.0819 0.0000
vt 0.0291 0.0819 0.0000
vt 0.0291 0.0326 0.0000
vt 0.5260 0.1311 0.0000
vt 0.0291 0.1311 0.0000
vt 0.5260 0.1804 0.0000
vt 0.0291 0.1804 0.0000
vt 0.5260 0.2296 0.0000
vt 0.0291 0.2296 0.0000
vt 0.5260 0.2789 0.0000
vt 0.0291 0.2789 0.0000
vt 0.5260 0.3281 0.0000
vt 0.0291 0.3281 0.0000
vt 0.5841 0.3514 0.0000
vt 0.5365 0.3387 0.0000
vt 0.5365 0.4338 0.0000
vt 0.6189 0.3862 0.0000
vt 0.6316 0.4338 0.0000
vt 0.6189 0.4814 0.0000
vt 0.5841 0.5162 0.0000
vt 0.5365 0.5290 0.0000
vt 0.5360 0.3388 0.0000
vt 0.5836 0.3516 0.0000
vt 0.5360 0.4340 0.0000
vt 0.6184 0.3864 0.0000
vt 0.6312 0.4340 0.0000
vt 0.6184 0.4816 0.0000
vt 0.5836 0.5164 0.0000
vt 0.5360 0.5291 0.0000
vt 0.0291 0.3387 0.0000
vt 0.5260 0.3387 0.0000
vt 0.3299 0.6747 0.0000
vt 0.3085 0.6747 0.0000
vt 0.3085 0.6560 0.0000
vt 0.3299 0.6560 0.0000
vt 0.3796 0.6747 0.0000
vt 0.3796 0.6560 0.0000
vt 0.4010 0.6560 0.0000
vt 0.4010 0.6747 0.0000
vt 0.3299 0.6346 0.0000
vt 0.3796 0.6346 0.0000
vt 0.3299 0.6159 0.0000
vt 0.3796 0.6159 0.0000
vt 0.3299 0.6961 0.0000
vt 0.3796 0.6961 0.0000
vt 0.0539 0.9240 0.0000
vt 0.0325 0.9240 0.0000
vt 0.0325 0.9052 0.0000
vt 0.0539 0.9052 0.0000
vt 0.1035 0.9240 0.0000
vt 0.1035 0.9052 0.0000
vt 0.1249 0.9052 0.0000
vt 0.1249 0.9240 0.0000
vt 0.0539 0.8838 0.0000
vt 0.1035 0.8838 0.0000
vt 0.0539 0.8651 0.0000
vt 0.1035 0.8651 0.0000
vt 0.0539 0.9453 0.0000
vt 0.1035 0.9453 0.0000
vt 0.0325 0.6751 0.0000
vt 0.0325 0.6447 0.0000
vt 0.0613 0.6447 0.0000
vt 0.0613 0.6751 0.0000
vt 0.3024 0.6751 0.0000
vt 0.2736 0.6751 0.0000
vt 0.2736 0.6447 0.0000
vt 0.3024 0.6447 0.0000
vt 0.0613 0.7040 0.0000
vt 0.2736 0.7040 0.0000
vt 0.0613 0.6159 0.0000
vt 0.2736 0.6159 0.0000
vt 0.0613 0.7344 0.0000
vt 0.2736 0.7344 0.0000
# 120 texture coords

g Box001
usemtl Material__99
s 2
f 1/1/1 2/2/1 3/3/1 4/4/1 
s 4
f 5/5/2 6/6/2 7/7/2 8/8/2 
s 8
f 1/1/3 4/4/3 6/6/3 5/5/3 
s 16
f 4/4/4 3/9/4 7/10/4 6/6/4 
s 32
f 3/9/5 2/11/5 8/12/5 7/10/5 
s 64
f 2/13/6 1/1/6 5/5/6 8/14/6 
s 2
f 9/15/1 10/16/1 11/17/1 12/18/1 
s 4
f 13/19/2 14/20/2 15/21/2 16/22/2 
s 8
f 9/15/3 12/18/3 14/20/3 13/19/3 
s 16
f 12/18/4 11/23/4 15/24/4 14/20/4 
s 32
f 11/23/5 10/25/5 16/26/5 15/24/5 
s 64
f 10/27/6 9/15/6 13/19/6 16/28/6 
s 2
f 17/29/5 18/30/5 19/31/5 20/32/5 
s 4
f 21/33/3 22/34/3 23/35/3 24/36/3 
s 8
f 17/37/1 20/32/1 22/34/1 21/38/1 
s 16
f 20/32/4 19/31/4 23/35/4 22/34/4 
s 32
f 19/31/7 18/39/7 24/40/7 23/35/7 
s 64
f 18/41/6 17/37/6 21/38/6 24/42/6 
s off
f 25/43/8 26/44/8 27/45/8 28/46/8 
f 29/47/9 30/48/9 31/49/9 32/50/9 
f 30/48/10 33/51/10 34/52/10 31/49/10 
f 33/51/11 35/53/11 36/54/11 34/52/11 
f 35/53/12 37/55/12 38/56/12 36/54/12 
f 37/55/13 39/57/13 40/58/13 38/56/13 
f 39/57/14 25/59/14 28/60/14 40/58/14 
f 30/61/6 29/62/6 26/63/6 
f 33/64/6 30/61/6 26/63/6 
f 35/65/6 33/64/6 26/63/6 
f 37/66/6 35/65/6 26/63/6 
f 39/67/6 37/66/6 26/63/6 
f 25/68/6 39/67/6 26/63/6 
f 32/69/15 31/70/15 27/71/15 
f 31/70/4 34/72/4 27/71/4 
f 34/72/4 36/73/4 27/71/4 
f 36/73/4 38/74/4 27/71/4 
f 38/74/4 40/75/4 27/71/4 
f 40/75/4 28/76/4 27/71/4 
f 26/44/8 29/77/8 32/78/8 27/45/8 
f 41/43/2 42/44/2 43/45/2 44/46/2 
f 45/47/16 46/48/16 47/49/16 48/50/16 
f 46/48/17 49/51/17 50/52/17 47/49/17 
f 49/51/18 51/53/18 52/54/18 50/52/18 
f 51/53/19 53/55/19 54/56/19 52/54/19 
f 53/55/20 55/57/20 56/58/20 54/56/20 
f 55/57/21 41/59/21 44/60/21 56/58/21 
f 46/61/6 45/62/6 42/63/6 
f 49/64/6 46/61/6 42/63/6 
f 51/65/6 49/64/6 42/63/6 
f 53/66/6 51/65/6 42/63/6 
f 55/67/6 53/66/6 42/63/6 
f 41/68/6 55/67/6 42/63/6 
f 48/69/15 47/70/15 43/71/15 
f 47/70/22 50/72/22 43/71/22 
f 50/72/4 52/73/4 43/71/4 
f 52/73/4 54/74/4 43/71/4 
f 54/74/4 56/75/4 43/71/4 
f 56/75/4 44/76/4 43/71/4 
f 42/44/7 45/77/7 48/78/7 43/45/7 
s 2
f 57/79/1 58/80/1 59/81/1 60/82/1 
s 4
f 61/83/2 62/84/2 63/85/2 64/86/2 
s 8
f 57/79/3 60/82/3 62/84/3 61/83/3 
s 16
f 60/82/4 59/87/4 63/88/4 62/84/4 
s 32
f 59/87/5 58/89/5 64/90/5 63/88/5 
s 64
f 58/91/6 57/79/6 61/83/6 64/92/6 
s 2
f 65/93/1 66/94/1 67/95/1 68/96/1 
s 4
f 69/97/2 70/98/2 71/99/2 72/100/2 
s 8
f 65/93/3 68/96/3 70/98/3 69/97/3 
s 16
f 68/96/4 67/101/4 71/102/4 70/98/4 
s 32
f 67/101/5 66/103/5 72/104/5 71/102/5 
s 64
f 66/105/6 65/93/6 69/97/6 72/106/6 
s 2
f 73/107/5 74/108/5 75/109/5 76/110/5 
s 4
f 77/111/3 78/112/3 79/113/3 80/114/3 
s 8
f 73/115/1 76/110/1 78/112/1 77/116/1 
s 16
f 76/110/4 75/109/4 79/113/4 78/112/4 
s 32
f 75/109/7 74/117/7 80/118/7 79/113/7 
s 64
f 74/119/6 73/115/6 77/116/6 80/120/6 
# 52 polygons - 24 triangles

